STARTFONT 2.1
FONT -Bitstream-Swiss721-Medium-I-Normal--14-100-100-100-P-85-Bitstream.Unicode-0
SIZE 10 100 100
FONTBOUNDINGBOX 21 20 -3 -6

STARTPROPERTIES 21
FOUNDRY "Bitstream"
FAMILY_NAME "Swiss721"
WEIGHT_NAME "Medium"
SLANT "I"
SETWIDTH_NAME "Normal"
ADD_STYLE_NAME ""
PIXEL_SIZE 14
POINT_SIZE 100
RESOLUTION_X 100
RESOLUTION_Y 100
SPACING "P"
AVERAGE_WIDTH 85
CHARSET_REGISTRY "Bitstream.Unicode"
CHARSET_ENCODING "0"
COPYRIGHT "Copyright 1989 - 1998 by Bitstream Inc. All rights reserved."
WEIGHT 10
X_HEIGHT 7
QUAD_WIDTH 8
DEFAULT_CHAR 0
FONT_DESCENT 6
FONT_ASCENT 14
ENDPROPERTIES

CHARS 1016

STARTCHAR 0
ENCODING 0
SWIDTH 1000 0
DWIDTH 14 0
BBX 1 1 0 0
BITMAP
00
ENDCHAR

STARTCHAR 1
ENCODING 1
SWIDTH 274 0
DWIDTH 4 0
BBX 1 1 0 0
BITMAP
00
ENDCHAR

STARTCHAR 2
ENCODING 2
SWIDTH 321 0
DWIDTH 4 0
BBX 3 10 0 0
BITMAP
20
20
20
40
40
40
40
00
80
80
ENDCHAR

STARTCHAR 3
ENCODING 3
SWIDTH 300 0
DWIDTH 4 0
BBX 3 4 1 6
BITMAP
A0
A0
A0
A0
ENDCHAR

STARTCHAR 4
ENCODING 4
SWIDTH 769 0
DWIDTH 11 0
BBX 10 10 0 0
BITMAP
0900
0900
0900
7FC0
1200
1200
FF80
2400
2400
2400
ENDCHAR

STARTCHAR 5
ENCODING 5
SWIDTH 549 0
DWIDTH 8 0
BBX 7 12 0 -1
BITMAP
08
1C
2A
4A
50
30
18
14
A4
A8
70
20
ENDCHAR

STARTCHAR 6
ENCODING 6
SWIDTH 845 0
DWIDTH 12 0
BBX 11 10 0 0
BITMAP
7100
8900
8A00
8A00
7400
05C0
0A20
0A20
1220
11C0
ENDCHAR

STARTCHAR 7
ENCODING 7
SWIDTH 665 0
DWIDTH 9 0
BBX 8 10 0 0
BITMAP
1C
22
22
24
38
51
8A
84
8A
71
ENDCHAR

STARTCHAR 8
ENCODING 8
SWIDTH 155 0
DWIDTH 2 0
BBX 1 4 1 6
BITMAP
80
80
80
80
ENDCHAR

STARTCHAR 9
ENCODING 9
SWIDTH 336 0
DWIDTH 5 0
BBX 5 13 0 -3
BITMAP
08
10
20
20
40
40
80
80
80
80
80
40
40
ENDCHAR

STARTCHAR 10
ENCODING 10
SWIDTH 336 0
DWIDTH 5 0
BBX 5 13 -1 -3
BITMAP
10
10
08
08
08
08
08
10
10
20
20
40
80
ENDCHAR

STARTCHAR 11
ENCODING 11
SWIDTH 500 0
DWIDTH 7 0
BBX 5 5 1 5
BITMAP
20
A8
50
50
88
ENDCHAR

STARTCHAR 12
ENCODING 12
SWIDTH 833 0
DWIDTH 12 0
BBX 9 9 1 0
BITMAP
0800
0800
0800
0800
FF80
0800
0800
0800
0800
ENDCHAR

STARTCHAR 13
ENCODING 13
SWIDTH 274 0
DWIDTH 4 0
BBX 2 3 -1 -1
BITMAP
40
40
80
ENDCHAR

STARTCHAR 14
ENCODING 14
SWIDTH 312 0
DWIDTH 4 0
BBX 3 1 0 3
BITMAP
E0
ENDCHAR

STARTCHAR 15
ENCODING 15
SWIDTH 274 0
DWIDTH 4 0
BBX 1 2 0 0
BITMAP
80
80
ENDCHAR

STARTCHAR 16
ENCODING 16
SWIDTH 301 0
DWIDTH 4 0
BBX 4 12 0 -2
BITMAP
10
10
10
20
20
20
40
40
40
80
80
80
ENDCHAR

STARTCHAR 17
ENCODING 17
SWIDTH 549 0
DWIDTH 8 0
BBX 7 10 0 0
BITMAP
1C
22
42
42
82
82
84
84
88
70
ENDCHAR

STARTCHAR 18
ENCODING 18
SWIDTH 549 0
DWIDTH 8 0
BBX 4 10 2 0
BITMAP
10
10
F0
20
20
20
20
40
40
40
ENDCHAR

STARTCHAR 19
ENCODING 19
SWIDTH 549 0
DWIDTH 8 0
BBX 7 10 0 0
BITMAP
3C
42
42
02
04
08
10
20
40
FC
ENDCHAR

STARTCHAR 20
ENCODING 20
SWIDTH 549 0
DWIDTH 8 0
BBX 7 10 0 0
BITMAP
3C
42
42
02
1C
04
04
84
88
70
ENDCHAR

STARTCHAR 21
ENCODING 21
SWIDTH 549 0
DWIDTH 8 0
BBX 7 10 0 0
BITMAP
06
0C
14
14
24
48
FE
08
08
08
ENDCHAR

STARTCHAR 22
ENCODING 22
SWIDTH 549 0
DWIDTH 8 0
BBX 7 10 0 0
BITMAP
3E
20
20
40
7C
42
02
02
84
78
ENDCHAR

STARTCHAR 23
ENCODING 23
SWIDTH 549 0
DWIDTH 8 0
BBX 7 10 1 0
BITMAP
1C
22
40
40
B8
C4
84
84
88
70
ENDCHAR

STARTCHAR 24
ENCODING 24
SWIDTH 549 0
DWIDTH 8 0
BBX 7 10 1 0
BITMAP
FE
04
08
10
10
20
20
40
40
80
ENDCHAR

STARTCHAR 25
ENCODING 25
SWIDTH 549 0
DWIDTH 8 0
BBX 7 10 0 0
BITMAP
1C
22
42
42
3C
44
84
84
88
70
ENDCHAR

STARTCHAR 26
ENCODING 26
SWIDTH 549 0
DWIDTH 8 0
BBX 7 10 0 0
BITMAP
1C
22
42
42
46
3A
04
04
88
70
ENDCHAR

STARTCHAR 27
ENCODING 27
SWIDTH 297 0
DWIDTH 4 0
BBX 2 7 1 0
BITMAP
40
40
00
00
00
80
80
ENDCHAR

STARTCHAR 28
ENCODING 28
SWIDTH 297 0
DWIDTH 4 0
BBX 3 8 0 -1
BITMAP
20
20
00
00
00
40
40
80
ENDCHAR

STARTCHAR 29
ENCODING 29
SWIDTH 833 0
DWIDTH 12 0
BBX 8 7 2 0
BITMAP
03
0C
30
C0
30
0C
03
ENDCHAR

STARTCHAR 30
ENCODING 30
SWIDTH 833 0
DWIDTH 12 0
BBX 8 4 1 2
BITMAP
FF
00
00
FF
ENDCHAR

STARTCHAR 31
ENCODING 31
SWIDTH 833 0
DWIDTH 12 0
BBX 8 7 2 0
BITMAP
C0
30
0C
03
0C
30
C0
ENDCHAR

STARTCHAR 32
ENCODING 32
SWIDTH 525 0
DWIDTH 7 0
BBX 6 10 0 0
BITMAP
38
44
84
04
08
10
20
00
40
40
ENDCHAR

STARTCHAR 33
ENCODING 33
SWIDTH 1000 0
DWIDTH 14 0
BBX 13 12 0 -2
BITMAP
1FC0
6030
4010
8748
8888
9088
9088
9190
8EE0
4000
6060
1F80
ENDCHAR

STARTCHAR 34
ENCODING 34
SWIDTH 604 0
DWIDTH 8 0
BBX 8 10 -1 0
BITMAP
04
04
0A
12
12
22
7E
41
81
81
ENDCHAR

STARTCHAR 35
ENCODING 35
SWIDTH 672 0
DWIDTH 9 0
BBX 8 10 0 0
BITMAP
3E
21
21
41
7E
41
41
81
82
FC
ENDCHAR

STARTCHAR 36
ENCODING 36
SWIDTH 707 0
DWIDTH 10 0
BBX 9 10 0 0
BITMAP
1E00
2100
4080
4000
8000
8000
8000
8100
4200
3C00
ENDCHAR

STARTCHAR 37
ENCODING 37
SWIDTH 713 0
DWIDTH 10 0
BBX 9 10 0 0
BITMAP
3E00
2100
2080
4080
4080
4080
4100
8100
8600
F800
ENDCHAR

STARTCHAR 38
ENCODING 38
SWIDTH 588 0
DWIDTH 8 0
BBX 8 10 0 0
BITMAP
3F
20
20
40
7E
40
40
80
80
FC
ENDCHAR

STARTCHAR 39
ENCODING 39
SWIDTH 539 0
DWIDTH 8 0
BBX 8 10 0 0
BITMAP
3F
20
20
40
7E
40
40
80
80
80
ENDCHAR

STARTCHAR 40
ENCODING 40
SWIDTH 753 0
DWIDTH 11 0
BBX 9 10 0 0
BITMAP
1E00
2100
4080
4000
8000
8F80
8100
8100
4300
3D00
ENDCHAR

STARTCHAR 41
ENCODING 41
SWIDTH 700 0
DWIDTH 10 0
BBX 9 10 0 0
BITMAP
2080
2080
2080
4100
7F00
4100
4100
8200
8200
8200
ENDCHAR

STARTCHAR 42
ENCODING 42
SWIDTH 260 0
DWIDTH 4 0
BBX 3 10 0 0
BITMAP
20
20
20
40
40
40
40
80
80
80
ENDCHAR

STARTCHAR 43
ENCODING 43
SWIDTH 494 0
DWIDTH 7 0
BBX 7 10 -1 0
BITMAP
02
02
02
04
04
04
88
88
88
70
ENDCHAR

STARTCHAR 44
ENCODING 44
SWIDTH 618 0
DWIDTH 9 0
BBX 8 10 0 0
BITMAP
21
22
24
48
58
68
44
84
82
82
ENDCHAR

STARTCHAR 45
ENCODING 45
SWIDTH 556 0
DWIDTH 8 0
BBX 7 10 0 0
BITMAP
20
20
20
40
40
40
40
80
80
FE
ENDCHAR

STARTCHAR 46
ENCODING 46
SWIDTH 843 0
DWIDTH 12 0
BBX 12 10 0 0
BITMAP
2010
2030
3060
50A0
50A0
4920
4A20
8A40
8C40
8840
ENDCHAR

STARTCHAR 47
ENCODING 47
SWIDTH 699 0
DWIDTH 10 0
BBX 10 10 0 0
BITMAP
3040
3040
2880
4880
4880
4480
4500
8500
8300
8200
ENDCHAR

STARTCHAR 48
ENCODING 48
SWIDTH 767 0
DWIDTH 11 0
BBX 10 10 0 0
BITMAP
0E00
3180
4080
4040
8040
8040
8080
4080
6300
1C00
ENDCHAR

STARTCHAR 49
ENCODING 49
SWIDTH 615 0
DWIDTH 9 0
BBX 8 10 0 0
BITMAP
3E
21
21
41
42
7C
40
80
80
80
ENDCHAR

STARTCHAR 50
ENCODING 50
SWIDTH 767 0
DWIDTH 11 0
BBX 10 11 0 -1
BITMAP
0E00
3180
4080
4040
8040
8040
8080
4480
6300
1E00
0100
ENDCHAR

STARTCHAR 51
ENCODING 51
SWIDTH 662 0
DWIDTH 9 0
BBX 8 10 0 0
BITMAP
3E
21
21
41
42
7C
42
82
82
82
ENDCHAR

STARTCHAR 52
ENCODING 52
SWIDTH 597 0
DWIDTH 8 0
BBX 8 10 0 0
BITMAP
1E
21
41
40
30
0C
02
82
84
78
ENDCHAR

STARTCHAR 53
ENCODING 53
SWIDTH 541 0
DWIDTH 8 0
BBX 7 10 1 0
BITMAP
FE
10
10
20
20
20
20
40
40
40
ENDCHAR

STARTCHAR 54
ENCODING 54
SWIDTH 689 0
DWIDTH 10 0
BBX 9 10 0 0
BITMAP
2080
2080
2080
4100
4100
8100
8200
8200
4400
3800
ENDCHAR

STARTCHAR 55
ENCODING 55
SWIDTH 553 0
DWIDTH 8 0
BBX 8 10 0 0
BITMAP
81
82
82
44
44
48
48
50
20
20
ENDCHAR

STARTCHAR 56
ENCODING 56
SWIDTH 831 0
DWIDTH 12 0
BBX 11 10 0 0
BITMAP
8420
8420
8C20
8C40
5440
5480
6280
6300
4300
4200
ENDCHAR

STARTCHAR 57
ENCODING 57
SWIDTH 523 0
DWIDTH 7 0
BBX 9 10 -2 0
BITMAP
2080
2100
1200
1400
0800
0800
1400
2400
4200
8100
ENDCHAR

STARTCHAR 58
ENCODING 58
SWIDTH 515 0
DWIDTH 7 0
BBX 8 10 0 0
BITMAP
81
82
44
44
48
30
30
20
20
20
ENDCHAR

STARTCHAR 59
ENCODING 59
SWIDTH 574 0
DWIDTH 8 0
BBX 9 10 -1 0
BITMAP
3F80
0100
0200
0400
0800
0800
1000
2000
4000
FE00
ENDCHAR

STARTCHAR 60
ENCODING 60
SWIDTH 354 0
DWIDTH 5 0
BBX 6 13 0 -3
BITMAP
1C
10
10
20
20
20
20
40
40
40
40
80
E0
ENDCHAR

STARTCHAR 61
ENCODING 61
SWIDTH 301 0
DWIDTH 4 0
BBX 2 12 1 -2
BITMAP
80
80
80
80
80
80
40
40
40
40
40
40
ENDCHAR

STARTCHAR 62
ENCODING 62
SWIDTH 354 0
DWIDTH 5 0
BBX 6 13 -1 -3
BITMAP
1C
04
08
08
08
08
10
10
10
10
20
20
E0
ENDCHAR

STARTCHAR 63
ENCODING 63
SWIDTH 1000 0
DWIDTH 14 0
BBX 8 4 3 6
BITMAP
18
24
42
81
ENDCHAR

STARTCHAR 64
ENCODING 64
SWIDTH 500 0
DWIDTH 7 0
BBX 7 1 -1 -3
BITMAP
FE
ENDCHAR

STARTCHAR 65
ENCODING 65
SWIDTH 500 0
DWIDTH 7 0
BBX 3 2 2 8
BITMAP
40
20
ENDCHAR

STARTCHAR 66
ENCODING 66
SWIDTH 528 0
DWIDTH 7 0
BBX 7 7 -1 0
BITMAP
3C
42
02
7E
84
8C
76
ENDCHAR

STARTCHAR 67
ENCODING 67
SWIDTH 590 0
DWIDTH 8 0
BBX 7 10 0 0
BITMAP
20
20
20
5C
62
42
82
84
CC
B0
ENDCHAR

STARTCHAR 68
ENCODING 68
SWIDTH 556 0
DWIDTH 8 0
BBX 7 7 0 0
BITMAP
1C
62
42
80
80
CC
70
ENDCHAR

STARTCHAR 69
ENCODING 69
SWIDTH 590 0
DWIDTH 8 0
BBX 8 10 0 0
BITMAP
01
01
02
3A
46
42
84
84
8C
74
ENDCHAR

STARTCHAR 70
ENCODING 70
SWIDTH 554 0
DWIDTH 8 0
BBX 7 7 0 0
BITMAP
3C
42
82
FE
80
84
78
ENDCHAR

STARTCHAR 71
ENCODING 71
SWIDTH 266 0
DWIDTH 4 0
BBX 4 10 0 0
BITMAP
10
20
40
E0
40
40
40
80
80
80
ENDCHAR

STARTCHAR 72
ENCODING 72
SWIDTH 588 0
DWIDTH 8 0
BBX 7 10 0 -3
BITMAP
3A
46
42
82
84
8C
74
04
88
70
ENDCHAR

STARTCHAR 73
ENCODING 73
SWIDTH 557 0
DWIDTH 8 0
BBX 7 10 0 0
BITMAP
20
20
20
5C
62
42
42
84
84
84
ENDCHAR

STARTCHAR 74
ENCODING 74
SWIDTH 231 0
DWIDTH 3 0
BBX 3 9 0 0
BITMAP
20
00
40
40
40
40
80
80
80
ENDCHAR

STARTCHAR 75
ENCODING 75
SWIDTH 235 0
DWIDTH 3 0
BBX 5 12 -2 -3
BITMAP
08
00
10
10
10
20
20
20
20
40
40
80
ENDCHAR

STARTCHAR 76
ENCODING 76
SWIDTH 494 0
DWIDTH 7 0
BBX 6 10 0 0
BITMAP
20
20
20
44
48
50
60
90
88
88
ENDCHAR

STARTCHAR 77
ENCODING 77
SWIDTH 231 0
DWIDTH 3 0
BBX 3 10 0 0
BITMAP
20
20
20
40
40
40
40
80
80
80
ENDCHAR

STARTCHAR 78
ENCODING 78
SWIDTH 829 0
DWIDTH 12 0
BBX 12 7 -1 0
BITMAP
5CE0
6310
4210
4210
8420
8420
8420
ENDCHAR

STARTCHAR 79
ENCODING 79
SWIDTH 552 0
DWIDTH 8 0
BBX 7 7 0 0
BITMAP
5C
62
42
42
84
84
84
ENDCHAR

STARTCHAR 80
ENCODING 80
SWIDTH 574 0
DWIDTH 8 0
BBX 7 7 0 0
BITMAP
1C
66
42
82
84
CC
70
ENDCHAR

STARTCHAR 81
ENCODING 81
SWIDTH 590 0
DWIDTH 8 0
BBX 8 10 -1 -3
BITMAP
2E
31
21
41
42
66
58
80
80
80
ENDCHAR

STARTCHAR 82
ENCODING 82
SWIDTH 590 0
DWIDTH 8 0
BBX 7 10 0 -3
BITMAP
3A
46
42
82
84
8C
74
04
08
08
ENDCHAR

STARTCHAR 83
ENCODING 83
SWIDTH 326 0
DWIDTH 5 0
BBX 5 7 0 0
BITMAP
58
60
40
40
80
80
80
ENDCHAR

STARTCHAR 84
ENCODING 84
SWIDTH 492 0
DWIDTH 7 0
BBX 6 7 0 0
BITMAP
38
44
40
30
08
88
70
ENDCHAR

STARTCHAR 85
ENCODING 85
SWIDTH 265 0
DWIDTH 4 0
BBX 4 9 0 0
BITMAP
40
40
F0
40
40
80
80
80
40
ENDCHAR

STARTCHAR 86
ENCODING 86
SWIDTH 552 0
DWIDTH 8 0
BBX 7 7 0 0
BITMAP
42
42
42
84
84
8C
74
ENDCHAR

STARTCHAR 87
ENCODING 87
SWIDTH 462 0
DWIDTH 6 0
BBX 6 7 0 0
BITMAP
84
88
88
50
50
60
20
ENDCHAR

STARTCHAR 88
ENCODING 88
SWIDTH 735 0
DWIDTH 10 0
BBX 9 7 0 0
BITMAP
8880
8880
9500
A500
6600
4400
4400
ENDCHAR

STARTCHAR 89
ENCODING 89
SWIDTH 442 0
DWIDTH 6 0
BBX 8 7 -2 0
BITMAP
21
22
14
18
28
48
84
ENDCHAR

STARTCHAR 90
ENCODING 90
SWIDTH 462 0
DWIDTH 6 0
BBX 7 10 -1 -3
BITMAP
42
44
24
28
28
30
30
20
20
C0
ENDCHAR

STARTCHAR 91
ENCODING 91
SWIDTH 446 0
DWIDTH 6 0
BBX 7 7 -1 0
BITMAP
3E
04
08
10
20
40
F8
ENDCHAR

STARTCHAR 92
ENCODING 92
SWIDTH 500 0
DWIDTH 7 0
BBX 5 13 1 -3
BITMAP
18
20
20
20
20
20
C0
20
20
20
20
20
18
ENDCHAR

STARTCHAR 93
ENCODING 93
SWIDTH 500 0
DWIDTH 7 0
BBX 1 14 3 -3
BITMAP
80
80
80
80
80
80
80
80
80
80
80
80
80
80
ENDCHAR

STARTCHAR 94
ENCODING 94
SWIDTH 500 0
DWIDTH 7 0
BBX 5 13 0 -3
BITMAP
C0
20
20
20
20
20
18
20
20
20
20
20
C0
ENDCHAR

STARTCHAR 95
ENCODING 95
SWIDTH 833 0
DWIDTH 12 0
BBX 8 2 2 3
BITMAP
71
8E
ENDCHAR

STARTCHAR 96
ENCODING 96
SWIDTH 549 0
DWIDTH 8 0
BBX 1 1 0 0
BITMAP
00
ENDCHAR

STARTCHAR 97
ENCODING 97
SWIDTH 321 0
DWIDTH 4 0
BBX 3 10 0 0
BITMAP
20
20
00
40
40
40
40
80
80
80
ENDCHAR

STARTCHAR 98
ENCODING 98
SWIDTH 549 0
DWIDTH 8 0
BBX 7 9 0 -1
BITMAP
04
1C
6A
4A
90
90
A4
78
20
ENDCHAR

STARTCHAR 99
ENCODING 99
SWIDTH 549 0
DWIDTH 8 0
BBX 7 10 0 0
BITMAP
1C
22
42
40
40
F8
40
40
B4
98
ENDCHAR

STARTCHAR 100
ENCODING 100
SWIDTH 606 0
DWIDTH 8 0
BBX 8 8 0 2
BITMAP
81
5A
24
42
42
24
5A
81
ENDCHAR

STARTCHAR 101
ENCODING 101
SWIDTH 571 0
DWIDTH 8 0
BBX 8 10 0 0
BITMAP
41
42
24
EF
10
FE
10
10
20
20
ENDCHAR

STARTCHAR 102
ENCODING 102
SWIDTH 500 0
DWIDTH 7 0
BBX 1 12 3 -2
BITMAP
80
80
80
80
80
00
00
80
80
80
80
80
ENDCHAR

STARTCHAR 103
ENCODING 103
SWIDTH 500 0
DWIDTH 7 0
BBX 8 12 -1 -2
BITMAP
0E
11
20
30
48
44
22
12
0C
04
88
70
ENDCHAR

STARTCHAR 104
ENCODING 104
SWIDTH 500 0
DWIDTH 7 0
BBX 3 1 3 8
BITMAP
A0
ENDCHAR

STARTCHAR 105
ENCODING 105
SWIDTH 833 0
DWIDTH 12 0
BBX 10 10 1 0
BITMAP
1E00
6180
4C80
9240
9040
9040
9240
4C80
6180
1E00
ENDCHAR

STARTCHAR 106
ENCODING 106
SWIDTH 459 0
DWIDTH 6 0
BBX 5 8 0 2
BITMAP
38
08
78
90
90
68
00
F0
ENDCHAR

STARTCHAR 107
ENCODING 107
SWIDTH 444 0
DWIDTH 6 0
BBX 6 5 0 1
BITMAP
24
48
90
90
48
ENDCHAR

STARTCHAR 108
ENCODING 108
SWIDTH 833 0
DWIDTH 12 0
BBX 8 3 2 3
BITMAP
FF
01
01
ENDCHAR

STARTCHAR 109
ENCODING 109
SWIDTH 312 0
DWIDTH 4 0
BBX 3 1 0 3
BITMAP
E0
ENDCHAR

STARTCHAR 110
ENCODING 110
SWIDTH 833 0
DWIDTH 12 0
BBX 10 10 1 0
BITMAP
1E00
6180
5C80
9240
9240
9C40
9240
5280
6180
1E00
ENDCHAR

STARTCHAR 111
ENCODING 111
SWIDTH 500 0
DWIDTH 7 0
BBX 4 1 2 9
BITMAP
F0
ENDCHAR

STARTCHAR 112
ENCODING 112
SWIDTH 329 0
DWIDTH 5 0
BBX 4 4 0 6
BITMAP
60
90
90
60
ENDCHAR

STARTCHAR 113
ENCODING 113
SWIDTH 833 0
DWIDTH 12 0
BBX 9 8 1 0
BITMAP
0800
0800
FF80
0800
0800
0000
0000
FF80
ENDCHAR

STARTCHAR 114
ENCODING 114
SWIDTH 362 0
DWIDTH 5 0
BBX 5 6 0 4
BITMAP
30
48
08
30
40
F0
ENDCHAR

STARTCHAR 115
ENCODING 115
SWIDTH 362 0
DWIDTH 5 0
BBX 5 6 0 4
BITMAP
70
08
30
10
90
60
ENDCHAR

STARTCHAR 116
ENCODING 116
SWIDTH 500 0
DWIDTH 7 0
BBX 2 2 4 8
BITMAP
40
80
ENDCHAR

STARTCHAR 117
ENCODING 117
SWIDTH 562 0
DWIDTH 8 0
BBX 7 10 0 -3
BITMAP
22
22
22
44
44
4C
B4
80
80
80
ENDCHAR

STARTCHAR 118
ENCODING 118
SWIDTH 500 0
DWIDTH 7 0
BBX 6 10 0 0
BITMAP
7C
E8
E8
E8
68
28
28
28
28
28
ENDCHAR

STARTCHAR 119
ENCODING 119
SWIDTH 274 0
DWIDTH 4 0
BBX 1 2 2 4
BITMAP
80
80
ENDCHAR

STARTCHAR 120
ENCODING 120
SWIDTH 500 0
DWIDTH 7 0
BBX 3 3 1 -3
BITMAP
40
20
C0
ENDCHAR

STARTCHAR 121
ENCODING 121
SWIDTH 362 0
DWIDTH 5 0
BBX 3 6 1 4
BITMAP
20
E0
20
40
40
40
ENDCHAR

STARTCHAR 122
ENCODING 122
SWIDTH 459 0
DWIDTH 6 0
BBX 6 8 0 2
BITMAP
1C
24
24
48
48
70
00
F8
ENDCHAR

STARTCHAR 123
ENCODING 123
SWIDTH 444 0
DWIDTH 6 0
BBX 6 5 0 1
BITMAP
48
24
24
48
90
ENDCHAR

STARTCHAR 124
ENCODING 124
SWIDTH 858 0
DWIDTH 12 0
BBX 10 10 1 0
BITMAP
2080
E100
2100
4200
4440
44C0
0940
0BC0
1080
2080
ENDCHAR

STARTCHAR 125
ENCODING 125
SWIDTH 858 0
DWIDTH 12 0
BBX 11 10 1 0
BITMAP
2080
E100
2100
4200
44C0
4520
0820
08C0
1100
23C0
ENDCHAR

STARTCHAR 126
ENCODING 126
SWIDTH 859 0
DWIDTH 12 0
BBX 11 10 0 0
BITMAP
3840
0880
3080
1100
9220
6260
04A0
05E0
0840
1040
ENDCHAR

STARTCHAR 127
ENCODING 127
SWIDTH 525 0
DWIDTH 7 0
BBX 6 10 0 0
BITMAP
08
08
00
10
20
40
80
84
88
70
ENDCHAR

STARTCHAR 128
ENCODING 128
SWIDTH 604 0
DWIDTH 8 0
BBX 8 13 -1 0
BITMAP
04
02
00
04
04
0A
12
12
22
7E
41
81
81
ENDCHAR

STARTCHAR 129
ENCODING 129
SWIDTH 604 0
DWIDTH 8 0
BBX 8 13 -1 0
BITMAP
02
04
00
04
04
0A
12
12
22
7E
41
81
81
ENDCHAR

STARTCHAR 130
ENCODING 130
SWIDTH 604 0
DWIDTH 8 0
BBX 8 13 -1 0
BITMAP
04
0A
00
04
04
0A
12
12
22
7E
41
81
81
ENDCHAR

STARTCHAR 131
ENCODING 131
SWIDTH 604 0
DWIDTH 8 0
BBX 8 13 -1 0
BITMAP
0D
12
00
04
04
0A
12
12
22
7E
41
81
81
ENDCHAR

STARTCHAR 132
ENCODING 132
SWIDTH 604 0
DWIDTH 8 0
BBX 8 12 -1 0
BITMAP
0A
00
04
04
0A
12
12
22
7E
41
81
81
ENDCHAR

STARTCHAR 133
ENCODING 133
SWIDTH 604 0
DWIDTH 8 0
BBX 8 13 -1 0
BITMAP
04
0A
0A
04
04
0A
12
12
22
7E
41
81
81
ENDCHAR

STARTCHAR 134
ENCODING 134
SWIDTH 935 0
DWIDTH 13 0
BBX 13 10 -1 0
BITMAP
07F8
0900
0900
1200
23F0
2200
7E00
4400
8400
87E0
ENDCHAR

STARTCHAR 135
ENCODING 135
SWIDTH 707 0
DWIDTH 10 0
BBX 9 13 0 -3
BITMAP
1E00
2100
4080
4000
8000
8000
8000
8100
4200
3C00
1000
0800
3000
ENDCHAR

STARTCHAR 136
ENCODING 136
SWIDTH 588 0
DWIDTH 8 0
BBX 8 13 0 0
BITMAP
08
04
00
3F
20
20
40
7E
40
40
80
80
FC
ENDCHAR

STARTCHAR 137
ENCODING 137
SWIDTH 588 0
DWIDTH 8 0
BBX 8 13 0 0
BITMAP
04
08
00
3F
20
20
40
7E
40
40
80
80
FC
ENDCHAR

STARTCHAR 138
ENCODING 138
SWIDTH 588 0
DWIDTH 8 0
BBX 8 13 0 0
BITMAP
04
0A
00
3F
20
20
40
7E
40
40
80
80
FC
ENDCHAR

STARTCHAR 139
ENCODING 139
SWIDTH 588 0
DWIDTH 8 0
BBX 8 12 0 0
BITMAP
0A
00
3F
20
20
40
7E
40
40
80
80
FC
ENDCHAR

STARTCHAR 140
ENCODING 140
SWIDTH 260 0
DWIDTH 4 0
BBX 3 13 0 0
BITMAP
40
20
00
20
20
20
40
40
40
40
80
80
80
ENDCHAR

STARTCHAR 141
ENCODING 141
SWIDTH 260 0
DWIDTH 4 0
BBX 4 13 0 0
BITMAP
10
20
00
20
20
20
40
40
40
40
80
80
80
ENDCHAR

STARTCHAR 142
ENCODING 142
SWIDTH 260 0
DWIDTH 4 0
BBX 4 13 0 0
BITMAP
20
50
00
20
20
20
40
40
40
40
80
80
80
ENDCHAR

STARTCHAR 143
ENCODING 143
SWIDTH 260 0
DWIDTH 4 0
BBX 4 12 0 0
BITMAP
50
00
20
20
20
40
40
40
40
80
80
80
ENDCHAR

STARTCHAR 144
ENCODING 144
SWIDTH 718 0
DWIDTH 10 0
BBX 9 10 0 0
BITMAP
3E00
2100
2080
4080
F880
4080
4100
8100
8600
F800
ENDCHAR

STARTCHAR 145
ENCODING 145
SWIDTH 699 0
DWIDTH 10 0
BBX 10 13 0 0
BITMAP
0680
0900
0000
3040
3040
2880
4880
4880
4480
4500
8500
8300
8200
ENDCHAR

STARTCHAR 146
ENCODING 146
SWIDTH 767 0
DWIDTH 11 0
BBX 10 13 0 0
BITMAP
0400
0200
0000
0E00
3180
4080
4040
8040
8040
8080
4080
6300
1C00
ENDCHAR

STARTCHAR 147
ENCODING 147
SWIDTH 767 0
DWIDTH 11 0
BBX 10 13 0 0
BITMAP
0200
0400
0000
0E00
3180
4080
4040
8040
8040
8080
4080
6300
1C00
ENDCHAR

STARTCHAR 148
ENCODING 148
SWIDTH 767 0
DWIDTH 11 0
BBX 10 13 0 0
BITMAP
0400
0A00
0000
0E00
3180
4080
4040
8040
8040
8080
4080
6300
1C00
ENDCHAR

STARTCHAR 149
ENCODING 149
SWIDTH 767 0
DWIDTH 11 0
BBX 10 13 0 0
BITMAP
0D00
1200
0000
0E00
3180
4080
4040
8040
8040
8080
4080
6300
1C00
ENDCHAR

STARTCHAR 150
ENCODING 150
SWIDTH 767 0
DWIDTH 11 0
BBX 10 12 0 0
BITMAP
0A00
0000
0E00
3180
4080
4040
8040
8040
8080
4080
6300
1C00
ENDCHAR

STARTCHAR 151
ENCODING 151
SWIDTH 833 0
DWIDTH 12 0
BBX 8 8 1 0
BITMAP
81
42
24
18
18
24
42
81
ENDCHAR

STARTCHAR 152
ENCODING 152
SWIDTH 767 0
DWIDTH 11 0
BBX 10 10 0 0
BITMAP
0E40
3180
4180
4240
8440
8840
9080
6080
6300
9C00
ENDCHAR

STARTCHAR 153
ENCODING 153
SWIDTH 689 0
DWIDTH 10 0
BBX 9 13 0 0
BITMAP
0400
0200
0000
2080
2080
2080
4100
4100
8100
8200
8200
4400
3800
ENDCHAR

STARTCHAR 154
ENCODING 154
SWIDTH 689 0
DWIDTH 10 0
BBX 9 13 0 0
BITMAP
0200
0400
0000
2080
2080
2080
4100
4100
8100
8200
8200
4400
3800
ENDCHAR

STARTCHAR 155
ENCODING 155
SWIDTH 689 0
DWIDTH 10 0
BBX 9 13 0 0
BITMAP
0400
0A00
0000
2080
2080
2080
4100
4100
8100
8200
8200
4400
3800
ENDCHAR

STARTCHAR 156
ENCODING 156
SWIDTH 689 0
DWIDTH 10 0
BBX 9 12 0 0
BITMAP
0A00
0000
2080
2080
2080
4100
4100
8100
8200
8200
4400
3800
ENDCHAR

STARTCHAR 157
ENCODING 157
SWIDTH 515 0
DWIDTH 7 0
BBX 8 13 0 0
BITMAP
04
08
00
81
82
44
44
48
30
30
20
20
20
ENDCHAR

STARTCHAR 158
ENCODING 158
SWIDTH 602 0
DWIDTH 8 0
BBX 8 10 0 0
BITMAP
20
20
3E
41
41
42
7C
80
80
80
ENDCHAR

STARTCHAR 159
ENCODING 159
SWIDTH 558 0
DWIDTH 8 0
BBX 7 10 0 0
BITMAP
1C
22
22
42
4C
42
42
82
84
B8
ENDCHAR

STARTCHAR 160
ENCODING 160
SWIDTH 528 0
DWIDTH 7 0
BBX 7 10 -1 0
BITMAP
08
04
00
3C
42
02
7E
84
8C
76
ENDCHAR

STARTCHAR 161
ENCODING 161
SWIDTH 528 0
DWIDTH 7 0
BBX 7 10 -1 0
BITMAP
04
08
00
3C
42
02
7E
84
8C
76
ENDCHAR

STARTCHAR 162
ENCODING 162
SWIDTH 528 0
DWIDTH 7 0
BBX 7 10 -1 0
BITMAP
08
14
00
3C
42
02
7E
84
8C
76
ENDCHAR

STARTCHAR 163
ENCODING 163
SWIDTH 528 0
DWIDTH 7 0
BBX 7 10 -1 0
BITMAP
1A
24
00
3C
42
02
7E
84
8C
76
ENDCHAR

STARTCHAR 164
ENCODING 164
SWIDTH 528 0
DWIDTH 7 0
BBX 7 9 -1 0
BITMAP
14
00
3C
42
02
7E
84
8C
76
ENDCHAR

STARTCHAR 165
ENCODING 165
SWIDTH 528 0
DWIDTH 7 0
BBX 7 10 -1 0
BITMAP
08
14
08
3C
42
02
7E
84
8C
76
ENDCHAR

STARTCHAR 166
ENCODING 166
SWIDTH 865 0
DWIDTH 12 0
BBX 11 7 0 0
BITMAP
39C0
4620
0420
7FE0
8400
8C40
7380
ENDCHAR

STARTCHAR 167
ENCODING 167
SWIDTH 556 0
DWIDTH 8 0
BBX 7 10 0 -3
BITMAP
1C
62
42
80
80
CC
70
20
10
60
ENDCHAR

STARTCHAR 168
ENCODING 168
SWIDTH 554 0
DWIDTH 8 0
BBX 7 10 0 0
BITMAP
10
08
00
3C
42
82
FE
80
84
78
ENDCHAR

STARTCHAR 169
ENCODING 169
SWIDTH 554 0
DWIDTH 8 0
BBX 7 10 0 0
BITMAP
08
10
00
3C
42
82
FE
80
84
78
ENDCHAR

STARTCHAR 170
ENCODING 170
SWIDTH 554 0
DWIDTH 8 0
BBX 7 10 0 0
BITMAP
08
14
00
3C
42
82
FE
80
84
78
ENDCHAR

STARTCHAR 171
ENCODING 171
SWIDTH 554 0
DWIDTH 8 0
BBX 7 9 0 0
BITMAP
14
00
3C
42
82
FE
80
84
78
ENDCHAR

STARTCHAR 172
ENCODING 172
SWIDTH 231 0
DWIDTH 3 0
BBX 3 10 0 0
BITMAP
40
20
00
40
40
40
40
80
80
80
ENDCHAR

STARTCHAR 173
ENCODING 173
SWIDTH 231 0
DWIDTH 3 0
BBX 3 10 0 0
BITMAP
20
40
00
40
40
40
40
80
80
80
ENDCHAR

STARTCHAR 174
ENCODING 174
SWIDTH 231 0
DWIDTH 3 0
BBX 3 10 0 0
BITMAP
40
A0
00
40
40
40
40
80
80
80
ENDCHAR

STARTCHAR 175
ENCODING 175
SWIDTH 231 0
DWIDTH 3 0
BBX 3 9 0 0
BITMAP
A0
00
40
40
40
40
80
80
80
ENDCHAR

STARTCHAR 176
ENCODING 176
SWIDTH 574 0
DWIDTH 8 0
BBX 7 10 0 0
BITMAP
32
1C
24
1C
66
42
82
84
CC
70
ENDCHAR

STARTCHAR 177
ENCODING 177
SWIDTH 552 0
DWIDTH 8 0
BBX 7 10 0 0
BITMAP
1A
24
00
5C
62
42
42
84
84
84
ENDCHAR

STARTCHAR 178
ENCODING 178
SWIDTH 574 0
DWIDTH 8 0
BBX 7 10 0 0
BITMAP
10
08
00
1C
66
42
82
84
CC
70
ENDCHAR

STARTCHAR 179
ENCODING 179
SWIDTH 574 0
DWIDTH 8 0
BBX 7 10 0 0
BITMAP
04
08
00
1C
66
42
82
84
CC
70
ENDCHAR

STARTCHAR 180
ENCODING 180
SWIDTH 574 0
DWIDTH 8 0
BBX 7 10 0 0
BITMAP
08
14
00
1C
66
42
82
84
CC
70
ENDCHAR

STARTCHAR 181
ENCODING 181
SWIDTH 574 0
DWIDTH 8 0
BBX 7 10 0 0
BITMAP
1A
24
00
1C
66
42
82
84
CC
70
ENDCHAR

STARTCHAR 182
ENCODING 182
SWIDTH 574 0
DWIDTH 8 0
BBX 7 9 0 0
BITMAP
14
00
1C
66
42
82
84
CC
70
ENDCHAR

STARTCHAR 183
ENCODING 183
SWIDTH 833 0
DWIDTH 12 0
BBX 7 7 2 1
BITMAP
10
10
00
FE
00
10
10
ENDCHAR

STARTCHAR 184
ENCODING 184
SWIDTH 574 0
DWIDTH 8 0
BBX 7 7 0 0
BITMAP
1A
64
4A
92
A4
4C
B0
ENDCHAR

STARTCHAR 185
ENCODING 185
SWIDTH 552 0
DWIDTH 8 0
BBX 7 10 0 0
BITMAP
10
08
00
42
42
42
84
84
8C
74
ENDCHAR

STARTCHAR 186
ENCODING 186
SWIDTH 552 0
DWIDTH 8 0
BBX 7 10 0 0
BITMAP
08
10
00
42
42
42
84
84
8C
74
ENDCHAR

STARTCHAR 187
ENCODING 187
SWIDTH 552 0
DWIDTH 8 0
BBX 7 10 0 0
BITMAP
08
14
00
42
42
42
84
84
8C
74
ENDCHAR

STARTCHAR 188
ENCODING 188
SWIDTH 552 0
DWIDTH 8 0
BBX 7 9 0 0
BITMAP
14
00
42
42
42
84
84
8C
74
ENDCHAR

STARTCHAR 189
ENCODING 189
SWIDTH 462 0
DWIDTH 6 0
BBX 7 13 -1 -3
BITMAP
04
08
00
42
44
24
28
28
30
30
20
20
C0
ENDCHAR

STARTCHAR 190
ENCODING 190
SWIDTH 590 0
DWIDTH 8 0
BBX 8 13 -1 -3
BITMAP
10
10
10
2E
31
21
41
42
66
58
80
80
80
ENDCHAR

STARTCHAR 191
ENCODING 191
SWIDTH 462 0
DWIDTH 6 0
BBX 7 12 -1 -3
BITMAP
14
00
42
44
24
28
28
30
30
20
20
C0
ENDCHAR

STARTCHAR 192
ENCODING 192
SWIDTH 604 0
DWIDTH 8 0
BBX 8 12 -1 0
BITMAP
0E
00
04
04
0A
12
12
22
7E
41
81
81
ENDCHAR

STARTCHAR 193
ENCODING 193
SWIDTH 528 0
DWIDTH 7 0
BBX 7 9 -1 0
BITMAP
1C
00
3C
42
02
7E
84
8C
76
ENDCHAR

STARTCHAR 194
ENCODING 194
SWIDTH 604 0
DWIDTH 8 0
BBX 8 13 -1 0
BITMAP
09
0E
00
04
04
0A
12
12
22
7E
41
81
81
ENDCHAR

STARTCHAR 195
ENCODING 195
SWIDTH 528 0
DWIDTH 7 0
BBX 7 10 -1 0
BITMAP
12
1C
00
3C
42
02
7E
84
8C
76
ENDCHAR

STARTCHAR 196
ENCODING 196
SWIDTH 604 0
DWIDTH 8 0
BBX 8 13 -1 -3
BITMAP
04
04
0A
12
12
22
7E
41
81
81
01
02
03
ENDCHAR

STARTCHAR 197
ENCODING 197
SWIDTH 528 0
DWIDTH 7 0
BBX 7 10 -1 -3
BITMAP
3C
42
02
7E
84
8C
76
02
04
06
ENDCHAR

STARTCHAR 198
ENCODING 198
SWIDTH 707 0
DWIDTH 10 0
BBX 9 13 0 0
BITMAP
0200
0400
0000
1E00
2100
4080
4000
8000
8000
8000
8100
4200
3C00
ENDCHAR

STARTCHAR 199
ENCODING 199
SWIDTH 556 0
DWIDTH 8 0
BBX 7 10 0 0
BITMAP
04
08
00
1C
62
42
80
80
CC
70
ENDCHAR

STARTCHAR 200
ENCODING 200
SWIDTH 707 0
DWIDTH 10 0
BBX 9 13 0 0
BITMAP
0400
0A00
0000
1E00
2100
4080
4000
8000
8000
8000
8100
4200
3C00
ENDCHAR

STARTCHAR 201
ENCODING 201
SWIDTH 556 0
DWIDTH 8 0
BBX 7 10 0 0
BITMAP
08
14
00
1C
62
42
80
80
CC
70
ENDCHAR

STARTCHAR 202
ENCODING 202
SWIDTH 707 0
DWIDTH 10 0
BBX 9 12 0 0
BITMAP
0400
0000
1E00
2100
4080
4000
8000
8000
8000
8100
4200
3C00
ENDCHAR

STARTCHAR 203
ENCODING 203
SWIDTH 556 0
DWIDTH 8 0
BBX 7 9 0 0
BITMAP
08
00
1C
62
42
80
80
CC
70
ENDCHAR

STARTCHAR 204
ENCODING 204
SWIDTH 707 0
DWIDTH 10 0
BBX 9 13 0 0
BITMAP
0A00
0400
0000
1E00
2100
4080
4000
8000
8000
8000
8100
4200
3C00
ENDCHAR

STARTCHAR 205
ENCODING 205
SWIDTH 556 0
DWIDTH 8 0
BBX 7 10 0 0
BITMAP
14
08
00
1C
62
42
80
80
CC
70
ENDCHAR

STARTCHAR 206
ENCODING 206
SWIDTH 713 0
DWIDTH 10 0
BBX 9 13 0 0
BITMAP
0A00
0400
0000
3E00
2100
2080
4080
4080
4080
4100
8100
8600
F800
ENDCHAR

STARTCHAR 207
ENCODING 207
SWIDTH 590 0
DWIDTH 8 0
BBX 9 13 0 0
BITMAP
0280
0100
0000
0100
0100
0200
3A00
4600
4200
8400
8400
8C00
7400
ENDCHAR

STARTCHAR 208
ENCODING 208
SWIDTH 718 0
DWIDTH 10 0
BBX 9 10 0 0
BITMAP
3E00
2100
2080
4080
F880
4080
4100
8100
8600
F800
ENDCHAR

STARTCHAR 209
ENCODING 209
SWIDTH 595 0
DWIDTH 8 0
BBX 9 10 0 0
BITMAP
0100
0F80
0200
3A00
4600
4200
8400
8400
8C00
7400
ENDCHAR

STARTCHAR 210
ENCODING 210
SWIDTH 588 0
DWIDTH 8 0
BBX 8 12 0 0
BITMAP
0E
00
3F
20
20
40
7E
40
40
80
80
FC
ENDCHAR

STARTCHAR 211
ENCODING 211
SWIDTH 554 0
DWIDTH 8 0
BBX 7 9 0 0
BITMAP
1C
00
3C
42
82
FE
80
84
78
ENDCHAR

STARTCHAR 212
ENCODING 212
SWIDTH 588 0
DWIDTH 8 0
BBX 8 13 0 0
BITMAP
09
0E
00
3F
20
20
40
7E
40
40
80
80
FC
ENDCHAR

STARTCHAR 213
ENCODING 213
SWIDTH 554 0
DWIDTH 8 0
BBX 7 10 0 0
BITMAP
12
1C
00
3C
42
82
FE
80
84
78
ENDCHAR

STARTCHAR 214
ENCODING 214
SWIDTH 588 0
DWIDTH 8 0
BBX 8 12 0 0
BITMAP
04
00
3F
20
20
40
7E
40
40
80
80
FC
ENDCHAR

STARTCHAR 215
ENCODING 215
SWIDTH 554 0
DWIDTH 8 0
BBX 7 9 0 0
BITMAP
08
00
3C
42
82
FE
80
84
78
ENDCHAR

STARTCHAR 216
ENCODING 216
SWIDTH 588 0
DWIDTH 8 0
BBX 8 13 0 -3
BITMAP
3F
20
20
40
7E
40
40
80
80
FC
04
08
0C
ENDCHAR

STARTCHAR 217
ENCODING 217
SWIDTH 554 0
DWIDTH 8 0
BBX 7 10 0 -3
BITMAP
3C
42
82
FE
80
84
78
08
10
18
ENDCHAR

STARTCHAR 218
ENCODING 218
SWIDTH 588 0
DWIDTH 8 0
BBX 8 13 0 0
BITMAP
0A
04
00
3F
20
20
40
7E
40
40
80
80
FC
ENDCHAR

STARTCHAR 219
ENCODING 219
SWIDTH 554 0
DWIDTH 8 0
BBX 7 10 0 0
BITMAP
14
08
00
3C
42
82
FE
80
84
78
ENDCHAR

STARTCHAR 220
ENCODING 220
SWIDTH 753 0
DWIDTH 11 0
BBX 9 13 0 0
BITMAP
0400
0A00
0000
1E00
2100
4080
4000
8000
8F80
8100
8100
4300
3D00
ENDCHAR

STARTCHAR 221
ENCODING 221
SWIDTH 588 0
DWIDTH 8 0
BBX 7 13 0 -3
BITMAP
08
14
00
3A
46
42
82
84
8C
74
04
88
70
ENDCHAR

STARTCHAR 222
ENCODING 222
SWIDTH 753 0
DWIDTH 11 0
BBX 9 13 0 0
BITMAP
0900
0E00
0000
1E00
2100
4080
4000
8000
8F80
8100
8100
4300
3D00
ENDCHAR

STARTCHAR 223
ENCODING 223
SWIDTH 588 0
DWIDTH 8 0
BBX 7 13 0 -3
BITMAP
12
1C
00
3A
46
42
82
84
8C
74
04
88
70
ENDCHAR

STARTCHAR 224
ENCODING 224
SWIDTH 753 0
DWIDTH 11 0
BBX 9 12 0 0
BITMAP
0400
0000
1E00
2100
4080
4000
8000
8F80
8100
8100
4300
3D00
ENDCHAR

STARTCHAR 225
ENCODING 225
SWIDTH 588 0
DWIDTH 8 0
BBX 7 12 0 -3
BITMAP
08
00
3A
46
42
82
84
8C
74
04
88
70
ENDCHAR

STARTCHAR 226
ENCODING 226
SWIDTH 753 0
DWIDTH 11 0
BBX 9 13 0 -3
BITMAP
1E00
2100
4080
4000
8000
8F80
8100
8100
4300
3D00
1000
0800
3000
ENDCHAR

STARTCHAR 227
ENCODING 227
SWIDTH 588 0
DWIDTH 8 0
BBX 7 10 0 -3
BITMAP
3A
46
42
82
8C
74
04
F8
10
60
ENDCHAR

STARTCHAR 228
ENCODING 228
SWIDTH 700 0
DWIDTH 10 0
BBX 9 13 0 0
BITMAP
0400
0A00
0000
2080
2080
2080
4100
7F00
4100
4100
8200
8200
8200
ENDCHAR

STARTCHAR 229
ENCODING 229
SWIDTH 557 0
DWIDTH 8 0
BBX 7 13 0 0
BITMAP
20
50
00
20
20
20
5C
62
42
42
84
84
84
ENDCHAR

STARTCHAR 230
ENCODING 230
SWIDTH 700 0
DWIDTH 10 0
BBX 10 10 0 0
BITMAP
2080
2080
FFC0
4100
7F00
4100
4100
8200
8200
8200
ENDCHAR

STARTCHAR 231
ENCODING 231
SWIDTH 557 0
DWIDTH 8 0
BBX 7 10 0 0
BITMAP
20
78
20
5C
62
42
42
84
84
84
ENDCHAR

STARTCHAR 232
ENCODING 232
SWIDTH 260 0
DWIDTH 4 0
BBX 5 13 0 0
BITMAP
68
90
00
20
20
20
40
40
40
40
80
80
80
ENDCHAR

STARTCHAR 233
ENCODING 233
SWIDTH 231 0
DWIDTH 3 0
BBX 5 10 -1 0
BITMAP
68
90
00
20
20
20
20
40
40
40
ENDCHAR

STARTCHAR 234
ENCODING 234
SWIDTH 260 0
DWIDTH 4 0
BBX 4 12 0 0
BITMAP
70
00
20
20
20
40
40
40
40
80
80
80
ENDCHAR

STARTCHAR 235
ENCODING 235
SWIDTH 231 0
DWIDTH 3 0
BBX 3 9 0 0
BITMAP
E0
00
40
40
40
40
80
80
80
ENDCHAR

STARTCHAR 236
ENCODING 236
SWIDTH 260 0
DWIDTH 4 0
BBX 5 13 0 0
BITMAP
48
70
00
20
20
20
40
40
40
40
80
80
80
ENDCHAR

STARTCHAR 237
ENCODING 237
SWIDTH 231 0
DWIDTH 3 0
BBX 4 10 0 0
BITMAP
90
E0
00
40
40
40
40
80
80
80
ENDCHAR

STARTCHAR 238
ENCODING 238
SWIDTH 260 0
DWIDTH 4 0
BBX 4 13 -1 -3
BITMAP
10
10
10
20
20
20
20
40
40
40
40
80
C0
ENDCHAR

STARTCHAR 239
ENCODING 239
SWIDTH 231 0
DWIDTH 3 0
BBX 4 12 -1 -3
BITMAP
10
00
20
20
20
20
40
40
40
40
80
C0
ENDCHAR

STARTCHAR 240
ENCODING 240
SWIDTH 260 0
DWIDTH 4 0
BBX 3 12 0 0
BITMAP
20
00
20
20
20
40
40
40
40
80
80
80
ENDCHAR

STARTCHAR 241
ENCODING 241
SWIDTH 231 0
DWIDTH 3 0
BBX 2 7 0 0
BITMAP
40
40
40
40
80
80
80
ENDCHAR

STARTCHAR 242
ENCODING 242
SWIDTH 696 0
DWIDTH 10 0
BBX 9 10 0 0
BITMAP
2080
2080
2080
4100
4100
4100
4200
A200
A200
9C00
ENDCHAR

STARTCHAR 243
ENCODING 243
SWIDTH 468 0
DWIDTH 7 0
BBX 7 12 0 -3
BITMAP
22
00
44
44
44
48
88
88
88
10
10
20
ENDCHAR

STARTCHAR 244
ENCODING 244
SWIDTH 494 0
DWIDTH 7 0
BBX 8 13 -1 0
BITMAP
02
05
00
02
02
02
04
04
04
88
88
88
70
ENDCHAR

STARTCHAR 245
ENCODING 245
SWIDTH 235 0
DWIDTH 3 0
BBX 5 13 -2 -3
BITMAP
10
28
00
10
10
10
20
20
20
20
40
40
80
ENDCHAR

STARTCHAR 246
ENCODING 246
SWIDTH 618 0
DWIDTH 9 0
BBX 8 13 0 -3
BITMAP
21
22
24
48
58
68
44
84
82
82
10
08
30
ENDCHAR

STARTCHAR 247
ENCODING 247
SWIDTH 494 0
DWIDTH 7 0
BBX 6 13 0 -3
BITMAP
20
20
20
44
48
50
60
90
88
88
20
10
60
ENDCHAR

STARTCHAR 248
ENCODING 248
SWIDTH 494 0
DWIDTH 7 0
BBX 6 7 0 0
BITMAP
44
48
50
60
90
88
88
ENDCHAR

STARTCHAR 249
ENCODING 249
SWIDTH 556 0
DWIDTH 8 0
BBX 7 13 0 0
BITMAP
10
20
00
20
20
20
40
40
40
40
80
80
FE
ENDCHAR

STARTCHAR 250
ENCODING 250
SWIDTH 231 0
DWIDTH 3 0
BBX 4 13 0 0
BITMAP
10
20
00
20
20
20
40
40
40
40
80
80
80
ENDCHAR

STARTCHAR 251
ENCODING 251
SWIDTH 556 0
DWIDTH 8 0
BBX 7 13 0 -3
BITMAP
20
20
20
40
40
40
40
80
80
FE
10
08
30
ENDCHAR

STARTCHAR 252
ENCODING 252
SWIDTH 231 0
DWIDTH 3 0
BBX 4 13 -1 -3
BITMAP
10
10
10
20
20
20
20
40
40
40
40
20
C0
ENDCHAR

STARTCHAR 253
ENCODING 253
SWIDTH 556 0
DWIDTH 8 0
BBX 7 13 0 0
BITMAP
28
10
00
20
20
20
40
40
40
40
80
80
FE
ENDCHAR

STARTCHAR 254
ENCODING 254
SWIDTH 231 0
DWIDTH 3 0
BBX 4 13 0 0
BITMAP
50
20
00
20
20
20
40
40
40
40
80
80
80
ENDCHAR

STARTCHAR 255
ENCODING 255
SWIDTH 830 0
DWIDTH 12 0
BBX 8 10 0 0
BITMAP
20
20
20
40
41
40
40
80
80
FE
ENDCHAR

STARTCHAR 256
ENCODING 256
SWIDTH 505 0
DWIDTH 7 0
BBX 5 10 0 0
BITMAP
20
20
20
40
48
40
40
80
80
80
ENDCHAR

STARTCHAR 257
ENCODING 257
SWIDTH 560 0
DWIDTH 8 0
BBX 8 10 -1 0
BITMAP
10
10
14
28
30
60
A0
40
40
7F
ENDCHAR

STARTCHAR 258
ENCODING 258
SWIDTH 241 0
DWIDTH 3 0
BBX 3 10 0 0
BITMAP
20
20
20
40
60
C0
40
80
80
80
ENDCHAR

STARTCHAR 259
ENCODING 259
SWIDTH 699 0
DWIDTH 10 0
BBX 10 13 0 0
BITMAP
0100
0200
0000
3040
3040
2880
4880
4880
4480
4500
8500
8300
8200
ENDCHAR

STARTCHAR 260
ENCODING 260
SWIDTH 552 0
DWIDTH 8 0
BBX 7 10 0 0
BITMAP
04
08
00
5C
62
42
42
84
84
84
ENDCHAR

STARTCHAR 261
ENCODING 261
SWIDTH 699 0
DWIDTH 10 0
BBX 10 13 0 -3
BITMAP
3040
3040
2880
4880
4880
4480
4500
8500
8300
8200
1000
0800
3000
ENDCHAR

STARTCHAR 262
ENCODING 262
SWIDTH 552 0
DWIDTH 8 0
BBX 7 10 0 -3
BITMAP
5C
62
42
42
84
84
84
20
10
60
ENDCHAR

STARTCHAR 263
ENCODING 263
SWIDTH 699 0
DWIDTH 10 0
BBX 10 13 0 0
BITMAP
0500
0200
0000
3040
3040
2880
4880
4880
4480
4500
8500
8300
8200
ENDCHAR

STARTCHAR 264
ENCODING 264
SWIDTH 552 0
DWIDTH 8 0
BBX 7 10 0 0
BITMAP
14
08
00
5C
62
42
42
84
84
84
ENDCHAR

STARTCHAR 265
ENCODING 265
SWIDTH 552 0
DWIDTH 8 0
BBX 8 10 0 0
BITMAP
C0
40
80
2E
31
21
21
42
42
42
ENDCHAR

STARTCHAR 266
ENCODING 266
SWIDTH 699 0
DWIDTH 10 0
BBX 10 13 0 -3
BITMAP
3040
3040
2880
4880
4880
4480
4500
8500
8300
8200
0200
0200
0C00
ENDCHAR

STARTCHAR 267
ENCODING 267
SWIDTH 552 0
DWIDTH 8 0
BBX 7 10 0 -3
BITMAP
5C
62
42
42
84
84
84
08
08
30
ENDCHAR

STARTCHAR 268
ENCODING 268
SWIDTH 767 0
DWIDTH 11 0
BBX 10 12 0 0
BITMAP
0E00
0000
0E00
3180
4080
4040
8040
8040
8080
4080
6300
1C00
ENDCHAR

STARTCHAR 269
ENCODING 269
SWIDTH 574 0
DWIDTH 8 0
BBX 7 9 0 0
BITMAP
1C
00
1C
66
42
82
84
CC
70
ENDCHAR

STARTCHAR 270
ENCODING 270
SWIDTH 767 0
DWIDTH 11 0
BBX 10 13 0 0
BITMAP
0900
0E00
0000
0E00
3180
4080
4040
8040
8040
8080
4080
6300
1C00
ENDCHAR

STARTCHAR 271
ENCODING 271
SWIDTH 574 0
DWIDTH 8 0
BBX 7 10 0 0
BITMAP
12
1C
00
1C
66
42
82
84
CC
70
ENDCHAR

STARTCHAR 272
ENCODING 272
SWIDTH 767 0
DWIDTH 11 0
BBX 10 13 0 0
BITMAP
0500
0A00
0000
0E00
3180
4080
4040
8040
8040
8080
4080
6300
1C00
ENDCHAR

STARTCHAR 273
ENCODING 273
SWIDTH 574 0
DWIDTH 8 0
BBX 7 10 0 0
BITMAP
0A
14
00
1C
66
42
82
84
CC
70
ENDCHAR

STARTCHAR 274
ENCODING 274
SWIDTH 1083 0
DWIDTH 15 0
BBX 15 10 0 0
BITMAP
0EFE
3180
4080
4080
80FC
8100
8100
4100
6300
1DF8
ENDCHAR

STARTCHAR 275
ENCODING 275
SWIDTH 939 0
DWIDTH 13 0
BBX 12 7 0 0
BITMAP
1CE0
6710
4210
83F0
8600
CA20
71C0
ENDCHAR

STARTCHAR 276
ENCODING 276
SWIDTH 662 0
DWIDTH 9 0
BBX 8 13 0 0
BITMAP
02
04
00
3E
21
21
41
42
7C
42
82
82
82
ENDCHAR

STARTCHAR 277
ENCODING 277
SWIDTH 326 0
DWIDTH 5 0
BBX 5 10 0 0
BITMAP
10
20
00
58
60
40
40
80
80
80
ENDCHAR

STARTCHAR 278
ENCODING 278
SWIDTH 662 0
DWIDTH 9 0
BBX 8 13 0 -3
BITMAP
3E
21
21
41
42
7C
42
82
82
82
10
08
30
ENDCHAR

STARTCHAR 279
ENCODING 279
SWIDTH 326 0
DWIDTH 5 0
BBX 6 10 -1 -3
BITMAP
2C
30
20
20
40
40
40
40
20
C0
ENDCHAR

STARTCHAR 280
ENCODING 280
SWIDTH 662 0
DWIDTH 9 0
BBX 8 13 0 0
BITMAP
0A
04
00
3E
21
21
41
42
7C
42
82
82
82
ENDCHAR

STARTCHAR 281
ENCODING 281
SWIDTH 326 0
DWIDTH 5 0
BBX 5 10 0 0
BITMAP
28
10
00
58
60
40
40
80
80
80
ENDCHAR

STARTCHAR 282
ENCODING 282
SWIDTH 597 0
DWIDTH 8 0
BBX 8 13 0 0
BITMAP
02
04
00
1E
21
41
40
30
0C
02
82
84
78
ENDCHAR

STARTCHAR 283
ENCODING 283
SWIDTH 492 0
DWIDTH 7 0
BBX 6 10 0 0
BITMAP
08
10
00
38
44
40
30
08
88
70
ENDCHAR

STARTCHAR 284
ENCODING 284
SWIDTH 597 0
DWIDTH 8 0
BBX 8 13 0 0
BITMAP
04
0A
00
1E
21
41
40
30
0C
02
82
84
78
ENDCHAR

STARTCHAR 285
ENCODING 285
SWIDTH 492 0
DWIDTH 7 0
BBX 6 10 0 0
BITMAP
08
14
00
38
44
40
30
08
88
70
ENDCHAR

STARTCHAR 286
ENCODING 286
SWIDTH 597 0
DWIDTH 8 0
BBX 8 13 0 -3
BITMAP
1E
21
41
40
30
0C
02
82
84
78
20
10
60
ENDCHAR

STARTCHAR 287
ENCODING 287
SWIDTH 492 0
DWIDTH 7 0
BBX 6 10 0 -3
BITMAP
38
44
40
30
08
88
70
20
10
60
ENDCHAR

STARTCHAR 288
ENCODING 288
SWIDTH 597 0
DWIDTH 8 0
BBX 8 13 0 0
BITMAP
0A
04
00
1E
21
41
40
30
0C
02
82
84
78
ENDCHAR

STARTCHAR 289
ENCODING 289
SWIDTH 492 0
DWIDTH 7 0
BBX 6 10 0 0
BITMAP
14
08
00
38
44
40
30
08
88
70
ENDCHAR

STARTCHAR 290
ENCODING 290
SWIDTH 541 0
DWIDTH 8 0
BBX 7 13 1 -3
BITMAP
FE
10
10
20
20
20
20
40
40
40
40
20
C0
ENDCHAR

STARTCHAR 291
ENCODING 291
SWIDTH 265 0
DWIDTH 4 0
BBX 5 12 -1 -3
BITMAP
20
20
78
20
20
40
40
40
20
40
20
C0
ENDCHAR

STARTCHAR 292
ENCODING 292
SWIDTH 541 0
DWIDTH 8 0
BBX 7 13 1 0
BITMAP
14
08
00
FE
10
10
20
20
20
20
40
40
40
ENDCHAR

STARTCHAR 293
ENCODING 293
SWIDTH 265 0
DWIDTH 4 0
BBX 4 12 0 0
BITMAP
50
20
00
40
40
F0
40
40
80
80
80
40
ENDCHAR

STARTCHAR 294
ENCODING 294
SWIDTH 541 0
DWIDTH 8 0
BBX 8 10 0 0
BITMAP
7F
08
08
10
FE
10
10
20
20
20
ENDCHAR

STARTCHAR 295
ENCODING 295
SWIDTH 265 0
DWIDTH 4 0
BBX 5 9 -1 0
BITMAP
20
20
78
20
F0
40
40
40
20
ENDCHAR

STARTCHAR 296
ENCODING 296
SWIDTH 689 0
DWIDTH 10 0
BBX 9 13 0 0
BITMAP
0D00
1200
0000
2080
2080
2080
4100
4100
8100
8200
8200
4400
3800
ENDCHAR

STARTCHAR 297
ENCODING 297
SWIDTH 552 0
DWIDTH 8 0
BBX 7 10 0 0
BITMAP
1A
24
00
42
42
42
84
84
8C
74
ENDCHAR

STARTCHAR 298
ENCODING 298
SWIDTH 689 0
DWIDTH 10 0
BBX 9 12 0 0
BITMAP
0E00
0000
2080
2080
2080
4100
4100
8100
8200
8200
4400
3800
ENDCHAR

STARTCHAR 299
ENCODING 299
SWIDTH 552 0
DWIDTH 8 0
BBX 7 9 0 0
BITMAP
1C
00
42
42
42
84
84
8C
74
ENDCHAR

STARTCHAR 300
ENCODING 300
SWIDTH 689 0
DWIDTH 10 0
BBX 9 13 0 0
BITMAP
0900
0E00
0000
2080
2080
2080
4100
4100
8100
8200
8200
4400
3800
ENDCHAR

STARTCHAR 301
ENCODING 301
SWIDTH 552 0
DWIDTH 8 0
BBX 7 10 0 0
BITMAP
12
1C
00
42
42
42
84
84
8C
74
ENDCHAR

STARTCHAR 302
ENCODING 302
SWIDTH 689 0
DWIDTH 10 0
BBX 9 14 0 0
BITMAP
0400
0A00
0400
0000
2080
2080
2080
4100
4100
8100
8200
8200
4400
3800
ENDCHAR

STARTCHAR 303
ENCODING 303
SWIDTH 552 0
DWIDTH 8 0
BBX 7 11 0 0
BITMAP
08
14
08
00
42
42
42
84
84
8C
74
ENDCHAR

STARTCHAR 304
ENCODING 304
SWIDTH 689 0
DWIDTH 10 0
BBX 9 13 0 0
BITMAP
0500
0A00
0000
2080
2080
2080
4100
4100
8100
8200
8200
4400
3800
ENDCHAR

STARTCHAR 305
ENCODING 305
SWIDTH 552 0
DWIDTH 8 0
BBX 7 10 0 0
BITMAP
14
28
00
42
42
42
84
84
8C
74
ENDCHAR

STARTCHAR 306
ENCODING 306
SWIDTH 689 0
DWIDTH 10 0
BBX 9 13 0 -3
BITMAP
2080
2080
2080
4100
4100
8100
8200
8200
4400
3800
0800
1000
1800
ENDCHAR

STARTCHAR 307
ENCODING 307
SWIDTH 552 0
DWIDTH 8 0
BBX 7 10 0 -3
BITMAP
42
42
42
84
84
8C
74
08
10
18
ENDCHAR

STARTCHAR 308
ENCODING 308
SWIDTH 831 0
DWIDTH 12 0
BBX 11 13 0 0
BITMAP
0400
0A00
0000
8420
8420
8C20
8C40
5440
5480
6280
6300
4300
4200
ENDCHAR

STARTCHAR 309
ENCODING 309
SWIDTH 735 0
DWIDTH 10 0
BBX 9 10 0 0
BITMAP
0400
0A00
0000
8880
8880
9500
A500
6600
4400
4400
ENDCHAR

STARTCHAR 310
ENCODING 310
SWIDTH 515 0
DWIDTH 7 0
BBX 8 13 0 0
BITMAP
08
14
00
81
82
44
44
48
30
30
20
20
20
ENDCHAR

STARTCHAR 311
ENCODING 311
SWIDTH 462 0
DWIDTH 6 0
BBX 7 13 -1 -3
BITMAP
08
14
00
42
44
24
28
28
30
30
20
20
C0
ENDCHAR

STARTCHAR 312
ENCODING 312
SWIDTH 515 0
DWIDTH 7 0
BBX 8 12 0 0
BITMAP
14
00
81
82
44
44
48
30
30
20
20
20
ENDCHAR

STARTCHAR 313
ENCODING 313
SWIDTH 574 0
DWIDTH 8 0
BBX 9 13 -1 0
BITMAP
0200
0400
0000
3F80
0100
0200
0400
0800
0800
1000
2000
4000
FE00
ENDCHAR

STARTCHAR 314
ENCODING 314
SWIDTH 446 0
DWIDTH 6 0
BBX 7 10 -1 0
BITMAP
04
08
00
3E
04
08
10
20
40
F8
ENDCHAR

STARTCHAR 315
ENCODING 315
SWIDTH 574 0
DWIDTH 8 0
BBX 9 12 -1 0
BITMAP
0400
0000
3F80
0100
0200
0400
0800
0800
1000
2000
4000
FE00
ENDCHAR

STARTCHAR 316
ENCODING 316
SWIDTH 446 0
DWIDTH 6 0
BBX 7 9 -1 0
BITMAP
08
00
3E
04
08
10
20
40
F8
ENDCHAR

STARTCHAR 317
ENCODING 317
SWIDTH 574 0
DWIDTH 8 0
BBX 9 13 -1 0
BITMAP
0A00
0400
0000
3F80
0100
0200
0400
0800
0800
1000
2000
4000
FE00
ENDCHAR

STARTCHAR 318
ENCODING 318
SWIDTH 446 0
DWIDTH 6 0
BBX 7 10 -1 0
BITMAP
14
08
00
3E
04
08
10
20
40
F8
ENDCHAR

STARTCHAR 319
ENCODING 319
SWIDTH 266 0
DWIDTH 4 0
BBX 4 10 0 0
BITMAP
10
20
40
C0
40
40
40
80
80
80
ENDCHAR

STARTCHAR 320
ENCODING 320
SWIDTH 266 0
DWIDTH 4 0
BBX 6 13 -2 -3
BITMAP
04
08
10
3C
10
10
10
20
20
20
20
40
80
ENDCHAR

STARTCHAR 321
ENCODING 321
SWIDTH 500 0
DWIDTH 7 0
BBX 7 10 -1 0
BITMAP
3E
04
08
10
38
04
04
04
88
70
ENDCHAR

STARTCHAR 322
ENCODING 322
SWIDTH 1287 0
DWIDTH 18 0
BBX 18 13 0 0
BITMAP
000500
000200
000000
3E1FC0
210080
208100
408200
408400
408400
410800
811000
862000
F87F00
ENDCHAR

STARTCHAR 323
ENCODING 323
SWIDTH 1036 0
DWIDTH 15 0
BBX 14 10 0 0
BITMAP
0128
0110
0200
3A7C
4608
4210
8420
8440
8C80
75F0
ENDCHAR

STARTCHAR 324
ENCODING 324
SWIDTH 1050 0
DWIDTH 15 0
BBX 14 10 0 0
BITMAP
2004
2004
2004
4008
4008
4008
4110
8110
8110
FCE0
ENDCHAR

STARTCHAR 325
ENCODING 325
SWIDTH 466 0
DWIDTH 7 0
BBX 7 13 0 -3
BITMAP
20
22
20
44
44
44
48
88
88
88
10
10
20
ENDCHAR

STARTCHAR 326
ENCODING 326
SWIDTH 1193 0
DWIDTH 17 0
BBX 17 10 0 0
BITMAP
304080
304080
288080
488100
488100
448100
452200
852200
832200
821C00
ENDCHAR

STARTCHAR 327
ENCODING 327
SWIDTH 787 0
DWIDTH 11 0
BBX 11 12 0 -3
BITMAP
0020
0000
5C40
6240
4240
4280
8480
8480
8480
0100
0100
0200
ENDCHAR

STARTCHAR 328
ENCODING 328
SWIDTH 604 0
DWIDTH 8 0
BBX 8 14 -1 0
BITMAP
0E
00
0A
00
04
04
0A
12
12
22
7E
41
81
81
ENDCHAR

STARTCHAR 329
ENCODING 329
SWIDTH 528 0
DWIDTH 7 0
BBX 7 11 -1 0
BITMAP
1C
00
14
00
3C
42
02
7E
84
8C
76
ENDCHAR

STARTCHAR 330
ENCODING 330
SWIDTH 753 0
DWIDTH 11 0
BBX 9 10 0 0
BITMAP
1E00
2100
4080
4000
8000
8F80
8100
9F80
4300
3D00
ENDCHAR

STARTCHAR 331
ENCODING 331
SWIDTH 588 0
DWIDTH 8 0
BBX 7 10 0 -3
BITMAP
3A
46
42
82
84
7C
04
3E
88
70
ENDCHAR

STARTCHAR 332
ENCODING 332
SWIDTH 753 0
DWIDTH 11 0
BBX 9 13 0 0
BITMAP
0A00
0400
0000
1E00
2100
4080
4000
8000
8F80
8100
8100
4300
3D00
ENDCHAR

STARTCHAR 333
ENCODING 333
SWIDTH 588 0
DWIDTH 8 0
BBX 7 13 0 -3
BITMAP
14
08
00
3A
46
42
82
84
8C
74
04
88
70
ENDCHAR

STARTCHAR 334
ENCODING 334
SWIDTH 618 0
DWIDTH 9 0
BBX 8 13 0 0
BITMAP
0A
04
00
21
22
24
48
58
68
44
84
82
82
ENDCHAR

STARTCHAR 335
ENCODING 335
SWIDTH 494 0
DWIDTH 7 0
BBX 6 13 0 0
BITMAP
28
10
00
20
20
20
44
48
50
60
90
88
88
ENDCHAR

STARTCHAR 336
ENCODING 336
SWIDTH 500 0
DWIDTH 7 0
BBX 7 13 -1 0
BITMAP
0A
04
00
3E
04
08
10
38
04
04
04
88
70
ENDCHAR

STARTCHAR 337
ENCODING 337
SWIDTH 500 0
DWIDTH 7 0
BBX 7 13 -2 -3
BITMAP
0A
04
00
3E
04
08
10
38
04
04
04
88
70
ENDCHAR

STARTCHAR 338
ENCODING 338
SWIDTH 1287 0
DWIDTH 18 0
BBX 18 10 0 0
BITMAP
3E1FC0
210080
208100
408200
408400
408400
410800
811000
862000
F87F00
ENDCHAR

STARTCHAR 339
ENCODING 339
SWIDTH 1036 0
DWIDTH 15 0
BBX 14 10 0 0
BITMAP
0100
0100
0200
3A7C
4608
4210
8420
8440
8C80
75F0
ENDCHAR

STARTCHAR 340
ENCODING 340
SWIDTH 753 0
DWIDTH 11 0
BBX 9 13 0 0
BITMAP
0200
0400
0000
1E00
2100
4080
4000
8000
8F80
8100
8100
4300
3D00
ENDCHAR

STARTCHAR 341
ENCODING 341
SWIDTH 588 0
DWIDTH 8 0
BBX 7 13 0 -3
BITMAP
04
08
00
3A
46
42
82
84
8C
74
04
88
70
ENDCHAR

STARTCHAR 342
ENCODING 342
SWIDTH 604 0
DWIDTH 8 0
BBX 8 13 -1 0
BITMAP
02
04
0A
04
04
0A
12
12
22
7E
41
81
81
ENDCHAR

STARTCHAR 343
ENCODING 343
SWIDTH 528 0
DWIDTH 7 0
BBX 7 11 -1 0
BITMAP
04
08
14
08
3C
42
02
7E
84
8C
76
ENDCHAR

STARTCHAR 344
ENCODING 344
SWIDTH 935 0
DWIDTH 13 0
BBX 13 13 -1 0
BITMAP
0040
0080
0000
07F8
0900
0900
1200
23F0
2200
7E00
4400
8400
87E0
ENDCHAR

STARTCHAR 345
ENCODING 345
SWIDTH 865 0
DWIDTH 12 0
BBX 11 10 0 0
BITMAP
0100
0200
0000
39C0
4620
0420
7FE0
8400
8C40
7380
ENDCHAR

STARTCHAR 346
ENCODING 346
SWIDTH 767 0
DWIDTH 11 0
BBX 10 13 0 0
BITMAP
0200
0400
0000
0E40
3180
4180
4240
8440
8840
9080
6080
6300
9C00
ENDCHAR

STARTCHAR 347
ENCODING 347
SWIDTH 574 0
DWIDTH 8 0
BBX 7 10 0 0
BITMAP
04
08
00
1A
64
4A
92
A4
4C
B0
ENDCHAR

STARTCHAR 348
ENCODING 348
SWIDTH 326 0
DWIDTH 5 0
BBX 6 10 -1 -3
BITMAP
2C
30
20
20
40
40
40
80
80
80
ENDCHAR

STARTCHAR 349
ENCODING 349
SWIDTH 500 0
DWIDTH 7 0
BBX 7 10 -1 -3
BITMAP
3E
04
08
10
38
04
04
04
88
70
ENDCHAR

STARTCHAR 350
ENCODING 350
SWIDTH 500 0
DWIDTH 7 0
BBX 3 2 3 8
BITMAP
40
A0
ENDCHAR

STARTCHAR 351
ENCODING 351
SWIDTH 500 0
DWIDTH 7 0
BBX 3 2 3 8
BITMAP
A0
40
ENDCHAR

STARTCHAR 352
ENCODING 352
SWIDTH 500 0
DWIDTH 7 0
BBX 3 1 2 8
BITMAP
E0
ENDCHAR

STARTCHAR 353
ENCODING 353
SWIDTH 500 0
DWIDTH 7 0
BBX 4 2 2 8
BITMAP
90
E0
ENDCHAR

STARTCHAR 354
ENCODING 354
SWIDTH 500 0
DWIDTH 7 0
BBX 1 1 3 8
BITMAP
80
ENDCHAR

STARTCHAR 355
ENCODING 355
SWIDTH 500 0
DWIDTH 7 0
BBX 3 3 2 8
BITMAP
40
A0
40
ENDCHAR

STARTCHAR 356
ENCODING 356
SWIDTH 500 0
DWIDTH 7 0
BBX 2 3 1 -3
BITMAP
40
80
C0
ENDCHAR

STARTCHAR 357
ENCODING 357
SWIDTH 500 0
DWIDTH 7 0
BBX 5 2 2 8
BITMAP
68
90
ENDCHAR

STARTCHAR 358
ENCODING 358
SWIDTH 500 0
DWIDTH 7 0
BBX 4 2 3 8
BITMAP
50
A0
ENDCHAR

STARTCHAR 359
ENCODING 359
SWIDTH 280 0
DWIDTH 4 0
BBX 2 2 1 8
BITMAP
40
80
ENDCHAR

STARTCHAR 360
ENCODING 360
SWIDTH 280 0
DWIDTH 4 0
BBX 2 2 0 -3
BITMAP
40
80
ENDCHAR

STARTCHAR 361
ENCODING 361
SWIDTH 384 0
DWIDTH 5 0
BBX 2 3 2 -3
BITMAP
40
80
C0
ENDCHAR

STARTCHAR 362
ENCODING 362
SWIDTH 297 0
DWIDTH 4 0
BBX 3 8 0 -1
BITMAP
20
20
00
00
00
40
40
80
ENDCHAR

STARTCHAR 363
ENCODING 363
SWIDTH 280 0
DWIDTH 4 0
BBX 1 2 2 8
BITMAP
80
80
ENDCHAR

STARTCHAR 364
ENCODING 364
SWIDTH 394 0
DWIDTH 6 0
BBX 5 2 0 8
BITMAP
20
A8
ENDCHAR

STARTCHAR 365
ENCODING 365
SWIDTH 604 0
DWIDTH 8 0
BBX 8 10 -1 0
BITMAP
24
24
0A
12
12
22
7E
41
81
81
ENDCHAR

STARTCHAR 366
ENCODING 366
SWIDTH 274 0
DWIDTH 4 0
BBX 1 2 1 4
BITMAP
80
80
ENDCHAR

STARTCHAR 367
ENCODING 367
SWIDTH 868 0
DWIDTH 12 0
BBX 9 10 1 0
BITMAP
9F80
9000
1000
2000
3F00
2000
2000
4000
4000
7E00
ENDCHAR

STARTCHAR 368
ENCODING 368
SWIDTH 980 0
DWIDTH 14 0
BBX 10 10 2 0
BITMAP
9040
9040
1040
2080
3F80
2080
2080
4100
4100
4100
ENDCHAR

STARTCHAR 369
ENCODING 369
SWIDTH 540 0
DWIDTH 8 0
BBX 4 10 2 0
BITMAP
90
90
10
20
20
20
20
40
40
40
ENDCHAR

STARTCHAR 370
ENCODING 370
SWIDTH 1047 0
DWIDTH 15 0
BBX 11 10 2 0
BITMAP
8700
98C0
2040
2020
4020
4020
4040
2040
3180
0E00
ENDCHAR

STARTCHAR 371
ENCODING 371
SWIDTH 795 0
DWIDTH 11 0
BBX 11 10 0 0
BITMAP
9020
9040
0880
0880
0900
0600
0600
0400
0400
0400
ENDCHAR

STARTCHAR 372
ENCODING 372
SWIDTH 1060 0
DWIDTH 15 0
BBX 10 10 2 0
BITMAP
8F00
9080
2040
2040
4040
4040
4080
4080
2100
F3C0
ENDCHAR

STARTCHAR 373
ENCODING 373
SWIDTH 248 0
DWIDTH 3 0
BBX 5 10 0 0
BITMAP
20
A8
00
40
40
40
80
80
80
40
ENDCHAR

STARTCHAR 374
ENCODING 374
SWIDTH 604 0
DWIDTH 8 0
BBX 8 10 -1 0
BITMAP
04
04
0A
12
12
22
7E
41
81
81
ENDCHAR

STARTCHAR 375
ENCODING 375
SWIDTH 672 0
DWIDTH 9 0
BBX 8 10 0 0
BITMAP
3E
21
21
41
7E
41
41
81
82
FC
ENDCHAR

STARTCHAR 376
ENCODING 376
SWIDTH 486 0
DWIDTH 7 0
BBX 7 10 0 0
BITMAP
3E
20
20
40
40
40
40
80
80
80
ENDCHAR

STARTCHAR 377
ENCODING 377
SWIDTH 608 0
DWIDTH 9 0
BBX 9 10 -1 0
BITMAP
0400
0400
0A00
1200
1200
2100
2100
4100
4080
FF80
ENDCHAR

STARTCHAR 378
ENCODING 378
SWIDTH 588 0
DWIDTH 8 0
BBX 8 10 0 0
BITMAP
3F
20
20
40
7E
40
40
80
80
FC
ENDCHAR

STARTCHAR 379
ENCODING 379
SWIDTH 574 0
DWIDTH 8 0
BBX 9 10 -1 0
BITMAP
3F80
0100
0200
0400
0800
0800
1000
2000
4000
FE00
ENDCHAR

STARTCHAR 380
ENCODING 380
SWIDTH 700 0
DWIDTH 10 0
BBX 9 10 0 0
BITMAP
2080
2080
2080
4100
7F00
4100
4100
8200
8200
8200
ENDCHAR

STARTCHAR 381
ENCODING 381
SWIDTH 767 0
DWIDTH 11 0
BBX 10 10 0 0
BITMAP
0E00
3180
4080
4040
BF40
8040
8080
4080
6300
1C00
ENDCHAR

STARTCHAR 382
ENCODING 382
SWIDTH 260 0
DWIDTH 4 0
BBX 3 10 0 0
BITMAP
20
20
20
40
40
40
40
80
80
80
ENDCHAR

STARTCHAR 383
ENCODING 383
SWIDTH 618 0
DWIDTH 9 0
BBX 8 10 0 0
BITMAP
21
22
24
48
58
68
44
84
82
82
ENDCHAR

STARTCHAR 384
ENCODING 384
SWIDTH 545 0
DWIDTH 8 0
BBX 8 10 -2 0
BITMAP
04
04
0A
12
12
22
22
41
41
81
ENDCHAR

STARTCHAR 385
ENCODING 385
SWIDTH 843 0
DWIDTH 12 0
BBX 12 10 0 0
BITMAP
2010
2030
3060
50A0
50A0
4920
4A20
8A40
8C40
8840
ENDCHAR

STARTCHAR 386
ENCODING 386
SWIDTH 699 0
DWIDTH 10 0
BBX 10 10 0 0
BITMAP
3040
3040
2880
4880
4880
4480
4500
8500
8300
8200
ENDCHAR

STARTCHAR 387
ENCODING 387
SWIDTH 590 0
DWIDTH 8 0
BBX 9 10 -1 0
BITMAP
3F80
0000
0000
0000
7F00
0000
0000
0000
0000
FE00
ENDCHAR

STARTCHAR 388
ENCODING 388
SWIDTH 767 0
DWIDTH 11 0
BBX 10 10 0 0
BITMAP
0E00
3180
4080
4040
8040
8040
8080
4080
6300
1C00
ENDCHAR

STARTCHAR 389
ENCODING 389
SWIDTH 677 0
DWIDTH 9 0
BBX 9 10 0 0
BITMAP
3F80
2080
2080
4100
4100
4100
4100
8200
8200
8200
ENDCHAR

STARTCHAR 390
ENCODING 390
SWIDTH 615 0
DWIDTH 9 0
BBX 8 10 0 0
BITMAP
3E
21
21
41
42
7C
40
80
80
80
ENDCHAR

STARTCHAR 391
ENCODING 391
SWIDTH 553 0
DWIDTH 8 0
BBX 8 10 -1 0
BITMAP
7F
20
10
08
04
08
10
20
40
FE
ENDCHAR

STARTCHAR 392
ENCODING 392
SWIDTH 541 0
DWIDTH 8 0
BBX 7 10 1 0
BITMAP
FE
10
10
20
20
20
20
40
40
40
ENDCHAR

STARTCHAR 393
ENCODING 393
SWIDTH 515 0
DWIDTH 7 0
BBX 8 10 0 0
BITMAP
81
82
44
44
48
30
30
20
20
20
ENDCHAR

STARTCHAR 394
ENCODING 394
SWIDTH 703 0
DWIDTH 10 0
BBX 9 10 0 0
BITMAP
0400
1E00
6500
4880
8880
8880
8900
5300
3C00
1000
ENDCHAR

STARTCHAR 395
ENCODING 395
SWIDTH 523 0
DWIDTH 7 0
BBX 9 10 -2 0
BITMAP
2080
2100
1200
1400
0800
0800
1400
2400
4200
8100
ENDCHAR

STARTCHAR 396
ENCODING 396
SWIDTH 762 0
DWIDTH 11 0
BBX 10 10 0 0
BITMAP
4440
4440
8880
8880
8880
8900
5300
3C00
1000
1000
ENDCHAR

STARTCHAR 397
ENCODING 397
SWIDTH 780 0
DWIDTH 11 0
BBX 10 10 -1 0
BITMAP
0F00
1080
2040
2040
4040
4040
4080
4080
2100
F3C0
ENDCHAR

STARTCHAR 398
ENCODING 398
SWIDTH 260 0
DWIDTH 4 0
BBX 4 12 0 0
BITMAP
50
00
20
20
20
40
40
40
40
80
80
80
ENDCHAR

STARTCHAR 399
ENCODING 399
SWIDTH 515 0
DWIDTH 7 0
BBX 8 12 0 0
BITMAP
14
00
81
82
44
44
48
30
30
20
20
20
ENDCHAR

STARTCHAR 400
ENCODING 400
SWIDTH 606 0
DWIDTH 8 0
BBX 8 10 0 0
BITMAP
08
08
00
1D
62
42
82
84
8C
76
ENDCHAR

STARTCHAR 401
ENCODING 401
SWIDTH 481 0
DWIDTH 7 0
BBX 6 10 0 0
BITMAP
10
10
00
38
44
40
70
80
88
70
ENDCHAR

STARTCHAR 402
ENCODING 402
SWIDTH 557 0
DWIDTH 8 0
BBX 7 13 0 -3
BITMAP
08
08
00
DC
62
42
42
84
84
84
08
08
10
ENDCHAR

STARTCHAR 403
ENCODING 403
SWIDTH 248 0
DWIDTH 3 0
BBX 3 10 0 0
BITMAP
20
20
00
40
40
40
80
80
80
40
ENDCHAR

STARTCHAR 404
ENCODING 404
SWIDTH 544 0
DWIDTH 8 0
BBX 7 10 0 0
BITMAP
08
2A
00
42
42
42
84
84
84
78
ENDCHAR

STARTCHAR 405
ENCODING 405
SWIDTH 606 0
DWIDTH 8 0
BBX 8 7 0 0
BITMAP
1D
62
42
82
84
8C
76
ENDCHAR

STARTCHAR 406
ENCODING 406
SWIDTH 569 0
DWIDTH 8 0
BBX 8 13 -1 -3
BITMAP
0E
11
11
21
26
21
21
41
62
5C
80
80
80
ENDCHAR

STARTCHAR 407
ENCODING 407
SWIDTH 523 0
DWIDTH 7 0
BBX 7 10 0 -3
BITMAP
C6
44
48
68
30
20
20
20
40
40
ENDCHAR

STARTCHAR 408
ENCODING 408
SWIDTH 567 0
DWIDTH 8 0
BBX 7 10 0 0
BITMAP
3E
20
10
18
24
42
82
82
44
38
ENDCHAR

STARTCHAR 409
ENCODING 409
SWIDTH 481 0
DWIDTH 7 0
BBX 6 7 0 0
BITMAP
38
44
40
70
80
88
70
ENDCHAR

STARTCHAR 410
ENCODING 410
SWIDTH 461 0
DWIDTH 6 0
BBX 6 13 0 -3
BITMAP
7C
08
10
20
40
40
80
80
80
78
08
08
10
ENDCHAR

STARTCHAR 411
ENCODING 411
SWIDTH 557 0
DWIDTH 8 0
BBX 7 10 0 -3
BITMAP
DC
62
42
42
84
84
84
08
08
10
ENDCHAR

STARTCHAR 412
ENCODING 412
SWIDTH 556 0
DWIDTH 8 0
BBX 7 10 0 0
BITMAP
1C
22
42
42
7E
84
84
84
88
70
ENDCHAR

STARTCHAR 413
ENCODING 413
SWIDTH 248 0
DWIDTH 3 0
BBX 2 7 0 0
BITMAP
40
40
40
80
80
80
40
ENDCHAR

STARTCHAR 414
ENCODING 414
SWIDTH 493 0
DWIDTH 7 0
BBX 6 7 0 0
BITMAP
44
48
50
60
90
88
88
ENDCHAR

STARTCHAR 415
ENCODING 415
SWIDTH 490 0
DWIDTH 7 0
BBX 7 10 -1 0
BITMAP
10
08
08
08
08
14
24
24
42
82
ENDCHAR

STARTCHAR 416
ENCODING 416
SWIDTH 562 0
DWIDTH 8 0
BBX 7 10 0 -3
BITMAP
22
22
22
44
44
4C
B4
80
80
80
ENDCHAR

STARTCHAR 417
ENCODING 417
SWIDTH 462 0
DWIDTH 6 0
BBX 6 7 0 0
BITMAP
84
88
88
50
50
60
20
ENDCHAR

STARTCHAR 418
ENCODING 418
SWIDTH 484 0
DWIDTH 7 0
BBX 7 13 0 -3
BITMAP
3E
10
20
20
3C
40
80
80
80
7C
04
04
08
ENDCHAR

STARTCHAR 419
ENCODING 419
SWIDTH 574 0
DWIDTH 8 0
BBX 7 7 0 0
BITMAP
1C
66
42
82
84
CC
70
ENDCHAR

STARTCHAR 420
ENCODING 420
SWIDTH 597 0
DWIDTH 8 0
BBX 7 7 0 0
BITMAP
FE
44
44
44
88
88
84
ENDCHAR

STARTCHAR 421
ENCODING 421
SWIDTH 586 0
DWIDTH 8 0
BBX 8 10 -1 -3
BITMAP
0E
31
21
41
42
66
58
80
80
80
ENDCHAR

STARTCHAR 422
ENCODING 422
SWIDTH 523 0
DWIDTH 7 0
BBX 6 10 0 -3
BITMAP
38
44
84
80
80
40
38
08
08
10
ENDCHAR

STARTCHAR 423
ENCODING 423
SWIDTH 611 0
DWIDTH 9 0
BBX 8 7 0 0
BITMAP
1F
64
42
82
84
CC
70
ENDCHAR

STARTCHAR 424
ENCODING 424
SWIDTH 425 0
DWIDTH 6 0
BBX 5 7 1 0
BITMAP
F8
20
20
40
40
40
20
ENDCHAR

STARTCHAR 425
ENCODING 425
SWIDTH 544 0
DWIDTH 8 0
BBX 7 7 0 0
BITMAP
42
42
42
84
84
84
78
ENDCHAR

STARTCHAR 426
ENCODING 426
SWIDTH 697 0
DWIDTH 10 0
BBX 9 13 0 -3
BITMAP
0400
0400
0400
1E00
6500
4880
8880
8900
5300
3C00
1000
1000
1000
ENDCHAR

STARTCHAR 427
ENCODING 427
SWIDTH 551 0
DWIDTH 8 0
BBX 9 10 -1 -3
BITMAP
4080
2100
1200
1400
0800
0800
1400
2400
4200
8100
ENDCHAR

STARTCHAR 428
ENCODING 428
SWIDTH 682 0
DWIDTH 10 0
BBX 8 12 1 -3
BITMAP
08
08
49
49
49
92
92
92
7C
20
20
20
ENDCHAR

STARTCHAR 429
ENCODING 429
SWIDTH 725 0
DWIDTH 10 0
BBX 9 7 0 0
BITMAP
2100
4080
8880
8880
8880
9900
6600
ENDCHAR

STARTCHAR 430
ENCODING 430
SWIDTH 248 0
DWIDTH 3 0
BBX 4 9 0 0
BITMAP
50
00
40
40
40
80
80
80
40
ENDCHAR

STARTCHAR 431
ENCODING 431
SWIDTH 544 0
DWIDTH 8 0
BBX 7 9 0 0
BITMAP
14
00
42
42
42
84
84
84
78
ENDCHAR

STARTCHAR 432
ENCODING 432
SWIDTH 574 0
DWIDTH 8 0
BBX 7 10 0 0
BITMAP
08
08
00
1C
66
42
82
84
CC
70
ENDCHAR

STARTCHAR 433
ENCODING 433
SWIDTH 544 0
DWIDTH 8 0
BBX 7 10 0 0
BITMAP
08
08
00
42
42
42
84
84
84
78
ENDCHAR

STARTCHAR 434
ENCODING 434
SWIDTH 725 0
DWIDTH 10 0
BBX 9 10 0 0
BITMAP
0400
0400
0000
2100
4080
8880
8880
8880
9900
6600
ENDCHAR

STARTCHAR 435
ENCODING 435
SWIDTH 588 0
DWIDTH 8 0
BBX 8 12 0 0
BITMAP
0A
00
3F
20
20
40
7E
40
40
80
80
FC
ENDCHAR

STARTCHAR 436
ENCODING 436
SWIDTH 817 0
DWIDTH 11 0
BBX 9 10 0 0
BITMAP
FE00
1000
1000
1700
2880
3080
2080
4080
4100
4600
ENDCHAR

STARTCHAR 437
ENCODING 437
SWIDTH 503 0
DWIDTH 7 0
BBX 7 13 0 0
BITMAP
04
08
00
3E
20
20
40
40
40
40
80
80
80
ENDCHAR

STARTCHAR 438
ENCODING 438
SWIDTH 719 0
DWIDTH 10 0
BBX 9 10 0 0
BITMAP
1E00
2100
4080
4000
FE00
8000
8000
8100
4200
3C00
ENDCHAR

STARTCHAR 439
ENCODING 439
SWIDTH 597 0
DWIDTH 8 0
BBX 8 10 0 0
BITMAP
1E
21
41
40
30
0C
02
82
84
78
ENDCHAR

STARTCHAR 440
ENCODING 440
SWIDTH 260 0
DWIDTH 4 0
BBX 3 10 0 0
BITMAP
20
20
20
40
40
40
40
80
80
80
ENDCHAR

STARTCHAR 441
ENCODING 441
SWIDTH 260 0
DWIDTH 4 0
BBX 5 12 0 0
BITMAP
28
00
20
20
20
40
40
40
40
80
80
80
ENDCHAR

STARTCHAR 442
ENCODING 442
SWIDTH 494 0
DWIDTH 7 0
BBX 7 10 -1 0
BITMAP
02
02
02
04
04
04
88
88
88
70
ENDCHAR

STARTCHAR 443
ENCODING 443
SWIDTH 1119 0
DWIDTH 16 0
BBX 15 10 -1 0
BITMAP
1FC0
1040
1040
2080
20FC
2082
4082
4102
4104
81F8
ENDCHAR

STARTCHAR 444
ENCODING 444
SWIDTH 1073 0
DWIDTH 15 0
BBX 14 10 0 0
BITMAP
2080
2080
2080
4100
7FF8
4104
4104
8204
8208
83F0
ENDCHAR

STARTCHAR 445
ENCODING 445
SWIDTH 802 0
DWIDTH 11 0
BBX 9 10 0 0
BITMAP
FE00
1000
1000
1700
2880
3080
2080
4100
4100
4100
ENDCHAR

STARTCHAR 446
ENCODING 446
SWIDTH 618 0
DWIDTH 9 0
BBX 8 13 0 0
BITMAP
04
08
00
21
22
24
48
58
68
44
84
82
82
ENDCHAR

STARTCHAR 447
ENCODING 447
SWIDTH 580 0
DWIDTH 8 0
BBX 8 13 0 0
BITMAP
12
1C
00
81
82
44
44
48
28
30
20
20
C0
ENDCHAR

STARTCHAR 448
ENCODING 448
SWIDTH 731 0
DWIDTH 10 0
BBX 9 12 0 -2
BITMAP
2080
2080
2080
4100
4100
4100
4100
8200
8200
FE00
1000
1000
ENDCHAR

STARTCHAR 449
ENCODING 449
SWIDTH 604 0
DWIDTH 8 0
BBX 8 10 -1 0
BITMAP
04
04
0A
12
12
22
7E
41
81
81
ENDCHAR

STARTCHAR 450
ENCODING 450
SWIDTH 661 0
DWIDTH 9 0
BBX 8 10 0 0
BITMAP
3F
20
20
40
7E
41
41
81
82
FC
ENDCHAR

STARTCHAR 451
ENCODING 451
SWIDTH 672 0
DWIDTH 9 0
BBX 8 10 0 0
BITMAP
3E
21
21
41
7E
41
41
81
82
FC
ENDCHAR

STARTCHAR 452
ENCODING 452
SWIDTH 503 0
DWIDTH 7 0
BBX 7 10 0 0
BITMAP
3E
20
20
40
40
40
40
80
80
80
ENDCHAR

STARTCHAR 453
ENCODING 453
SWIDTH 682 0
DWIDTH 10 0
BBX 9 12 -1 -2
BITMAP
0F80
1080
1080
1080
1080
2100
2100
4100
4100
FF80
8080
8080
ENDCHAR

STARTCHAR 454
ENCODING 454
SWIDTH 588 0
DWIDTH 8 0
BBX 8 10 0 0
BITMAP
3F
20
20
40
7E
40
40
80
80
FC
ENDCHAR

STARTCHAR 455
ENCODING 455
SWIDTH 947 0
DWIDTH 13 0
BBX 11 10 1 0
BITMAP
2220
2240
1480
1500
0E00
0E00
1500
2500
4880
8880
ENDCHAR

STARTCHAR 456
ENCODING 456
SWIDTH 586 0
DWIDTH 8 0
BBX 8 10 -1 0
BITMAP
1E
21
41
02
1C
02
02
82
84
78
ENDCHAR

STARTCHAR 457
ENCODING 457
SWIDTH 748 0
DWIDTH 10 0
BBX 10 10 -1 0
BITMAP
2040
20C0
2140
4280
4480
4880
5080
A100
C100
8100
ENDCHAR

STARTCHAR 458
ENCODING 458
SWIDTH 748 0
DWIDTH 10 0
BBX 10 13 -1 0
BITMAP
0480
0700
0000
2040
20C0
2140
4280
4480
4880
5080
A100
C100
8100
ENDCHAR

STARTCHAR 459
ENCODING 459
SWIDTH 618 0
DWIDTH 9 0
BBX 8 10 0 0
BITMAP
21
22
24
48
58
68
44
84
82
82
ENDCHAR

STARTCHAR 460
ENCODING 460
SWIDTH 725 0
DWIDTH 10 0
BBX 10 10 -1 0
BITMAP
1FC0
1040
1040
2080
2080
2080
2080
4100
4100
8100
ENDCHAR

STARTCHAR 461
ENCODING 461
SWIDTH 843 0
DWIDTH 12 0
BBX 12 10 0 0
BITMAP
2010
2030
3060
50A0
50A0
4920
4A20
8A40
8C40
8840
ENDCHAR

STARTCHAR 462
ENCODING 462
SWIDTH 700 0
DWIDTH 10 0
BBX 9 10 0 0
BITMAP
2080
2080
2080
4100
7F00
4100
4100
8200
8200
8200
ENDCHAR

STARTCHAR 463
ENCODING 463
SWIDTH 767 0
DWIDTH 11 0
BBX 10 10 0 0
BITMAP
0E00
3180
4080
4040
8040
8040
8080
4080
6300
1C00
ENDCHAR

STARTCHAR 464
ENCODING 464
SWIDTH 742 0
DWIDTH 10 0
BBX 9 10 0 0
BITMAP
3F80
2080
2080
4100
4100
4100
4100
8200
8200
8200
ENDCHAR

STARTCHAR 465
ENCODING 465
SWIDTH 615 0
DWIDTH 9 0
BBX 8 10 0 0
BITMAP
3E
21
21
41
42
7C
40
80
80
80
ENDCHAR

STARTCHAR 466
ENCODING 466
SWIDTH 707 0
DWIDTH 10 0
BBX 9 10 0 0
BITMAP
1E00
2100
4080
4000
8000
8000
8000
8100
4200
3C00
ENDCHAR

STARTCHAR 467
ENCODING 467
SWIDTH 541 0
DWIDTH 8 0
BBX 7 10 1 0
BITMAP
FE
10
10
20
20
20
20
40
40
40
ENDCHAR

STARTCHAR 468
ENCODING 468
SWIDTH 580 0
DWIDTH 8 0
BBX 8 10 0 0
BITMAP
81
82
44
44
48
28
30
20
20
C0
ENDCHAR

STARTCHAR 469
ENCODING 469
SWIDTH 829 0
DWIDTH 12 0
BBX 11 10 0 0
BITMAP
0200
1F80
6240
4420
8420
8420
8440
48C0
3F00
0800
ENDCHAR

STARTCHAR 470
ENCODING 470
SWIDTH 523 0
DWIDTH 7 0
BBX 9 10 -2 0
BITMAP
2080
2100
1200
1400
0800
0800
1400
2400
4200
8100
ENDCHAR

STARTCHAR 471
ENCODING 471
SWIDTH 735 0
DWIDTH 10 0
BBX 9 12 0 -2
BITMAP
2080
2080
2080
4100
4100
4100
4100
8200
8200
FF00
0100
0100
ENDCHAR

STARTCHAR 472
ENCODING 472
SWIDTH 661 0
DWIDTH 9 0
BBX 8 10 0 0
BITMAP
41
41
41
82
82
82
7E
04
04
04
ENDCHAR

STARTCHAR 473
ENCODING 473
SWIDTH 1025 0
DWIDTH 14 0
BBX 13 10 0 0
BITMAP
2108
2108
2108
4210
4210
4210
4210
8420
8420
FFE0
ENDCHAR

STARTCHAR 474
ENCODING 474
SWIDTH 1025 0
DWIDTH 14 0
BBX 13 12 0 -2
BITMAP
2108
2108
2108
4210
4210
4210
4210
8420
8420
FFF0
0010
0010
ENDCHAR

STARTCHAR 475
ENCODING 475
SWIDTH 805 0
DWIDTH 11 0
BBX 9 10 1 0
BITMAP
F000
1000
1000
2000
3F00
2080
2080
4080
4100
7E00
ENDCHAR

STARTCHAR 476
ENCODING 476
SWIDTH 912 0
DWIDTH 13 0
BBX 12 10 0 0
BITMAP
2010
2010
2010
4020
7E20
4120
4120
8140
8240
FC40
ENDCHAR

STARTCHAR 477
ENCODING 477
SWIDTH 663 0
DWIDTH 9 0
BBX 8 10 0 0
BITMAP
20
20
20
40
7E
41
41
81
82
FC
ENDCHAR

STARTCHAR 478
ENCODING 478
SWIDTH 719 0
DWIDTH 10 0
BBX 9 10 0 0
BITMAP
1E00
2100
0080
0080
1F80
0080
0100
8100
4600
3800
ENDCHAR

STARTCHAR 479
ENCODING 479
SWIDTH 1027 0
DWIDTH 14 0
BBX 14 10 0 0
BITMAP
20E0
2318
2408
4404
7804
4804
4808
8408
8630
81C0
ENDCHAR

STARTCHAR 480
ENCODING 480
SWIDTH 662 0
DWIDTH 9 0
BBX 8 10 0 0
BITMAP
1F
21
41
42
42
3E
42
44
84
84
ENDCHAR

STARTCHAR 481
ENCODING 481
SWIDTH 528 0
DWIDTH 7 0
BBX 7 7 -1 0
BITMAP
3C
42
02
7E
84
8C
76
ENDCHAR

STARTCHAR 482
ENCODING 482
SWIDTH 574 0
DWIDTH 8 0
BBX 8 10 0 0
BITMAP
07
18
20
5C
66
C2
82
84
CC
70
ENDCHAR

STARTCHAR 483
ENCODING 483
SWIDTH 529 0
DWIDTH 7 0
BBX 7 7 0 0
BITMAP
7C
42
42
FC
84
84
F8
ENDCHAR

STARTCHAR 484
ENCODING 484
SWIDTH 376 0
DWIDTH 5 0
BBX 5 7 0 0
BITMAP
78
40
40
40
80
80
80
ENDCHAR

STARTCHAR 485
ENCODING 485
SWIDTH 563 0
DWIDTH 8 0
BBX 8 9 -1 -2
BITMAP
1F
11
11
22
22
42
FE
84
84
ENDCHAR

STARTCHAR 486
ENCODING 486
SWIDTH 554 0
DWIDTH 8 0
BBX 7 7 0 0
BITMAP
3C
42
82
FE
80
84
78
ENDCHAR

STARTCHAR 487
ENCODING 487
SWIDTH 714 0
DWIDTH 10 0
BBX 10 7 0 0
BITMAP
2440
2480
1500
1E00
2A00
4900
8900
ENDCHAR

STARTCHAR 488
ENCODING 488
SWIDTH 472 0
DWIDTH 7 0
BBX 6 7 0 0
BITMAP
38
44
04
18
08
88
70
ENDCHAR

STARTCHAR 489
ENCODING 489
SWIDTH 562 0
DWIDTH 8 0
BBX 8 7 -1 0
BITMAP
21
23
46
5A
62
C4
84
ENDCHAR

STARTCHAR 490
ENCODING 490
SWIDTH 562 0
DWIDTH 8 0
BBX 8 10 -1 0
BITMAP
09
0E
00
21
23
46
5A
62
C4
84
ENDCHAR

STARTCHAR 491
ENCODING 491
SWIDTH 498 0
DWIDTH 7 0
BBX 6 7 0 0
BITMAP
44
48
50
60
90
88
88
ENDCHAR

STARTCHAR 492
ENCODING 492
SWIDTH 560 0
DWIDTH 8 0
BBX 8 7 -1 0
BITMAP
1F
21
21
21
42
42
82
ENDCHAR

STARTCHAR 493
ENCODING 493
SWIDTH 653 0
DWIDTH 9 0
BBX 9 7 0 0
BITMAP
2080
2080
2100
5300
5500
9A00
9200
ENDCHAR

STARTCHAR 494
ENCODING 494
SWIDTH 562 0
DWIDTH 8 0
BBX 7 7 0 0
BITMAP
42
42
42
7E
84
84
84
ENDCHAR

STARTCHAR 495
ENCODING 495
SWIDTH 574 0
DWIDTH 8 0
BBX 7 7 0 0
BITMAP
1C
66
42
82
84
CC
70
ENDCHAR

STARTCHAR 496
ENCODING 496
SWIDTH 562 0
DWIDTH 8 0
BBX 7 7 0 0
BITMAP
7E
42
42
42
84
84
84
ENDCHAR

STARTCHAR 497
ENCODING 497
SWIDTH 590 0
DWIDTH 8 0
BBX 8 10 -1 -3
BITMAP
2E
31
21
41
42
66
58
80
80
80
ENDCHAR

STARTCHAR 498
ENCODING 498
SWIDTH 556 0
DWIDTH 8 0
BBX 7 7 0 0
BITMAP
1C
62
42
80
80
CC
70
ENDCHAR

STARTCHAR 499
ENCODING 499
SWIDTH 406 0
DWIDTH 6 0
BBX 5 7 1 0
BITMAP
F8
20
20
20
40
40
40
ENDCHAR

STARTCHAR 500
ENCODING 500
SWIDTH 462 0
DWIDTH 6 0
BBX 7 10 -1 -3
BITMAP
42
44
24
28
28
30
30
20
20
C0
ENDCHAR

STARTCHAR 501
ENCODING 501
SWIDTH 853 0
DWIDTH 12 0
BBX 11 13 0 -3
BITMAP
0200
0200
0200
1AC0
6720
4420
8420
8440
9CC0
6B00
0800
0800
0800
ENDCHAR

STARTCHAR 502
ENCODING 502
SWIDTH 442 0
DWIDTH 6 0
BBX 8 7 -2 0
BITMAP
21
22
14
18
28
48
84
ENDCHAR

STARTCHAR 503
ENCODING 503
SWIDTH 580 0
DWIDTH 8 0
BBX 7 9 0 -2
BITMAP
42
42
42
42
84
84
FE
02
02
ENDCHAR

STARTCHAR 504
ENCODING 504
SWIDTH 516 0
DWIDTH 7 0
BBX 6 7 0 0
BITMAP
44
44
44
88
F8
08
08
ENDCHAR

STARTCHAR 505
ENCODING 505
SWIDTH 786 0
DWIDTH 11 0
BBX 10 7 0 0
BITMAP
4440
4440
4440
4440
8880
8880
FF80
ENDCHAR

STARTCHAR 506
ENCODING 506
SWIDTH 800 0
DWIDTH 11 0
BBX 10 9 0 -2
BITMAP
4440
4440
4440
4440
8880
8880
FFC0
0040
0040
ENDCHAR

STARTCHAR 507
ENCODING 507
SWIDTH 604 0
DWIDTH 8 0
BBX 6 7 1 0
BITMAP
E0
20
40
78
44
84
F8
ENDCHAR

STARTCHAR 508
ENCODING 508
SWIDTH 741 0
DWIDTH 10 0
BBX 10 7 -1 0
BITMAP
2040
2040
4080
7880
4480
8500
F900
ENDCHAR

STARTCHAR 509
ENCODING 509
SWIDTH 516 0
DWIDTH 7 0
BBX 6 7 0 0
BITMAP
20
20
40
78
44
84
F8
ENDCHAR

STARTCHAR 510
ENCODING 510
SWIDTH 562 0
DWIDTH 8 0
BBX 7 7 0 0
BITMAP
3C
42
02
1E
04
84
78
ENDCHAR

STARTCHAR 511
ENCODING 511
SWIDTH 795 0
DWIDTH 11 0
BBX 10 7 0 0
BITMAP
4380
4CC0
4840
7040
9080
9980
8E00
ENDCHAR

STARTCHAR 512
ENCODING 512
SWIDTH 516 0
DWIDTH 7 0
BBX 7 7 -1 0
BITMAP
3E
42
42
3E
44
84
84
ENDCHAR

STARTCHAR 513
ENCODING 513
SWIDTH 554 0
DWIDTH 8 0
BBX 7 9 0 0
BITMAP
14
00
3C
42
82
FE
80
84
78
ENDCHAR

STARTCHAR 514
ENCODING 514
SWIDTH 559 0
DWIDTH 8 0
BBX 7 12 0 -2
BITMAP
20
FC
20
5C
62
42
42
84
84
84
08
18
ENDCHAR

STARTCHAR 515
ENCODING 515
SWIDTH 376 0
DWIDTH 5 0
BBX 5 10 0 0
BITMAP
10
20
00
78
40
40
40
80
80
80
ENDCHAR

STARTCHAR 516
ENCODING 516
SWIDTH 562 0
DWIDTH 8 0
BBX 7 7 0 0
BITMAP
3C
42
80
F8
80
84
78
ENDCHAR

STARTCHAR 517
ENCODING 517
SWIDTH 492 0
DWIDTH 7 0
BBX 6 7 0 0
BITMAP
38
44
40
30
08
88
70
ENDCHAR

STARTCHAR 518
ENCODING 518
SWIDTH 231 0
DWIDTH 3 0
BBX 3 9 0 0
BITMAP
20
00
40
40
40
40
80
80
80
ENDCHAR

STARTCHAR 519
ENCODING 519
SWIDTH 231 0
DWIDTH 3 0
BBX 3 9 0 0
BITMAP
A0
00
40
40
40
40
80
80
80
ENDCHAR

STARTCHAR 520
ENCODING 520
SWIDTH 235 0
DWIDTH 3 0
BBX 5 12 -2 -3
BITMAP
08
00
10
10
10
20
20
20
20
40
40
80
ENDCHAR

STARTCHAR 521
ENCODING 521
SWIDTH 822 0
DWIDTH 12 0
BBX 11 7 0 0
BITMAP
1F00
2100
2200
23C0
4220
4420
87C0
ENDCHAR

STARTCHAR 522
ENCODING 522
SWIDTH 825 0
DWIDTH 12 0
BBX 11 7 0 0
BITMAP
2100
2100
4200
7FC0
4220
8420
87C0
ENDCHAR

STARTCHAR 523
ENCODING 523
SWIDTH 564 0
DWIDTH 8 0
BBX 7 10 0 0
BITMAP
20
FC
20
5C
62
42
42
84
84
84
ENDCHAR

STARTCHAR 524
ENCODING 524
SWIDTH 498 0
DWIDTH 7 0
BBX 6 10 0 0
BITMAP
08
10
00
44
48
50
60
90
88
88
ENDCHAR

STARTCHAR 525
ENCODING 525
SWIDTH 462 0
DWIDTH 6 0
BBX 7 13 -1 -3
BITMAP
12
1C
00
42
44
24
28
28
30
30
20
20
C0
ENDCHAR

STARTCHAR 526
ENCODING 526
SWIDTH 566 0
DWIDTH 8 0
BBX 7 9 0 -2
BITMAP
42
42
42
42
84
84
FC
20
20
ENDCHAR

STARTCHAR 527
ENCODING 527
SWIDTH 503 0
DWIDTH 7 0
BBX 8 12 0 0
BITMAP
01
01
3F
20
20
40
40
40
40
80
80
80
ENDCHAR

STARTCHAR 528
ENCODING 528
SWIDTH 376 0
DWIDTH 5 0
BBX 6 9 0 0
BITMAP
04
04
78
40
40
40
80
80
80
ENDCHAR

STARTCHAR 529
ENCODING 529
SWIDTH 748 0
DWIDTH 10 0
BBX 10 12 -1 0
BITMAP
0500
0000
2040
20C0
2140
4280
4480
4880
5080
A100
C100
8100
ENDCHAR

STARTCHAR 530
ENCODING 530
SWIDTH 562 0
DWIDTH 8 0
BBX 8 9 -1 0
BITMAP
0A
00
21
23
46
5A
62
C4
84
ENDCHAR

STARTCHAR 531
ENCODING 531
SWIDTH 462 0
DWIDTH 6 0
BBX 7 12 -1 -3
BITMAP
14
00
42
44
24
28
28
30
30
20
20
C0
ENDCHAR

STARTCHAR 532
ENCODING 532
SWIDTH 672 0
DWIDTH 9 0
BBX 8 12 0 0
BITMAP
04
00
3E
21
21
41
7E
41
41
81
82
FC
ENDCHAR

STARTCHAR 533
ENCODING 533
SWIDTH 590 0
DWIDTH 8 0
BBX 7 12 0 0
BITMAP
04
00
20
20
20
5C
62
42
82
84
CC
B0
ENDCHAR

STARTCHAR 534
ENCODING 534
SWIDTH 713 0
DWIDTH 10 0
BBX 9 12 0 0
BITMAP
0400
0000
3E00
2100
2080
4080
4080
4080
4100
8100
8600
F800
ENDCHAR

STARTCHAR 535
ENCODING 535
SWIDTH 590 0
DWIDTH 8 0
BBX 8 12 0 0
BITMAP
01
00
01
01
02
3A
46
42
84
84
8C
74
ENDCHAR

STARTCHAR 536
ENCODING 536
SWIDTH 713 0
DWIDTH 10 0
BBX 9 13 0 -3
BITMAP
3E00
2100
2080
4080
4080
4080
4100
8100
8600
F800
1000
0800
3000
ENDCHAR

STARTCHAR 537
ENCODING 537
SWIDTH 590 0
DWIDTH 8 0
BBX 8 13 0 -3
BITMAP
01
01
02
3A
46
42
84
84
8C
74
20
10
60
ENDCHAR

STARTCHAR 538
ENCODING 538
SWIDTH 539 0
DWIDTH 8 0
BBX 8 12 0 0
BITMAP
04
00
3F
20
20
40
7E
40
40
80
80
80
ENDCHAR

STARTCHAR 539
ENCODING 539
SWIDTH 266 0
DWIDTH 4 0
BBX 4 12 0 0
BITMAP
20
00
10
20
40
E0
40
40
40
80
80
80
ENDCHAR

STARTCHAR 540
ENCODING 540
SWIDTH 618 0
DWIDTH 9 0
BBX 8 13 0 0
BITMAP
04
08
00
21
22
24
48
58
68
44
84
82
82
ENDCHAR

STARTCHAR 541
ENCODING 541
SWIDTH 494 0
DWIDTH 7 0
BBX 6 13 0 0
BITMAP
10
20
00
20
20
20
44
48
50
60
90
88
88
ENDCHAR

STARTCHAR 542
ENCODING 542
SWIDTH 843 0
DWIDTH 12 0
BBX 12 12 0 0
BITMAP
0100
0000
2010
2030
3060
50A0
50A0
4920
4A20
8A40
8C40
8840
ENDCHAR

STARTCHAR 543
ENCODING 543
SWIDTH 829 0
DWIDTH 12 0
BBX 12 9 -1 0
BITMAP
0100
0000
5CE0
6310
4210
4210
8420
8420
8420
ENDCHAR

STARTCHAR 544
ENCODING 544
SWIDTH 615 0
DWIDTH 9 0
BBX 8 12 0 0
BITMAP
04
00
3E
21
21
41
42
7C
40
80
80
80
ENDCHAR

STARTCHAR 545
ENCODING 545
SWIDTH 590 0
DWIDTH 8 0
BBX 8 12 -1 -3
BITMAP
04
00
2E
31
21
41
42
66
58
80
80
80
ENDCHAR

STARTCHAR 546
ENCODING 546
SWIDTH 597 0
DWIDTH 8 0
BBX 8 12 0 0
BITMAP
04
00
1E
21
41
40
30
0C
02
82
84
78
ENDCHAR

STARTCHAR 547
ENCODING 547
SWIDTH 492 0
DWIDTH 7 0
BBX 6 9 0 0
BITMAP
08
00
38
44
40
30
08
88
70
ENDCHAR

STARTCHAR 548
ENCODING 548
SWIDTH 541 0
DWIDTH 8 0
BBX 7 12 1 0
BITMAP
10
00
FE
10
10
20
20
20
20
40
40
40
ENDCHAR

STARTCHAR 549
ENCODING 549
SWIDTH 265 0
DWIDTH 4 0
BBX 4 11 0 0
BITMAP
20
00
40
40
F0
40
40
80
80
80
40
ENDCHAR

STARTCHAR 550
ENCODING 550
SWIDTH 831 0
DWIDTH 12 0
BBX 11 13 0 0
BITMAP
0400
0200
0000
8420
8420
8C20
8C40
5440
5480
6280
6300
4300
4200
ENDCHAR

STARTCHAR 551
ENCODING 551
SWIDTH 735 0
DWIDTH 10 0
BBX 9 10 0 0
BITMAP
0800
0400
0000
8880
8880
9500
A500
6600
4400
4400
ENDCHAR

STARTCHAR 552
ENCODING 552
SWIDTH 831 0
DWIDTH 12 0
BBX 11 13 0 0
BITMAP
0200
0400
0000
8420
8420
8C20
8C40
5440
5480
6280
6300
4300
4200
ENDCHAR

STARTCHAR 553
ENCODING 553
SWIDTH 735 0
DWIDTH 10 0
BBX 9 10 0 0
BITMAP
0400
0800
0000
8880
8880
9500
A500
6600
4400
4400
ENDCHAR

STARTCHAR 554
ENCODING 554
SWIDTH 831 0
DWIDTH 12 0
BBX 11 12 0 0
BITMAP
0500
0000
8420
8420
8C20
8C40
5440
5480
6280
6300
4300
4200
ENDCHAR

STARTCHAR 555
ENCODING 555
SWIDTH 735 0
DWIDTH 10 0
BBX 9 9 0 0
BITMAP
0A00
0000
8880
8880
9500
A500
6600
4400
4400
ENDCHAR

STARTCHAR 556
ENCODING 556
SWIDTH 515 0
DWIDTH 7 0
BBX 8 13 0 0
BITMAP
10
08
00
81
82
44
44
48
30
30
20
20
20
ENDCHAR

STARTCHAR 557
ENCODING 557
SWIDTH 462 0
DWIDTH 6 0
BBX 7 13 -1 -3
BITMAP
10
08
00
42
44
24
28
28
30
30
20
20
C0
ENDCHAR

STARTCHAR 558
ENCODING 558
SWIDTH 606 0
DWIDTH 8 0
BBX 8 11 0 0
BITMAP
0C
04
08
00
1D
62
42
82
84
8C
76
ENDCHAR

STARTCHAR 559
ENCODING 559
SWIDTH 606 0
DWIDTH 8 0
BBX 8 11 0 0
BITMAP
0C
08
04
00
1D
62
42
82
84
8C
76
ENDCHAR

STARTCHAR 560
ENCODING 560
SWIDTH 606 0
DWIDTH 8 0
BBX 8 11 0 0
BITMAP
1A
0A
11
00
1D
62
42
82
84
8C
76
ENDCHAR

STARTCHAR 561
ENCODING 561
SWIDTH 606 0
DWIDTH 8 0
BBX 8 11 0 0
BITMAP
1A
12
09
00
1D
62
42
82
84
8C
76
ENDCHAR

STARTCHAR 562
ENCODING 562
SWIDTH 606 0
DWIDTH 8 0
BBX 8 11 0 0
BITMAP
1A
0A
14
00
1D
62
42
82
84
8C
76
ENDCHAR

STARTCHAR 563
ENCODING 563
SWIDTH 606 0
DWIDTH 8 0
BBX 8 11 0 0
BITMAP
1A
12
0C
00
1D
62
42
82
84
8C
76
ENDCHAR

STARTCHAR 564
ENCODING 564
SWIDTH 606 0
DWIDTH 8 0
BBX 8 14 0 0
BITMAP
0D
12
00
0C
04
08
00
1D
62
42
82
84
8C
76
ENDCHAR

STARTCHAR 565
ENCODING 565
SWIDTH 606 0
DWIDTH 8 0
BBX 8 14 0 0
BITMAP
0D
12
00
0C
08
04
00
1D
62
42
82
84
8C
76
ENDCHAR

STARTCHAR 566
ENCODING 566
SWIDTH 604 0
DWIDTH 8 0
BBX 8 11 -1 0
BITMAP
30
14
24
0A
12
12
22
7E
41
81
81
ENDCHAR

STARTCHAR 567
ENCODING 567
SWIDTH 604 0
DWIDTH 8 0
BBX 8 11 -1 0
BITMAP
30
24
14
0A
12
12
22
7E
41
81
81
ENDCHAR

STARTCHAR 568
ENCODING 568
SWIDTH 604 0
DWIDTH 8 0
BBX 9 11 -2 0
BITMAP
D000
5200
8A00
0500
0900
0900
1100
3F00
2080
4080
4080
ENDCHAR

STARTCHAR 569
ENCODING 569
SWIDTH 604 0
DWIDTH 8 0
BBX 9 11 -2 0
BITMAP
D000
9200
4A00
0500
0900
0900
1100
3F00
2080
4080
4080
ENDCHAR

STARTCHAR 570
ENCODING 570
SWIDTH 604 0
DWIDTH 8 0
BBX 8 11 -1 0
BITMAP
D0
54
A4
0A
12
12
22
7E
41
81
81
ENDCHAR

STARTCHAR 571
ENCODING 571
SWIDTH 604 0
DWIDTH 8 0
BBX 8 11 -1 0
BITMAP
D0
94
64
0A
12
12
22
7E
41
81
81
ENDCHAR

STARTCHAR 572
ENCODING 572
SWIDTH 604 0
DWIDTH 8 0
BBX 8 14 -1 0
BITMAP
34
48
00
30
14
24
0A
12
12
22
7E
41
81
81
ENDCHAR

STARTCHAR 573
ENCODING 573
SWIDTH 604 0
DWIDTH 8 0
BBX 8 14 -1 0
BITMAP
34
48
00
30
24
14
0A
12
12
22
7E
41
81
81
ENDCHAR

STARTCHAR 574
ENCODING 574
SWIDTH 481 0
DWIDTH 7 0
BBX 6 11 0 0
BITMAP
18
08
10
00
38
44
40
70
80
88
70
ENDCHAR

STARTCHAR 575
ENCODING 575
SWIDTH 481 0
DWIDTH 7 0
BBX 6 11 0 0
BITMAP
18
10
08
00
38
44
40
70
80
88
70
ENDCHAR

STARTCHAR 576
ENCODING 576
SWIDTH 481 0
DWIDTH 7 0
BBX 7 11 0 0
BITMAP
34
14
22
00
38
44
40
70
80
88
70
ENDCHAR

STARTCHAR 577
ENCODING 577
SWIDTH 481 0
DWIDTH 7 0
BBX 7 11 0 0
BITMAP
34
24
12
00
38
44
40
70
80
88
70
ENDCHAR

STARTCHAR 578
ENCODING 578
SWIDTH 481 0
DWIDTH 7 0
BBX 6 11 0 0
BITMAP
34
14
28
00
38
44
40
70
80
88
70
ENDCHAR

STARTCHAR 579
ENCODING 579
SWIDTH 481 0
DWIDTH 7 0
BBX 6 11 0 0
BITMAP
34
24
18
00
38
44
40
70
80
88
70
ENDCHAR

STARTCHAR 580
ENCODING 580
SWIDTH 752 0
DWIDTH 11 0
BBX 9 11 1 0
BITMAP
C000
5F80
9000
1000
2000
3F00
2000
2000
4000
4000
7E00
ENDCHAR

STARTCHAR 581
ENCODING 581
SWIDTH 752 0
DWIDTH 11 0
BBX 9 11 1 0
BITMAP
C000
9F80
5000
1000
2000
3F00
2000
2000
4000
4000
7E00
ENDCHAR

STARTCHAR 582
ENCODING 582
SWIDTH 924 0
DWIDTH 13 0
BBX 12 11 1 0
BITMAP
D000
53F0
8A00
0200
0400
07E0
0400
0400
0800
0800
0FC0
ENDCHAR

STARTCHAR 583
ENCODING 583
SWIDTH 938 0
DWIDTH 13 0
BBX 12 11 1 0
BITMAP
D000
93F0
4A00
0200
0400
07E0
0400
0400
0800
0800
0FC0
ENDCHAR

STARTCHAR 584
ENCODING 584
SWIDTH 894 0
DWIDTH 13 0
BBX 11 11 1 0
BITMAP
D000
57E0
A400
0400
0800
0FC0
0800
0800
1000
1000
1F80
ENDCHAR

STARTCHAR 585
ENCODING 585
SWIDTH 905 0
DWIDTH 13 0
BBX 11 11 1 0
BITMAP
D000
97E0
6400
0400
0800
0FC0
0800
0800
1000
1000
1F80
ENDCHAR

STARTCHAR 586
ENCODING 586
SWIDTH 557 0
DWIDTH 8 0
BBX 7 14 0 -3
BITMAP
0C
04
08
00
DC
62
42
42
84
84
84
08
08
10
ENDCHAR

STARTCHAR 587
ENCODING 587
SWIDTH 557 0
DWIDTH 8 0
BBX 7 14 0 -3
BITMAP
0C
08
04
00
DC
62
42
42
84
84
84
08
08
10
ENDCHAR

STARTCHAR 588
ENCODING 588
SWIDTH 557 0
DWIDTH 8 0
BBX 7 14 0 -3
BITMAP
34
14
22
00
DC
62
42
42
84
84
84
08
08
10
ENDCHAR

STARTCHAR 589
ENCODING 589
SWIDTH 557 0
DWIDTH 8 0
BBX 7 14 0 -3
BITMAP
34
24
12
00
DC
62
42
42
84
84
84
08
08
10
ENDCHAR

STARTCHAR 590
ENCODING 590
SWIDTH 557 0
DWIDTH 8 0
BBX 7 14 0 -3
BITMAP
34
14
28
00
DC
62
42
42
84
84
84
08
08
10
ENDCHAR

STARTCHAR 591
ENCODING 591
SWIDTH 557 0
DWIDTH 8 0
BBX 7 14 0 -3
BITMAP
34
24
18
00
DC
62
42
42
84
84
84
08
08
10
ENDCHAR

STARTCHAR 592
ENCODING 592
SWIDTH 557 0
DWIDTH 8 0
BBX 8 17 0 -3
BITMAP
0D
12
00
0C
04
08
00
DC
62
42
42
84
84
84
08
08
10
ENDCHAR

STARTCHAR 593
ENCODING 593
SWIDTH 557 0
DWIDTH 8 0
BBX 8 17 0 -3
BITMAP
0D
12
00
0C
08
04
00
DC
62
42
42
84
84
84
08
08
10
ENDCHAR

STARTCHAR 594
ENCODING 594
SWIDTH 864 0
DWIDTH 12 0
BBX 10 11 1 0
BITMAP
C000
5040
9040
1040
2080
3F80
2080
2080
4100
4100
4100
ENDCHAR

STARTCHAR 595
ENCODING 595
SWIDTH 864 0
DWIDTH 12 0
BBX 10 11 1 0
BITMAP
C000
9040
5040
1040
2080
3F80
2080
2080
4100
4100
4100
ENDCHAR

STARTCHAR 596
ENCODING 596
SWIDTH 1036 0
DWIDTH 15 0
BBX 13 11 1 0
BITMAP
D000
5208
8A08
0208
0410
07F0
0410
0410
0820
0820
0820
ENDCHAR

STARTCHAR 597
ENCODING 597
SWIDTH 1050 0
DWIDTH 15 0
BBX 13 11 1 0
BITMAP
D000
9208
4A08
0208
0410
07F0
0410
0410
0820
0820
0820
ENDCHAR

STARTCHAR 598
ENCODING 598
SWIDTH 1006 0
DWIDTH 14 0
BBX 12 11 1 0
BITMAP
D000
5410
A410
0410
0820
0FE0
0820
0820
1040
1040
1040
ENDCHAR

STARTCHAR 599
ENCODING 599
SWIDTH 1017 0
DWIDTH 14 0
BBX 12 11 1 0
BITMAP
D000
9410
6410
0410
0820
0FE0
0820
0820
1040
1040
1040
ENDCHAR

STARTCHAR 600
ENCODING 600
SWIDTH 1084 0
DWIDTH 15 0
BBX 12 14 1 0
BITMAP
6800
9000
0000
6000
2410
4410
0410
0820
0FE0
0820
0820
1040
1040
1040
ENDCHAR

STARTCHAR 601
ENCODING 601
SWIDTH 1084 0
DWIDTH 15 0
BBX 12 14 1 0
BITMAP
6800
9000
0000
6000
4410
2410
0410
0820
0FE0
0820
0820
1040
1040
1040
ENDCHAR

STARTCHAR 602
ENCODING 602
SWIDTH 248 0
DWIDTH 3 0
BBX 3 11 0 0
BITMAP
60
20
40
00
40
40
40
80
80
80
40
ENDCHAR

STARTCHAR 603
ENCODING 603
SWIDTH 248 0
DWIDTH 3 0
BBX 3 11 0 0
BITMAP
60
40
20
00
40
40
40
80
80
80
40
ENDCHAR

STARTCHAR 604
ENCODING 604
SWIDTH 248 0
DWIDTH 3 0
BBX 5 11 -1 0
BITMAP
D0
50
88
00
20
20
20
40
40
40
20
ENDCHAR

STARTCHAR 605
ENCODING 605
SWIDTH 248 0
DWIDTH 3 0
BBX 5 11 -1 0
BITMAP
D0
90
48
00
20
20
20
40
40
40
20
ENDCHAR

STARTCHAR 606
ENCODING 606
SWIDTH 248 0
DWIDTH 3 0
BBX 4 11 0 0
BITMAP
D0
50
A0
00
40
40
40
80
80
80
40
ENDCHAR

STARTCHAR 607
ENCODING 607
SWIDTH 248 0
DWIDTH 3 0
BBX 4 11 0 0
BITMAP
D0
90
60
00
40
40
40
80
80
80
40
ENDCHAR

STARTCHAR 608
ENCODING 608
SWIDTH 248 0
DWIDTH 3 0
BBX 5 14 0 0
BITMAP
68
90
00
60
20
40
00
40
40
40
80
80
80
40
ENDCHAR

STARTCHAR 609
ENCODING 609
SWIDTH 248 0
DWIDTH 3 0
BBX 5 14 0 0
BITMAP
68
90
00
60
40
20
00
40
40
40
80
80
80
40
ENDCHAR

STARTCHAR 610
ENCODING 610
SWIDTH 424 0
DWIDTH 6 0
BBX 4 11 1 0
BITMAP
C0
50
90
10
20
20
20
20
40
40
40
ENDCHAR

STARTCHAR 611
ENCODING 611
SWIDTH 424 0
DWIDTH 6 0
BBX 4 11 1 0
BITMAP
C0
90
50
10
20
20
20
20
40
40
40
ENDCHAR

STARTCHAR 612
ENCODING 612
SWIDTH 596 0
DWIDTH 8 0
BBX 7 11 1 0
BITMAP
D0
52
8A
02
04
04
04
04
08
08
08
ENDCHAR

STARTCHAR 613
ENCODING 613
SWIDTH 610 0
DWIDTH 9 0
BBX 7 11 1 0
BITMAP
D0
92
4A
02
04
04
04
04
08
08
08
ENDCHAR

STARTCHAR 614
ENCODING 614
SWIDTH 566 0
DWIDTH 8 0
BBX 6 11 1 0
BITMAP
D0
54
A4
04
08
08
08
08
10
10
10
ENDCHAR

STARTCHAR 615
ENCODING 615
SWIDTH 577 0
DWIDTH 8 0
BBX 6 11 1 0
BITMAP
D0
94
64
04
08
08
08
08
10
10
10
ENDCHAR

STARTCHAR 616
ENCODING 616
SWIDTH 644 0
DWIDTH 9 0
BBX 6 14 1 0
BITMAP
68
90
00
60
24
44
04
08
08
08
08
10
10
10
ENDCHAR

STARTCHAR 617
ENCODING 617
SWIDTH 644 0
DWIDTH 9 0
BBX 6 14 1 0
BITMAP
68
90
00
60
44
24
04
08
08
08
08
10
10
10
ENDCHAR

STARTCHAR 618
ENCODING 618
SWIDTH 574 0
DWIDTH 8 0
BBX 7 11 0 0
BITMAP
0C
04
08
00
1C
66
42
82
84
CC
70
ENDCHAR

STARTCHAR 619
ENCODING 619
SWIDTH 574 0
DWIDTH 8 0
BBX 7 11 0 0
BITMAP
0C
08
04
00
1C
66
42
82
84
CC
70
ENDCHAR

STARTCHAR 620
ENCODING 620
SWIDTH 574 0
DWIDTH 8 0
BBX 7 11 0 0
BITMAP
34
14
22
00
1C
66
42
82
84
CC
70
ENDCHAR

STARTCHAR 621
ENCODING 621
SWIDTH 574 0
DWIDTH 8 0
BBX 7 11 0 0
BITMAP
34
24
12
00
1C
66
42
82
84
CC
70
ENDCHAR

STARTCHAR 622
ENCODING 622
SWIDTH 574 0
DWIDTH 8 0
BBX 7 11 0 0
BITMAP
1A
0A
14
00
1C
66
42
82
84
CC
70
ENDCHAR

STARTCHAR 623
ENCODING 623
SWIDTH 574 0
DWIDTH 8 0
BBX 7 11 0 0
BITMAP
1A
12
0C
00
1C
66
42
82
84
CC
70
ENDCHAR

STARTCHAR 624
ENCODING 624
SWIDTH 931 0
DWIDTH 13 0
BBX 12 11 0 0
BITMAP
C000
4380
8C60
1020
1010
2010
2010
2020
1020
18C0
0700
ENDCHAR

STARTCHAR 625
ENCODING 625
SWIDTH 931 0
DWIDTH 13 0
BBX 12 11 0 0
BITMAP
C000
8380
4C60
1020
1010
2010
2010
2020
1020
18C0
0700
ENDCHAR

STARTCHAR 626
ENCODING 626
SWIDTH 1103 0
DWIDTH 15 0
BBX 15 11 -1 0
BITMAP
D000
5070
898C
0204
0202
0402
0402
0404
0204
0318
00E0
ENDCHAR

STARTCHAR 627
ENCODING 627
SWIDTH 1117 0
DWIDTH 16 0
BBX 15 11 -1 0
BITMAP
D000
9070
498C
0204
0202
0402
0402
0404
0204
0318
00E0
ENDCHAR

STARTCHAR 628
ENCODING 628
SWIDTH 1082 0
DWIDTH 15 0
BBX 14 11 0 0
BITMAP
D000
50E0
A318
0408
0404
0804
0804
0808
0408
0630
01C0
ENDCHAR

STARTCHAR 629
ENCODING 629
SWIDTH 1096 0
DWIDTH 15 0
BBX 14 11 0 0
BITMAP
D000
90E0
6318
0408
0404
0804
0804
0808
0408
0630
01C0
ENDCHAR

STARTCHAR 630
ENCODING 630
SWIDTH 544 0
DWIDTH 8 0
BBX 7 11 0 0
BITMAP
0C
04
08
00
42
42
42
84
84
84
78
ENDCHAR

STARTCHAR 631
ENCODING 631
SWIDTH 544 0
DWIDTH 8 0
BBX 7 11 0 0
BITMAP
0C
08
04
00
42
42
42
84
84
84
78
ENDCHAR

STARTCHAR 632
ENCODING 632
SWIDTH 544 0
DWIDTH 8 0
BBX 7 11 0 0
BITMAP
34
14
22
00
42
42
42
84
84
84
78
ENDCHAR

STARTCHAR 633
ENCODING 633
SWIDTH 544 0
DWIDTH 8 0
BBX 7 11 0 0
BITMAP
34
24
12
00
42
42
42
84
84
84
78
ENDCHAR

STARTCHAR 634
ENCODING 634
SWIDTH 544 0
DWIDTH 8 0
BBX 7 11 0 0
BITMAP
1A
0A
14
00
42
42
42
84
84
84
78
ENDCHAR

STARTCHAR 635
ENCODING 635
SWIDTH 544 0
DWIDTH 8 0
BBX 7 11 0 0
BITMAP
1A
12
0C
00
42
42
42
84
84
84
78
ENDCHAR

STARTCHAR 636
ENCODING 636
SWIDTH 544 0
DWIDTH 8 0
BBX 8 14 0 0
BITMAP
0D
12
00
0C
04
08
00
42
42
42
84
84
84
78
ENDCHAR

STARTCHAR 637
ENCODING 637
SWIDTH 544 0
DWIDTH 8 0
BBX 8 14 0 0
BITMAP
0D
12
00
0C
08
04
00
42
42
42
84
84
84
78
ENDCHAR

STARTCHAR 638
ENCODING 638
SWIDTH 783 0
DWIDTH 11 0
BBX 11 11 0 0
BITMAP
C000
5020
9040
0880
0880
0900
0600
0600
0400
0400
0400
ENDCHAR

STARTCHAR 639
ENCODING 639
SWIDTH 865 0
DWIDTH 12 0
BBX 14 11 -1 0
BITMAP
D000
9204
4A08
0110
0110
0120
00C0
00C0
0080
0080
0080
ENDCHAR

STARTCHAR 640
ENCODING 640
SWIDTH 936 0
DWIDTH 13 0
BBX 13 11 0 0
BITMAP
D000
9408
6410
0220
0220
0240
0180
0180
0100
0100
0100
ENDCHAR

STARTCHAR 641
ENCODING 641
SWIDTH 821 0
DWIDTH 11 0
BBX 12 14 -1 0
BITMAP
6800
9000
0000
6000
4810
2820
0440
0440
0480
0300
0300
0200
0200
0200
ENDCHAR

STARTCHAR 642
ENCODING 642
SWIDTH 725 0
DWIDTH 10 0
BBX 9 11 0 0
BITMAP
0C00
0400
0800
0000
2100
4080
8880
8880
8880
9900
6600
ENDCHAR

STARTCHAR 643
ENCODING 643
SWIDTH 725 0
DWIDTH 10 0
BBX 9 11 0 0
BITMAP
0C00
0800
0400
0000
2100
4080
8880
8880
8880
9900
6600
ENDCHAR

STARTCHAR 644
ENCODING 644
SWIDTH 725 0
DWIDTH 10 0
BBX 9 11 0 0
BITMAP
1A00
0A00
1100
0000
2100
4080
8880
8880
8880
9900
6600
ENDCHAR

STARTCHAR 645
ENCODING 645
SWIDTH 725 0
DWIDTH 10 0
BBX 9 11 0 0
BITMAP
1A00
1200
0900
0000
2100
4080
8880
8880
8880
9900
6600
ENDCHAR

STARTCHAR 646
ENCODING 646
SWIDTH 725 0
DWIDTH 10 0
BBX 9 11 0 0
BITMAP
1A00
0A00
1400
0000
2100
4080
8880
8880
8880
9900
6600
ENDCHAR

STARTCHAR 647
ENCODING 647
SWIDTH 725 0
DWIDTH 10 0
BBX 9 11 0 0
BITMAP
1A00
1200
0C00
0000
2100
4080
8880
8880
8880
9900
6600
ENDCHAR

STARTCHAR 648
ENCODING 648
SWIDTH 725 0
DWIDTH 10 0
BBX 9 14 0 0
BITMAP
0D00
1200
0000
0C00
0400
0800
0000
2100
4080
8880
8880
8880
9900
6600
ENDCHAR

STARTCHAR 649
ENCODING 649
SWIDTH 725 0
DWIDTH 10 0
BBX 9 14 0 0
BITMAP
0D00
1200
0000
0C00
0800
0400
0000
2100
4080
8880
8880
8880
9900
6600
ENDCHAR

STARTCHAR 650
ENCODING 650
SWIDTH 944 0
DWIDTH 13 0
BBX 10 11 1 0
BITMAP
C000
4F00
9080
2040
2040
4040
4040
4080
4080
2100
F3C0
ENDCHAR

STARTCHAR 651
ENCODING 651
SWIDTH 944 0
DWIDTH 13 0
BBX 11 11 0 0
BITMAP
C000
8780
4840
1020
1020
2020
2020
2040
2040
1080
79E0
ENDCHAR

STARTCHAR 652
ENCODING 652
SWIDTH 1116 0
DWIDTH 16 0
BBX 14 11 0 0
BITMAP
D000
50F0
8908
0204
0204
0404
0404
0408
0408
0210
0F3C
ENDCHAR

STARTCHAR 653
ENCODING 653
SWIDTH 1130 0
DWIDTH 16 0
BBX 14 11 0 0
BITMAP
D000
90F0
4908
0204
0204
0404
0404
0408
0408
0210
0F3C
ENDCHAR

STARTCHAR 654
ENCODING 654
SWIDTH 1086 0
DWIDTH 15 0
BBX 13 11 1 0
BITMAP
D000
51E0
A210
0408
0408
0808
0808
0810
0810
0420
1E78
ENDCHAR

STARTCHAR 655
ENCODING 655
SWIDTH 1097 0
DWIDTH 15 0
BBX 13 11 1 0
BITMAP
D000
91E0
6210
0408
0408
0808
0808
0810
0810
0420
1E78
ENDCHAR

STARTCHAR 656
ENCODING 656
SWIDTH 1164 0
DWIDTH 16 0
BBX 12 14 1 0
BITMAP
6800
9000
0000
6000
23C0
4420
0810
0810
1010
1010
1020
1020
0840
3CF0
ENDCHAR

STARTCHAR 657
ENCODING 657
SWIDTH 1164 0
DWIDTH 16 0
BBX 12 14 1 0
BITMAP
6800
9000
0000
6000
43C0
2420
0810
0810
1010
1010
1020
1020
0840
3CF0
ENDCHAR

STARTCHAR 658
ENCODING 658
SWIDTH 606 0
DWIDTH 8 0
BBX 8 10 0 0
BITMAP
08
04
00
1D
62
42
82
84
8C
76
ENDCHAR

STARTCHAR 659
ENCODING 659
SWIDTH 606 0
DWIDTH 8 0
BBX 8 10 0 0
BITMAP
04
08
00
1D
62
42
82
84
8C
76
ENDCHAR

STARTCHAR 660
ENCODING 660
SWIDTH 481 0
DWIDTH 7 0
BBX 6 10 0 0
BITMAP
10
08
00
38
44
40
70
80
88
70
ENDCHAR

STARTCHAR 661
ENCODING 661
SWIDTH 481 0
DWIDTH 7 0
BBX 6 10 0 0
BITMAP
08
10
00
38
44
40
70
80
88
70
ENDCHAR

STARTCHAR 662
ENCODING 662
SWIDTH 557 0
DWIDTH 8 0
BBX 7 13 0 -3
BITMAP
08
04
00
DC
62
42
42
84
84
84
08
08
10
ENDCHAR

STARTCHAR 663
ENCODING 663
SWIDTH 557 0
DWIDTH 8 0
BBX 7 13 0 -3
BITMAP
04
08
00
DC
62
42
42
84
84
84
08
08
10
ENDCHAR

STARTCHAR 664
ENCODING 664
SWIDTH 248 0
DWIDTH 3 0
BBX 3 10 0 0
BITMAP
40
20
00
40
40
40
80
80
80
40
ENDCHAR

STARTCHAR 665
ENCODING 665
SWIDTH 248 0
DWIDTH 3 0
BBX 3 10 0 0
BITMAP
20
40
00
40
40
40
80
80
80
40
ENDCHAR

STARTCHAR 666
ENCODING 666
SWIDTH 574 0
DWIDTH 8 0
BBX 7 10 0 0
BITMAP
08
04
00
1C
66
42
82
84
CC
70
ENDCHAR

STARTCHAR 667
ENCODING 667
SWIDTH 574 0
DWIDTH 8 0
BBX 7 10 0 0
BITMAP
04
08
00
1C
66
42
82
84
CC
70
ENDCHAR

STARTCHAR 668
ENCODING 668
SWIDTH 544 0
DWIDTH 8 0
BBX 7 10 0 0
BITMAP
10
08
00
42
42
42
84
84
84
78
ENDCHAR

STARTCHAR 669
ENCODING 669
SWIDTH 544 0
DWIDTH 8 0
BBX 7 10 0 0
BITMAP
04
08
00
42
42
42
84
84
84
78
ENDCHAR

STARTCHAR 670
ENCODING 670
SWIDTH 725 0
DWIDTH 10 0
BBX 9 10 0 0
BITMAP
0800
0400
0000
2100
4080
8880
8880
8880
9900
6600
ENDCHAR

STARTCHAR 671
ENCODING 671
SWIDTH 725 0
DWIDTH 10 0
BBX 9 10 0 0
BITMAP
0400
0800
0000
2100
4080
8880
8880
8880
9900
6600
ENDCHAR

STARTCHAR 672
ENCODING 672
SWIDTH 606 0
DWIDTH 8 0
BBX 8 14 0 -3
BITMAP
0C
04
08
00
1D
62
42
82
84
8C
76
00
10
10
ENDCHAR

STARTCHAR 673
ENCODING 673
SWIDTH 606 0
DWIDTH 8 0
BBX 8 14 0 -3
BITMAP
0C
08
04
00
1D
62
42
82
84
8C
76
00
10
10
ENDCHAR

STARTCHAR 674
ENCODING 674
SWIDTH 606 0
DWIDTH 8 0
BBX 8 14 0 -3
BITMAP
1A
0A
11
00
1D
62
42
82
84
8C
76
00
10
10
ENDCHAR

STARTCHAR 675
ENCODING 675
SWIDTH 606 0
DWIDTH 8 0
BBX 8 14 0 -3
BITMAP
1A
12
09
00
1D
62
42
82
84
8C
76
00
10
10
ENDCHAR

STARTCHAR 676
ENCODING 676
SWIDTH 606 0
DWIDTH 8 0
BBX 8 14 0 -3
BITMAP
1A
0A
14
00
1D
62
42
82
84
8C
76
00
10
10
ENDCHAR

STARTCHAR 677
ENCODING 677
SWIDTH 606 0
DWIDTH 8 0
BBX 8 14 0 -3
BITMAP
1A
12
0C
00
1D
62
42
82
84
8C
76
00
10
10
ENDCHAR

STARTCHAR 678
ENCODING 678
SWIDTH 606 0
DWIDTH 8 0
BBX 8 17 0 -3
BITMAP
0D
12
00
0C
04
08
00
1D
62
42
82
84
8C
76
00
10
10
ENDCHAR

STARTCHAR 679
ENCODING 679
SWIDTH 606 0
DWIDTH 8 0
BBX 8 17 0 -3
BITMAP
0D
12
00
0C
08
04
00
1D
62
42
82
84
8C
76
00
10
10
ENDCHAR

STARTCHAR 680
ENCODING 680
SWIDTH 604 0
DWIDTH 8 0
BBX 8 13 -1 -2
BITMAP
30
14
24
0A
12
12
22
7E
41
81
81
10
10
ENDCHAR

STARTCHAR 681
ENCODING 681
SWIDTH 604 0
DWIDTH 8 0
BBX 8 13 -1 -2
BITMAP
30
24
14
0A
12
12
22
7E
41
81
81
10
10
ENDCHAR

STARTCHAR 682
ENCODING 682
SWIDTH 604 0
DWIDTH 8 0
BBX 9 13 -2 -2
BITMAP
D000
5200
8A00
0500
0900
0900
1100
3F00
2080
4080
4080
0800
0800
ENDCHAR

STARTCHAR 683
ENCODING 683
SWIDTH 604 0
DWIDTH 8 0
BBX 9 13 -2 -2
BITMAP
D000
9200
4A00
0500
0900
0900
1100
3F00
2080
4080
4080
0800
0800
ENDCHAR

STARTCHAR 684
ENCODING 684
SWIDTH 604 0
DWIDTH 8 0
BBX 8 13 -1 -2
BITMAP
D0
54
A4
0A
12
12
22
7E
41
81
81
10
10
ENDCHAR

STARTCHAR 685
ENCODING 685
SWIDTH 604 0
DWIDTH 8 0
BBX 8 13 -1 -2
BITMAP
D0
94
64
0A
12
12
22
7E
41
81
81
10
10
ENDCHAR

STARTCHAR 686
ENCODING 686
SWIDTH 604 0
DWIDTH 8 0
BBX 8 16 -1 -2
BITMAP
34
48
00
30
14
24
0A
12
12
22
7E
41
81
81
10
10
ENDCHAR

STARTCHAR 687
ENCODING 687
SWIDTH 604 0
DWIDTH 8 0
BBX 8 16 -1 -2
BITMAP
34
48
00
30
24
14
0A
12
12
22
7E
41
81
81
10
10
ENDCHAR

STARTCHAR 688
ENCODING 688
SWIDTH 557 0
DWIDTH 8 0
BBX 8 14 -1 -3
BITMAP
06
02
04
00
6E
31
21
21
42
42
42
04
84
88
ENDCHAR

STARTCHAR 689
ENCODING 689
SWIDTH 557 0
DWIDTH 8 0
BBX 8 14 -1 -3
BITMAP
06
04
02
00
6E
31
21
21
42
42
42
04
84
88
ENDCHAR

STARTCHAR 690
ENCODING 690
SWIDTH 557 0
DWIDTH 8 0
BBX 8 14 -1 -3
BITMAP
1A
0A
11
00
6E
31
21
21
42
42
42
04
84
88
ENDCHAR

STARTCHAR 691
ENCODING 691
SWIDTH 557 0
DWIDTH 8 0
BBX 8 14 -1 -3
BITMAP
1A
12
09
00
6E
31
21
21
42
42
42
04
84
88
ENDCHAR

STARTCHAR 692
ENCODING 692
SWIDTH 557 0
DWIDTH 8 0
BBX 8 14 -1 -3
BITMAP
1A
0A
14
00
6E
31
21
21
42
42
42
04
84
88
ENDCHAR

STARTCHAR 693
ENCODING 693
SWIDTH 557 0
DWIDTH 8 0
BBX 8 14 -1 -3
BITMAP
1A
12
0C
00
6E
31
21
21
42
42
42
04
84
88
ENDCHAR

STARTCHAR 694
ENCODING 694
SWIDTH 557 0
DWIDTH 8 0
BBX 8 17 -1 -3
BITMAP
05
0A
00
06
02
04
00
6E
31
21
21
42
42
42
04
84
88
ENDCHAR

STARTCHAR 695
ENCODING 695
SWIDTH 557 0
DWIDTH 8 0
BBX 8 17 -1 -3
BITMAP
05
0A
00
06
04
02
00
6E
31
21
21
42
42
42
04
84
88
ENDCHAR

STARTCHAR 696
ENCODING 696
SWIDTH 864 0
DWIDTH 12 0
BBX 11 14 1 -3
BITMAP
C000
4820
8820
0820
1040
1FC0
1040
1040
2080
2080
2080
0000
0400
0400
ENDCHAR

STARTCHAR 697
ENCODING 697
SWIDTH 864 0
DWIDTH 12 0
BBX 11 14 1 -3
BITMAP
C000
8820
4820
0820
1040
1FC0
1040
1040
2080
2080
2080
0000
0400
0400
ENDCHAR

STARTCHAR 698
ENCODING 698
SWIDTH 1036 0
DWIDTH 15 0
BBX 13 14 1 -3
BITMAP
D000
5208
8A08
0208
0410
07F0
0410
0410
0820
0820
0820
0000
0100
0100
ENDCHAR

STARTCHAR 699
ENCODING 699
SWIDTH 1050 0
DWIDTH 15 0
BBX 13 14 1 -3
BITMAP
D000
9208
4A08
0208
0410
07F0
0410
0410
0820
0820
0820
0000
0100
0100
ENDCHAR

STARTCHAR 700
ENCODING 700
SWIDTH 1006 0
DWIDTH 14 0
BBX 13 14 1 -3
BITMAP
D000
5208
A208
0208
0410
07F0
0410
0410
0820
0820
0820
0000
0100
0100
ENDCHAR

STARTCHAR 701
ENCODING 701
SWIDTH 1017 0
DWIDTH 14 0
BBX 13 14 1 -3
BITMAP
D000
9208
6208
0208
0410
07F0
0410
0410
0820
0820
0820
0000
0100
0100
ENDCHAR

STARTCHAR 702
ENCODING 702
SWIDTH 1084 0
DWIDTH 15 0
BBX 12 17 1 -3
BITMAP
6800
9000
0000
6000
2410
4410
0410
0820
0FE0
0820
0820
1040
1040
1040
0000
0200
0200
ENDCHAR

STARTCHAR 703
ENCODING 703
SWIDTH 1084 0
DWIDTH 15 0
BBX 12 17 1 -3
BITMAP
6800
9000
0000
6000
4410
2410
0410
0820
0FE0
0820
0820
1040
1040
1040
0000
0200
0200
ENDCHAR

STARTCHAR 704
ENCODING 704
SWIDTH 725 0
DWIDTH 10 0
BBX 9 14 0 -3
BITMAP
0C00
0400
0800
0000
2100
4080
8880
8880
8880
9900
6600
0000
0800
0800
ENDCHAR

STARTCHAR 705
ENCODING 705
SWIDTH 725 0
DWIDTH 10 0
BBX 9 14 0 -3
BITMAP
0C00
0800
0400
0000
2100
4080
8880
8880
8880
9900
6600
0000
0800
0800
ENDCHAR

STARTCHAR 706
ENCODING 706
SWIDTH 725 0
DWIDTH 10 0
BBX 9 14 0 -3
BITMAP
1A00
0A00
1100
0000
2100
4080
8880
8880
8880
9900
6600
0000
0800
0800
ENDCHAR

STARTCHAR 707
ENCODING 707
SWIDTH 725 0
DWIDTH 10 0
BBX 9 14 0 -3
BITMAP
1A00
1200
0900
0000
2100
4080
8880
8880
8880
9900
6600
0000
0800
0800
ENDCHAR

STARTCHAR 708
ENCODING 708
SWIDTH 725 0
DWIDTH 10 0
BBX 9 14 0 -3
BITMAP
1A00
0A00
1400
0000
2100
4080
8880
8880
8880
9900
6600
0000
0800
0800
ENDCHAR

STARTCHAR 709
ENCODING 709
SWIDTH 725 0
DWIDTH 10 0
BBX 9 14 0 -3
BITMAP
1A00
1200
0C00
0000
2100
4080
8880
8880
8880
9900
6600
0000
0800
0800
ENDCHAR

STARTCHAR 710
ENCODING 710
SWIDTH 725 0
DWIDTH 10 0
BBX 9 17 0 -3
BITMAP
0D00
1200
0000
0C00
0400
0800
0000
2100
4080
8880
8880
8880
9900
6600
0000
0800
0800
ENDCHAR

STARTCHAR 711
ENCODING 711
SWIDTH 725 0
DWIDTH 10 0
BBX 9 17 0 -3
BITMAP
0D00
1200
0000
0C00
0800
0400
0000
2100
4080
8880
8880
8880
9900
6600
0000
0800
0800
ENDCHAR

STARTCHAR 712
ENCODING 712
SWIDTH 944 0
DWIDTH 13 0
BBX 11 14 1 -3
BITMAP
C000
4780
8840
1020
1020
2020
2020
2040
2040
1080
79E0
0000
0400
0400
ENDCHAR

STARTCHAR 713
ENCODING 713
SWIDTH 944 0
DWIDTH 13 0
BBX 11 14 1 -3
BITMAP
C000
8780
4840
1020
1020
2020
2020
2040
2040
1080
79E0
0000
0400
0400
ENDCHAR

STARTCHAR 714
ENCODING 714
SWIDTH 1116 0
DWIDTH 16 0
BBX 14 14 0 -3
BITMAP
D000
50F0
8908
0204
0204
0404
0404
0408
0408
0210
0F3C
0000
0080
0080
ENDCHAR

STARTCHAR 715
ENCODING 715
SWIDTH 1130 0
DWIDTH 16 0
BBX 13 14 1 -3
BITMAP
D000
91E0
4A10
0408
0408
0808
0808
0810
0810
0420
1E78
0000
0100
0100
ENDCHAR

STARTCHAR 716
ENCODING 716
SWIDTH 1086 0
DWIDTH 15 0
BBX 13 14 1 -3
BITMAP
D000
51E0
A210
0408
0408
0808
0808
0810
0810
0420
1E78
0000
0100
0100
ENDCHAR

STARTCHAR 717
ENCODING 717
SWIDTH 1097 0
DWIDTH 15 0
BBX 13 14 1 -3
BITMAP
D000
91E0
6210
0408
0408
0808
0808
0810
0810
0420
1E78
0000
0100
0100
ENDCHAR

STARTCHAR 718
ENCODING 718
SWIDTH 1164 0
DWIDTH 16 0
BBX 12 17 2 -3
BITMAP
6800
9000
0000
6000
23C0
4420
0810
0810
1010
1010
1020
1020
0840
3CF0
0000
0200
0200
ENDCHAR

STARTCHAR 719
ENCODING 719
SWIDTH 1164 0
DWIDTH 16 0
BBX 12 17 2 -3
BITMAP
6800
9000
0000
6000
43C0
2420
0810
0810
1010
1010
1020
1020
0840
3CF0
0000
0200
0200
ENDCHAR

STARTCHAR 720
ENCODING 720
SWIDTH 606 0
DWIDTH 8 0
BBX 8 10 0 0
BITMAP
09
0E
00
1D
62
42
82
84
8C
76
ENDCHAR

STARTCHAR 721
ENCODING 721
SWIDTH 606 0
DWIDTH 8 0
BBX 8 9 0 0
BITMAP
0E
00
1D
62
42
82
84
8C
76
ENDCHAR

STARTCHAR 722
ENCODING 722
SWIDTH 606 0
DWIDTH 8 0
BBX 8 13 0 -3
BITMAP
08
04
00
1D
62
42
82
84
8C
76
00
20
20
ENDCHAR

STARTCHAR 723
ENCODING 723
SWIDTH 606 0
DWIDTH 8 0
BBX 8 10 0 -3
BITMAP
1D
62
42
82
84
8C
76
00
20
20
ENDCHAR

STARTCHAR 724
ENCODING 724
SWIDTH 606 0
DWIDTH 8 0
BBX 8 13 0 -3
BITMAP
04
08
00
1D
62
42
82
84
8C
76
00
20
20
ENDCHAR

STARTCHAR 725
ENCODING 725
SWIDTH 606 0
DWIDTH 8 0
BBX 8 10 0 0
BITMAP
0D
12
00
1D
62
42
82
84
8C
76
ENDCHAR

STARTCHAR 726
ENCODING 726
SWIDTH 606 0
DWIDTH 8 0
BBX 8 13 0 -3
BITMAP
0D
12
00
1D
62
42
82
84
8C
76
00
20
20
ENDCHAR

STARTCHAR 727
ENCODING 727
SWIDTH 604 0
DWIDTH 8 0
BBX 8 14 -1 0
BITMAP
09
0E
00
00
04
04
0A
12
12
22
7E
41
81
81
ENDCHAR

STARTCHAR 728
ENCODING 728
SWIDTH 604 0
DWIDTH 8 0
BBX 8 13 -1 0
BITMAP
0E
00
00
04
04
0A
12
12
22
7E
41
81
81
ENDCHAR

STARTCHAR 729
ENCODING 729
SWIDTH 604 0
DWIDTH 8 0
BBX 8 10 -1 0
BITMAP
44
24
0A
12
12
22
7E
41
81
81
ENDCHAR

STARTCHAR 730
ENCODING 730
SWIDTH 604 0
DWIDTH 8 0
BBX 8 10 -1 0
BITMAP
24
44
0A
12
12
22
7E
41
81
81
ENDCHAR

STARTCHAR 731
ENCODING 731
SWIDTH 604 0
DWIDTH 8 0
BBX 8 12 -1 -2
BITMAP
04
04
0A
12
12
22
7E
41
81
81
10
10
ENDCHAR

STARTCHAR 732
ENCODING 732
SWIDTH 164 0
DWIDTH 2 0
BBX 2 3 0 8
BITMAP
C0
40
80
ENDCHAR

STARTCHAR 733
ENCODING 733
SWIDTH 116 0
DWIDTH 2 0
BBX 1 2 -1 -3
BITMAP
80
80
ENDCHAR

STARTCHAR 734
ENCODING 734
SWIDTH 164 0
DWIDTH 2 0
BBX 2 3 0 8
BITMAP
C0
40
80
ENDCHAR

STARTCHAR 735
ENCODING 735
SWIDTH 308 0
DWIDTH 4 0
BBX 5 2 0 9
BITMAP
68
90
ENDCHAR

STARTCHAR 736
ENCODING 736
SWIDTH 306 0
DWIDTH 4 0
BBX 5 4 1 9
BITMAP
68
90
00
50
ENDCHAR

STARTCHAR 737
ENCODING 737
SWIDTH 557 0
DWIDTH 8 0
BBX 8 13 -1 -3
BITMAP
04
02
00
6E
31
21
21
42
42
42
04
84
88
ENDCHAR

STARTCHAR 738
ENCODING 738
SWIDTH 557 0
DWIDTH 8 0
BBX 8 10 -1 -3
BITMAP
6E
31
21
21
42
42
42
04
84
88
ENDCHAR

STARTCHAR 739
ENCODING 739
SWIDTH 557 0
DWIDTH 8 0
BBX 8 13 -1 -3
BITMAP
02
04
00
6E
31
21
21
42
42
42
04
84
88
ENDCHAR

STARTCHAR 740
ENCODING 740
SWIDTH 557 0
DWIDTH 8 0
BBX 7 13 0 -3
BITMAP
1A
24
00
DC
62
42
42
84
84
84
08
08
10
ENDCHAR

STARTCHAR 741
ENCODING 741
SWIDTH 557 0
DWIDTH 8 0
BBX 8 13 -1 -3
BITMAP
0D
12
00
6E
31
21
21
42
42
42
04
84
88
ENDCHAR

STARTCHAR 742
ENCODING 742
SWIDTH 799 0
DWIDTH 11 0
BBX 9 10 1 0
BITMAP
9F80
5000
1000
2000
3F00
2000
2000
4000
4000
7E00
ENDCHAR

STARTCHAR 743
ENCODING 743
SWIDTH 790 0
DWIDTH 11 0
BBX 9 10 1 0
BITMAP
5F80
9000
1000
2000
3F00
2000
2000
4000
4000
7E00
ENDCHAR

STARTCHAR 744
ENCODING 744
SWIDTH 911 0
DWIDTH 13 0
BBX 11 10 1 0
BITMAP
8820
4820
0820
1040
1FC0
1040
1040
2080
2080
2080
ENDCHAR

STARTCHAR 745
ENCODING 745
SWIDTH 902 0
DWIDTH 13 0
BBX 11 10 1 0
BITMAP
4820
8820
0820
1040
1FC0
1040
1040
2080
2080
2080
ENDCHAR

STARTCHAR 746
ENCODING 746
SWIDTH 700 0
DWIDTH 10 0
BBX 9 12 0 -2
BITMAP
2080
2080
2080
4100
7F00
4100
4100
8200
8200
8200
1000
1000
ENDCHAR

STARTCHAR 747
ENCODING 747
SWIDTH 336 0
DWIDTH 5 0
BBX 5 3 0 8
BITMAP
D0
50
88
ENDCHAR

STARTCHAR 748
ENCODING 748
SWIDTH 306 0
DWIDTH 4 0
BBX 4 3 0 8
BITMAP
D0
50
A0
ENDCHAR

STARTCHAR 749
ENCODING 749
SWIDTH 306 0
DWIDTH 4 0
BBX 5 6 1 8
BITMAP
68
90
00
60
20
40
ENDCHAR

STARTCHAR 750
ENCODING 750
SWIDTH 248 0
DWIDTH 3 0
BBX 4 10 0 0
BITMAP
90
E0
00
40
40
40
80
80
80
40
ENDCHAR

STARTCHAR 751
ENCODING 751
SWIDTH 248 0
DWIDTH 3 0
BBX 3 9 0 0
BITMAP
E0
00
40
40
40
80
80
80
40
ENDCHAR

STARTCHAR 752
ENCODING 752
SWIDTH 248 0
DWIDTH 3 0
BBX 5 10 -1 0
BITMAP
40
A8
00
20
20
20
40
40
40
20
ENDCHAR

STARTCHAR 753
ENCODING 753
SWIDTH 248 0
DWIDTH 3 0
BBX 5 10 -1 0
BITMAP
10
A8
00
20
20
20
40
40
40
20
ENDCHAR

STARTCHAR 754
ENCODING 754
SWIDTH 248 0
DWIDTH 3 0
BBX 5 10 0 0
BITMAP
68
90
00
40
40
40
80
80
80
40
ENDCHAR

STARTCHAR 755
ENCODING 755
SWIDTH 248 0
DWIDTH 3 0
BBX 5 12 0 0
BITMAP
68
90
00
50
00
40
40
40
80
80
80
40
ENDCHAR

STARTCHAR 756
ENCODING 756
SWIDTH 260 0
DWIDTH 4 0
BBX 5 13 0 0
BITMAP
48
70
00
20
20
20
40
40
40
40
80
80
80
ENDCHAR

STARTCHAR 757
ENCODING 757
SWIDTH 260 0
DWIDTH 4 0
BBX 4 12 0 0
BITMAP
70
00
20
20
20
40
40
40
40
80
80
80
ENDCHAR

STARTCHAR 758
ENCODING 758
SWIDTH 471 0
DWIDTH 7 0
BBX 5 10 1 0
BITMAP
88
48
08
10
10
10
10
20
20
20
ENDCHAR

STARTCHAR 759
ENCODING 759
SWIDTH 462 0
DWIDTH 6 0
BBX 4 10 1 0
BITMAP
50
90
10
20
20
20
20
40
40
40
ENDCHAR

STARTCHAR 760
ENCODING 760
SWIDTH 350 0
DWIDTH 5 0
BBX 5 3 0 8
BITMAP
D0
90
48
ENDCHAR

STARTCHAR 761
ENCODING 761
SWIDTH 317 0
DWIDTH 4 0
BBX 4 3 0 8
BITMAP
D0
90
60
ENDCHAR

STARTCHAR 762
ENCODING 762
SWIDTH 306 0
DWIDTH 4 0
BBX 5 6 1 7
BITMAP
68
90
00
60
40
20
ENDCHAR

STARTCHAR 763
ENCODING 763
SWIDTH 544 0
DWIDTH 8 0
BBX 7 10 0 0
BITMAP
12
1C
00
42
42
42
84
84
84
78
ENDCHAR

STARTCHAR 764
ENCODING 764
SWIDTH 544 0
DWIDTH 8 0
BBX 7 9 0 0
BITMAP
1C
00
42
42
42
84
84
84
78
ENDCHAR

STARTCHAR 765
ENCODING 765
SWIDTH 544 0
DWIDTH 8 0
BBX 7 10 0 0
BITMAP
10
2A
00
42
42
42
84
84
84
78
ENDCHAR

STARTCHAR 766
ENCODING 766
SWIDTH 544 0
DWIDTH 8 0
BBX 7 10 0 0
BITMAP
04
2A
00
42
42
42
84
84
84
78
ENDCHAR

STARTCHAR 767
ENCODING 767
SWIDTH 586 0
DWIDTH 8 0
BBX 8 14 -1 -3
BITMAP
06
02
04
00
0E
31
21
41
42
66
58
80
80
80
ENDCHAR

STARTCHAR 768
ENCODING 768
SWIDTH 586 0
DWIDTH 8 0
BBX 8 14 -1 -3
BITMAP
06
04
02
00
0E
31
21
41
42
66
58
80
80
80
ENDCHAR

STARTCHAR 769
ENCODING 769
SWIDTH 544 0
DWIDTH 8 0
BBX 7 10 0 0
BITMAP
1A
24
00
42
42
42
84
84
84
78
ENDCHAR

STARTCHAR 770
ENCODING 770
SWIDTH 544 0
DWIDTH 8 0
BBX 7 12 0 0
BITMAP
1A
24
00
14
00
42
42
42
84
84
84
78
ENDCHAR

STARTCHAR 771
ENCODING 771
SWIDTH 515 0
DWIDTH 7 0
BBX 8 13 0 0
BITMAP
24
38
00
81
82
44
44
48
30
30
20
20
20
ENDCHAR

STARTCHAR 772
ENCODING 772
SWIDTH 515 0
DWIDTH 7 0
BBX 8 12 0 0
BITMAP
38
00
81
82
44
44
48
30
30
20
20
20
ENDCHAR

STARTCHAR 773
ENCODING 773
SWIDTH 830 0
DWIDTH 12 0
BBX 11 10 0 0
BITMAP
9020
5040
0880
0880
0900
0600
0600
0400
0400
0400
ENDCHAR

STARTCHAR 774
ENCODING 774
SWIDTH 746 0
DWIDTH 10 0
BBX 11 10 0 0
BITMAP
5020
9040
0880
0880
0900
0600
0600
0400
0400
0400
ENDCHAR

STARTCHAR 775
ENCODING 775
SWIDTH 779 0
DWIDTH 11 0
BBX 9 11 1 0
BITMAP
C000
9F00
5080
1080
2080
2100
3E00
2000
4000
4000
4000
ENDCHAR

STARTCHAR 776
ENCODING 776
SWIDTH 347 0
DWIDTH 5 0
BBX 5 2 1 8
BITMAP
40
A8
ENDCHAR

STARTCHAR 777
ENCODING 777
SWIDTH 347 0
DWIDTH 5 0
BBX 5 2 1 8
BITMAP
10
A8
ENDCHAR

STARTCHAR 778
ENCODING 778
SWIDTH 211 0
DWIDTH 3 0
BBX 3 2 0 8
BITMAP
40
20
ENDCHAR

STARTCHAR 779
ENCODING 779
SWIDTH 725 0
DWIDTH 10 0
BBX 9 13 0 -3
BITMAP
0800
0400
0000
2100
4080
8880
8880
8880
9900
6600
0000
0800
0800
ENDCHAR

STARTCHAR 780
ENCODING 780
SWIDTH 725 0
DWIDTH 10 0
BBX 9 10 0 -3
BITMAP
2100
4080
8880
8880
8880
9900
6600
0000
0800
0800
ENDCHAR

STARTCHAR 781
ENCODING 781
SWIDTH 725 0
DWIDTH 10 0
BBX 9 13 0 -3
BITMAP
0400
0800
0000
2100
4080
8880
8880
8880
9900
6600
0000
0800
0800
ENDCHAR

STARTCHAR 782
ENCODING 782
SWIDTH 725 0
DWIDTH 10 0
BBX 9 10 0 0
BITMAP
0D00
1200
0000
2100
4080
8880
8880
8880
9900
6600
ENDCHAR

STARTCHAR 783
ENCODING 783
SWIDTH 725 0
DWIDTH 10 0
BBX 9 13 0 -3
BITMAP
0D00
1200
0000
2100
4080
8880
8880
8880
9900
6600
0000
0800
0800
ENDCHAR

STARTCHAR 784
ENCODING 784
SWIDTH 978 0
DWIDTH 14 0
BBX 12 10 1 0
BITMAP
8380
4C60
1020
1010
2010
2010
2020
1020
18C0
0700
ENDCHAR

STARTCHAR 785
ENCODING 785
SWIDTH 894 0
DWIDTH 13 0
BBX 12 10 1 0
BITMAP
4380
8C60
1020
1010
2010
2010
2020
1020
18C0
0700
ENDCHAR

STARTCHAR 786
ENCODING 786
SWIDTH 991 0
DWIDTH 14 0
BBX 11 10 1 0
BITMAP
8780
4840
1020
1020
2020
2020
2040
2040
1080
79E0
ENDCHAR

STARTCHAR 787
ENCODING 787
SWIDTH 907 0
DWIDTH 13 0
BBX 11 10 1 0
BITMAP
4780
8840
1020
1020
2020
2020
2040
2040
1080
79E0
ENDCHAR

STARTCHAR 788
ENCODING 788
SWIDTH 780 0
DWIDTH 11 0
BBX 10 13 0 -3
BITMAP
0F00
1080
2040
2040
4040
4040
4080
4080
2100
F3C0
0000
0800
0800
ENDCHAR

STARTCHAR 789
ENCODING 789
SWIDTH 211 0
DWIDTH 3 0
BBX 2 2 1 8
BITMAP
40
80
ENDCHAR

STARTCHAR 790
ENCODING 790
SWIDTH 164 0
DWIDTH 2 0
BBX 2 3 0 8
BITMAP
C0
80
40
ENDCHAR

STARTCHAR 791
ENCODING 791
SWIDTH 312 0
DWIDTH 4 0
BBX 3 1 0 3
BITMAP
E0
ENDCHAR

STARTCHAR 792
ENCODING 792
SWIDTH 500 0
DWIDTH 7 0
BBX 7 1 -1 3
BITMAP
FE
ENDCHAR

STARTCHAR 793
ENCODING 793
SWIDTH 1000 0
DWIDTH 14 0
BBX 9 1 2 3
BITMAP
FF80
ENDCHAR

STARTCHAR 794
ENCODING 794
SWIDTH 1000 0
DWIDTH 14 0
BBX 14 1 -1 3
BITMAP
FFFC
ENDCHAR

STARTCHAR 795
ENCODING 795
SWIDTH 500 0
DWIDTH 7 0
BBX 7 3 -1 -3
BITMAP
FE
00
FE
ENDCHAR

STARTCHAR 796
ENCODING 796
SWIDTH 251 0
DWIDTH 4 0
BBX 2 3 2 7
BITMAP
40
80
80
ENDCHAR

STARTCHAR 797
ENCODING 797
SWIDTH 251 0
DWIDTH 4 0
BBX 2 3 1 7
BITMAP
40
40
80
ENDCHAR

STARTCHAR 798
ENCODING 798
SWIDTH 251 0
DWIDTH 4 0
BBX 2 3 0 -1
BITMAP
40
40
80
ENDCHAR

STARTCHAR 799
ENCODING 799
SWIDTH 251 0
DWIDTH 4 0
BBX 2 3 1 7
BITMAP
80
80
40
ENDCHAR

STARTCHAR 800
ENCODING 800
SWIDTH 413 0
DWIDTH 6 0
BBX 4 3 1 7
BITMAP
50
A0
A0
ENDCHAR

STARTCHAR 801
ENCODING 801
SWIDTH 413 0
DWIDTH 6 0
BBX 4 3 1 7
BITMAP
50
50
A0
ENDCHAR

STARTCHAR 802
ENCODING 802
SWIDTH 413 0
DWIDTH 6 0
BBX 4 3 0 -1
BITMAP
50
50
A0
ENDCHAR

STARTCHAR 803
ENCODING 803
SWIDTH 500 0
DWIDTH 7 0
BBX 6 12 0 -2
BITMAP
10
10
10
FC
20
20
20
20
20
40
40
40
ENDCHAR

STARTCHAR 804
ENCODING 804
SWIDTH 500 0
DWIDTH 7 0
BBX 7 12 -1 -2
BITMAP
08
08
08
7E
10
10
10
10
FC
20
20
20
ENDCHAR

STARTCHAR 805
ENCODING 805
SWIDTH 590 0
DWIDTH 8 0
BBX 4 4 2 3
BITMAP
60
F0
F0
60
ENDCHAR

STARTCHAR 806
ENCODING 806
SWIDTH 602 0
DWIDTH 8 0
BBX 6 6 1 2
BITMAP
80
E0
F8
F8
E0
80
ENDCHAR

STARTCHAR 807
ENCODING 807
SWIDTH 1000 0
DWIDTH 14 0
BBX 11 2 1 0
BITMAP
8420
8420
ENDCHAR

STARTCHAR 808
ENCODING 808
SWIDTH 274 0
DWIDTH 4 0
BBX 1 1 0 0
BITMAP
00
ENDCHAR

STARTCHAR 809
ENCODING 809
SWIDTH 274 0
DWIDTH 4 0
BBX 1 1 0 0
BITMAP
00
ENDCHAR

STARTCHAR 810
ENCODING 810
SWIDTH 1263 0
DWIDTH 18 0
BBX 17 10 0 0
BITMAP
710000
890000
8A0000
8A0000
740000
05C700
0A2880
0A2880
122880
11C700
ENDCHAR

STARTCHAR 811
ENCODING 811
SWIDTH 329 0
DWIDTH 5 0
BBX 2 4 1 6
BITMAP
40
40
80
80
ENDCHAR

STARTCHAR 812
ENCODING 812
SWIDTH 377 0
DWIDTH 5 0
BBX 5 4 0 6
BITMAP
48
48
90
90
ENDCHAR

STARTCHAR 813
ENCODING 813
SWIDTH 244 0
DWIDTH 3 0
BBX 3 5 0 1
BITMAP
20
40
80
80
40
ENDCHAR

STARTCHAR 814
ENCODING 814
SWIDTH 244 0
DWIDTH 3 0
BBX 3 5 -1 1
BITMAP
40
20
20
40
80
ENDCHAR

STARTCHAR 815
ENCODING 815
SWIDTH 642 0
DWIDTH 9 0
BBX 7 10 1 0
BITMAP
22
22
22
44
44
44
44
00
88
88
ENDCHAR

STARTCHAR 816
ENCODING 816
SWIDTH 500 0
DWIDTH 7 0
BBX 7 1 0 10
BITMAP
FE
ENDCHAR

STARTCHAR 817
ENCODING 817
SWIDTH 268 0
DWIDTH 4 0
BBX 3 1 0 3
BITMAP
E0
ENDCHAR

STARTCHAR 818
ENCODING 818
SWIDTH 167 0
DWIDTH 2 0
BBX 7 10 -3 0
BITMAP
02
04
04
08
10
10
20
20
40
80
ENDCHAR

STARTCHAR 819
ENCODING 819
SWIDTH 414 0
DWIDTH 6 0
BBX 5 5 0 5
BITMAP
58
68
48
90
90
ENDCHAR

STARTCHAR 820
ENCODING 820
SWIDTH 865 0
DWIDTH 12 0
BBX 12 10 0 0
BITMAP
3F00
2000
2000
40B0
7CC0
4080
4080
8100
8100
8100
ENDCHAR

STARTCHAR 821
ENCODING 821
SWIDTH 549 0
DWIDTH 8 0
BBX 7 10 0 0
BITMAP
1C
22
42
40
F0
40
F0
40
B4
98
ENDCHAR

STARTCHAR 822
ENCODING 822
SWIDTH 667 0
DWIDTH 9 0
BBX 10 10 0 0
BITMAP
3C00
2280
2280
43C0
4480
7880
4100
8100
8100
8080
ENDCHAR

STARTCHAR 823
ENCODING 823
SWIDTH 986 0
DWIDTH 14 0
BBX 10 11 1 -1
BITMAP
0100
3100
5200
8200
9400
64C0
0940
0A40
1280
1300
2000
ENDCHAR

STARTCHAR 824
ENCODING 824
SWIDTH 995 0
DWIDTH 14 0
BBX 14 10 -1 0
BITMAP
2100
2118
3124
5144
5244
4A48
4A30
8A00
84F8
8400
ENDCHAR

STARTCHAR 825
ENCODING 825
SWIDTH 833 0
DWIDTH 12 0
BBX 9 4 1 6
BITMAP
E880
4D80
4A80
4A80
ENDCHAR

STARTCHAR 826
ENCODING 826
SWIDTH 764 0
DWIDTH 11 0
BBX 9 10 1 0
BITMAP
1C00
6300
4100
8080
8080
8080
8080
4100
2200
F780
ENDCHAR

STARTCHAR 827
ENCODING 827
SWIDTH 762 0
DWIDTH 11 0
BBX 9 9 0 0
BITMAP
3E00
6300
C180
C180
FF80
C000
C180
6300
3E00
ENDCHAR

STARTCHAR 828
ENCODING 828
SWIDTH 858 0
DWIDTH 12 0
BBX 12 10 1 0
BITMAP
2080
E100
2100
4200
4460
4490
08E0
0920
1120
20C0
ENDCHAR

STARTCHAR 829
ENCODING 829
SWIDTH 859 0
DWIDTH 12 0
BBX 13 10 0 0
BITMAP
3840
0880
3080
1100
9230
6248
0470
0490
0890
1060
ENDCHAR

STARTCHAR 830
ENCODING 830
SWIDTH 859 0
DWIDTH 12 0
BBX 13 10 0 0
BITMAP
3840
4080
6080
1100
9230
6248
0470
0490
0890
1060
ENDCHAR

STARTCHAR 831
ENCODING 831
SWIDTH 859 0
DWIDTH 12 0
BBX 11 10 1 0
BITMAP
F100
1200
2200
4400
48C0
8920
11C0
1240
2240
4380
ENDCHAR

STARTCHAR 832
ENCODING 832
SWIDTH 1000 0
DWIDTH 14 0
BBX 12 5 0 2
BITMAP
1800
6000
FFF0
6000
1800
ENDCHAR

STARTCHAR 833
ENCODING 833
SWIDTH 500 0
DWIDTH 7 0
BBX 5 12 1 -2
BITMAP
20
70
70
A8
A8
20
20
20
20
20
20
20
ENDCHAR

STARTCHAR 834
ENCODING 834
SWIDTH 1000 0
DWIDTH 14 0
BBX 12 5 0 2
BITMAP
0180
0060
FFF0
0060
0180
ENDCHAR

STARTCHAR 835
ENCODING 835
SWIDTH 500 0
DWIDTH 7 0
BBX 5 12 1 -2
BITMAP
20
20
20
20
20
20
20
A8
A8
70
70
20
ENDCHAR

STARTCHAR 836
ENCODING 836
SWIDTH 1000 0
DWIDTH 14 0
BBX 12 5 0 2
BITMAP
1980
6060
FFF0
6060
1980
ENDCHAR

STARTCHAR 837
ENCODING 837
SWIDTH 500 0
DWIDTH 7 0
BBX 5 12 1 -2
BITMAP
20
70
70
A8
A8
20
20
A8
A8
70
70
20
ENDCHAR

STARTCHAR 838
ENCODING 838
SWIDTH 500 0
DWIDTH 7 0
BBX 5 14 1 -3
BITMAP
20
70
70
A8
20
20
20
20
A8
70
70
20
00
F8
ENDCHAR

STARTCHAR 839
ENCODING 839
SWIDTH 517 0
DWIDTH 7 0
BBX 6 9 0 0
BITMAP
30
28
04
34
4C
88
88
90
60
ENDCHAR

STARTCHAR 840
ENCODING 840
SWIDTH 669 0
DWIDTH 9 0
BBX 9 10 -1 0
BITMAP
0800
0800
1400
1400
2200
2200
4100
4100
8080
FF80
ENDCHAR

STARTCHAR 841
ENCODING 841
SWIDTH 757 0
DWIDTH 11 0
BBX 8 13 1 -3
BITMAP
FF
C3
C3
C3
C3
C3
C3
C3
C3
C3
C3
C3
C3
ENDCHAR

STARTCHAR 842
ENCODING 842
SWIDTH 674 0
DWIDTH 9 0
BBX 9 13 0 -3
BITMAP
FF80
6000
3000
1800
0800
0C00
0600
0C00
1800
3000
6000
C000
FF80
ENDCHAR

STARTCHAR 843
ENCODING 843
SWIDTH 833 0
DWIDTH 12 0
BBX 8 1 1 4
BITMAP
FF
ENDCHAR

STARTCHAR 844
ENCODING 844
SWIDTH 274 0
DWIDTH 4 0
BBX 1 2 2 4
BITMAP
80
80
ENDCHAR

STARTCHAR 845
ENCODING 845
SWIDTH 637 0
DWIDTH 9 0
BBX 7 11 1 0
BITMAP
06
04
04
08
08
C8
50
50
50
20
20
ENDCHAR

STARTCHAR 846
ENCODING 846
SWIDTH 833 0
DWIDTH 12 0
BBX 9 5 1 2
BITMAP
6300
9480
8880
9480
6300
ENDCHAR

STARTCHAR 847
ENCODING 847
SWIDTH 833 0
DWIDTH 12 0
BBX 9 9 1 0
BITMAP
8000
8000
8000
8000
8000
8000
8000
8000
FF80
ENDCHAR

STARTCHAR 848
ENCODING 848
SWIDTH 833 0
DWIDTH 12 0
BBX 9 9 1 0
BITMAP
3E00
4100
8080
8080
8080
8080
8080
8080
8080
ENDCHAR

STARTCHAR 849
ENCODING 849
SWIDTH 521 0
DWIDTH 7 0
BBX 6 13 0 -2
BITMAP
08
14
20
20
20
20
20
20
20
20
20
A0
40
ENDCHAR

STARTCHAR 850
ENCODING 850
SWIDTH 833 0
DWIDTH 12 0
BBX 8 5 1 2
BITMAP
71
8E
00
71
8E
ENDCHAR

STARTCHAR 851
ENCODING 851
SWIDTH 833 0
DWIDTH 12 0
BBX 8 8 2 0
BITMAP
02
04
FF
08
10
FF
20
40
ENDCHAR

STARTCHAR 852
ENCODING 852
SWIDTH 833 0
DWIDTH 12 0
BBX 8 7 2 1
BITMAP
FF
00
00
FF
00
00
FF
ENDCHAR

STARTCHAR 853
ENCODING 853
SWIDTH 833 0
DWIDTH 12 0
BBX 8 8 1 0
BITMAP
03
1C
E0
E0
1C
03
00
FF
ENDCHAR

STARTCHAR 854
ENCODING 854
SWIDTH 833 0
DWIDTH 12 0
BBX 8 8 1 0
BITMAP
C0
38
07
07
38
C0
00
FF
ENDCHAR

STARTCHAR 855
ENCODING 855
SWIDTH 868 0
DWIDTH 12 0
BBX 11 10 0 0
BITMAP
0400
0A00
1100
2080
4040
8020
8020
8020
8020
FFE0
ENDCHAR

STARTCHAR 856
ENCODING 856
SWIDTH 833 0
DWIDTH 12 0
BBX 8 3 1 3
BITMAP
FF
80
80
ENDCHAR

STARTCHAR 857
ENCODING 857
SWIDTH 596 0
DWIDTH 8 0
BBX 4 14 3 -3
BITMAP
30
50
80
80
80
80
80
80
80
80
80
80
80
80
ENDCHAR

STARTCHAR 858
ENCODING 858
SWIDTH 596 0
DWIDTH 8 0
BBX 4 14 0 -3
BITMAP
10
10
10
10
10
10
10
10
10
10
10
10
A0
C0
ENDCHAR

STARTCHAR 859
ENCODING 859
SWIDTH 1000 0
DWIDTH 14 0
BBX 14 1 0 3
BITMAP
FFFC
ENDCHAR

STARTCHAR 860
ENCODING 860
SWIDTH 1000 0
DWIDTH 14 0
BBX 1 14 6 -3
BITMAP
80
80
80
80
80
80
80
80
80
80
80
80
80
80
ENDCHAR

STARTCHAR 861
ENCODING 861
SWIDTH 1000 0
DWIDTH 14 0
BBX 8 7 6 -3
BITMAP
FF
80
80
80
80
80
80
ENDCHAR

STARTCHAR 862
ENCODING 862
SWIDTH 1000 0
DWIDTH 14 0
BBX 7 7 0 -3
BITMAP
FE
02
02
02
02
02
02
ENDCHAR

STARTCHAR 863
ENCODING 863
SWIDTH 1000 0
DWIDTH 14 0
BBX 8 8 6 3
BITMAP
80
80
80
80
80
80
80
FF
ENDCHAR

STARTCHAR 864
ENCODING 864
SWIDTH 1000 0
DWIDTH 14 0
BBX 7 8 0 3
BITMAP
02
02
02
02
02
02
02
FE
ENDCHAR

STARTCHAR 865
ENCODING 865
SWIDTH 1000 0
DWIDTH 14 0
BBX 8 14 6 -3
BITMAP
80
80
80
80
80
80
80
FF
80
80
80
80
80
80
ENDCHAR

STARTCHAR 866
ENCODING 866
SWIDTH 1000 0
DWIDTH 14 0
BBX 7 14 0 -3
BITMAP
02
02
02
02
02
02
02
FE
02
02
02
02
02
02
ENDCHAR

STARTCHAR 867
ENCODING 867
SWIDTH 1000 0
DWIDTH 14 0
BBX 14 7 0 -3
BITMAP
FFFC
0200
0200
0200
0200
0200
0200
ENDCHAR

STARTCHAR 868
ENCODING 868
SWIDTH 1000 0
DWIDTH 14 0
BBX 14 8 0 3
BITMAP
0200
0200
0200
0200
0200
0200
0200
FFFC
ENDCHAR

STARTCHAR 869
ENCODING 869
SWIDTH 1000 0
DWIDTH 14 0
BBX 14 14 0 -3
BITMAP
0200
0200
0200
0200
0200
0200
0200
FFFC
0200
0200
0200
0200
0200
0200
ENDCHAR

STARTCHAR 870
ENCODING 870
SWIDTH 1000 0
DWIDTH 14 0
BBX 14 4 0 2
BITMAP
FFFC
0000
0000
FFFC
ENDCHAR

STARTCHAR 871
ENCODING 871
SWIDTH 1000 0
DWIDTH 14 0
BBX 4 14 5 -3
BITMAP
90
90
90
90
90
90
90
90
90
90
90
90
90
90
ENDCHAR

STARTCHAR 872
ENCODING 872
SWIDTH 1000 0
DWIDTH 14 0
BBX 8 8 6 -3
BITMAP
FF
80
80
FF
80
80
80
80
ENDCHAR

STARTCHAR 873
ENCODING 873
SWIDTH 1000 0
DWIDTH 14 0
BBX 9 7 5 -3
BITMAP
FF80
9000
9000
9000
9000
9000
9000
ENDCHAR

STARTCHAR 874
ENCODING 874
SWIDTH 1000 0
DWIDTH 14 0
BBX 9 9 5 -3
BITMAP
FF80
8000
8000
9F80
9000
9000
9000
9000
9000
ENDCHAR

STARTCHAR 875
ENCODING 875
SWIDTH 1000 0
DWIDTH 14 0
BBX 7 9 0 -3
BITMAP
FE
02
02
FE
02
02
02
02
02
ENDCHAR

STARTCHAR 876
ENCODING 876
SWIDTH 1000 0
DWIDTH 14 0
BBX 9 7 0 -3
BITMAP
FF80
0480
0480
0480
0480
0480
0480
ENDCHAR

STARTCHAR 877
ENCODING 877
SWIDTH 1000 0
DWIDTH 14 0
BBX 9 9 0 -3
BITMAP
FF80
0080
0080
FC80
0480
0480
0480
0480
0480
ENDCHAR

STARTCHAR 878
ENCODING 878
SWIDTH 1000 0
DWIDTH 14 0
BBX 8 9 6 2
BITMAP
80
80
80
80
80
FF
80
80
FF
ENDCHAR

STARTCHAR 879
ENCODING 879
SWIDTH 1000 0
DWIDTH 14 0
BBX 9 8 5 3
BITMAP
9000
9000
9000
9000
9000
9000
9000
FF80
ENDCHAR

STARTCHAR 880
ENCODING 880
SWIDTH 1000 0
DWIDTH 14 0
BBX 9 9 5 2
BITMAP
9000
9000
9000
9000
9000
9F80
8000
8000
FF80
ENDCHAR

STARTCHAR 881
ENCODING 881
SWIDTH 1000 0
DWIDTH 14 0
BBX 7 9 0 2
BITMAP
02
02
02
02
02
FE
02
02
FE
ENDCHAR

STARTCHAR 882
ENCODING 882
SWIDTH 1000 0
DWIDTH 14 0
BBX 9 8 0 3
BITMAP
0480
0480
0480
0480
0480
0480
0480
FF80
ENDCHAR

STARTCHAR 883
ENCODING 883
SWIDTH 1000 0
DWIDTH 14 0
BBX 9 9 0 2
BITMAP
0480
0480
0480
0480
0480
FC80
0080
0080
FF80
ENDCHAR

STARTCHAR 884
ENCODING 884
SWIDTH 1000 0
DWIDTH 14 0
BBX 8 14 6 -3
BITMAP
80
80
80
80
80
FF
80
80
FF
80
80
80
80
80
ENDCHAR

STARTCHAR 885
ENCODING 885
SWIDTH 1000 0
DWIDTH 14 0
BBX 9 14 5 -3
BITMAP
9000
9000
9000
9000
9000
9000
9000
9F80
9000
9000
9000
9000
9000
9000
ENDCHAR

STARTCHAR 886
ENCODING 886
SWIDTH 1000 0
DWIDTH 14 0
BBX 9 14 5 -3
BITMAP
9000
9000
9000
9000
9000
9F80
8000
8000
9F80
9000
9000
9000
9000
9000
ENDCHAR

STARTCHAR 887
ENCODING 887
SWIDTH 1000 0
DWIDTH 14 0
BBX 7 14 0 -3
BITMAP
02
02
02
02
02
FE
02
02
FE
02
02
02
02
02
ENDCHAR

STARTCHAR 888
ENCODING 888
SWIDTH 1000 0
DWIDTH 14 0
BBX 9 14 0 -3
BITMAP
0480
0480
0480
0480
0480
0480
0480
FC80
0480
0480
0480
0480
0480
0480
ENDCHAR

STARTCHAR 889
ENCODING 889
SWIDTH 1000 0
DWIDTH 14 0
BBX 9 14 0 -3
BITMAP
0480
0480
0480
0480
0480
FC80
0080
0080
FC80
0480
0480
0480
0480
0480
ENDCHAR

STARTCHAR 890
ENCODING 890
SWIDTH 1000 0
DWIDTH 14 0
BBX 14 9 0 -3
BITMAP
FFFC
0000
0000
FFFC
0200
0200
0200
0200
0200
ENDCHAR

STARTCHAR 891
ENCODING 891
SWIDTH 1000 0
DWIDTH 14 0
BBX 14 7 0 -3
BITMAP
FFFC
0480
0480
0480
0480
0480
0480
ENDCHAR

STARTCHAR 892
ENCODING 892
SWIDTH 1000 0
DWIDTH 14 0
BBX 14 9 0 -3
BITMAP
FFFC
0000
0000
FCFC
0480
0480
0480
0480
0480
ENDCHAR

STARTCHAR 893
ENCODING 893
SWIDTH 1000 0
DWIDTH 14 0
BBX 14 9 0 2
BITMAP
0200
0200
0200
0200
0200
FFFC
0000
0000
FFFC
ENDCHAR

STARTCHAR 894
ENCODING 894
SWIDTH 1000 0
DWIDTH 14 0
BBX 14 8 0 3
BITMAP
0480
0480
0480
0480
0480
0480
0480
FFFC
ENDCHAR

STARTCHAR 895
ENCODING 895
SWIDTH 1000 0
DWIDTH 14 0
BBX 14 9 0 2
BITMAP
0480
0480
0480
0480
0480
FCFC
0000
0000
FFFC
ENDCHAR

STARTCHAR 896
ENCODING 896
SWIDTH 1000 0
DWIDTH 14 0
BBX 14 14 0 -3
BITMAP
0200
0200
0200
0200
0200
FFFC
0200
0200
FFFC
0200
0200
0200
0200
0200
ENDCHAR

STARTCHAR 897
ENCODING 897
SWIDTH 1000 0
DWIDTH 14 0
BBX 14 14 0 -3
BITMAP
0480
0480
0480
0480
0480
0480
0480
FFFC
0480
0480
0480
0480
0480
0480
ENDCHAR

STARTCHAR 898
ENCODING 898
SWIDTH 1000 0
DWIDTH 14 0
BBX 14 14 0 -3
BITMAP
0480
0480
0480
0480
0480
FCFC
0000
0000
FCFC
0480
0480
0480
0480
0480
ENDCHAR

STARTCHAR 899
ENCODING 899
SWIDTH 1000 0
DWIDTH 14 0
BBX 14 7 0 4
BITMAP
FFFC
FFFC
FFFC
FFFC
FFFC
FFFC
FFFC
ENDCHAR

STARTCHAR 900
ENCODING 900
SWIDTH 1000 0
DWIDTH 14 0
BBX 14 7 0 -3
BITMAP
FFFC
FFFC
FFFC
FFFC
FFFC
FFFC
FFFC
ENDCHAR

STARTCHAR 901
ENCODING 901
SWIDTH 1000 0
DWIDTH 14 0
BBX 14 14 0 -3
BITMAP
FFFC
FFFC
FFFC
FFFC
FFFC
FFFC
FFFC
FFFC
FFFC
FFFC
FFFC
FFFC
FFFC
FFFC
ENDCHAR

STARTCHAR 902
ENCODING 902
SWIDTH 1000 0
DWIDTH 14 0
BBX 7 14 0 -3
BITMAP
FE
FE
FE
FE
FE
FE
FE
FE
FE
FE
FE
FE
FE
FE
ENDCHAR

STARTCHAR 903
ENCODING 903
SWIDTH 1000 0
DWIDTH 14 0
BBX 7 14 7 -3
BITMAP
FE
FE
FE
FE
FE
FE
FE
FE
FE
FE
FE
FE
FE
FE
ENDCHAR

STARTCHAR 904
ENCODING 904
SWIDTH 1000 0
DWIDTH 14 0
BBX 12 12 0 -1
BITMAP
C630
C630
0000
0000
0000
C630
C630
0000
0000
0000
C630
C630
ENDCHAR

STARTCHAR 905
ENCODING 905
SWIDTH 1000 0
DWIDTH 14 0
BBX 14 14 0 -3
BITMAP
C630
C630
39CC
39CC
39CC
C630
C630
39CC
39CC
39CC
C630
C630
39CC
39CC
ENDCHAR

STARTCHAR 906
ENCODING 906
SWIDTH 1000 0
DWIDTH 14 0
BBX 14 14 0 -3
BITMAP
FFFC
FFFC
C630
C630
C630
FFFC
FFFC
C630
C630
C630
FFFC
FFFC
C630
C630
ENDCHAR

STARTCHAR 907
ENCODING 907
SWIDTH 674 0
DWIDTH 9 0
BBX 7 7 1 1
BITMAP
FE
FE
FE
FE
FE
FE
FE
ENDCHAR

STARTCHAR 908
ENCODING 908
SWIDTH 947 0
DWIDTH 13 0
BBX 8 3 2 3
BITMAP
FF
FF
FF
ENDCHAR

STARTCHAR 909
ENCODING 909
SWIDTH 602 0
DWIDTH 8 0
BBX 6 6 0 2
BITMAP
30
30
30
78
78
FC
ENDCHAR

STARTCHAR 910
ENCODING 910
SWIDTH 877 0
DWIDTH 12 0
BBX 8 6 2 2
BITMAP
80
F8
FF
FF
F8
80
ENDCHAR

STARTCHAR 911
ENCODING 911
SWIDTH 602 0
DWIDTH 8 0
BBX 6 6 0 2
BITMAP
FC
78
78
30
30
30
ENDCHAR

STARTCHAR 912
ENCODING 912
SWIDTH 877 0
DWIDTH 12 0
BBX 8 6 2 2
BITMAP
01
1F
FF
FF
1F
01
ENDCHAR

STARTCHAR 913
ENCODING 913
SWIDTH 494 0
DWIDTH 7 0
BBX 7 15 0 -4
BITMAP
10
10
28
28
44
44
82
82
82
44
44
28
28
10
10
ENDCHAR

STARTCHAR 914
ENCODING 914
SWIDTH 784 0
DWIDTH 11 0
BBX 10 10 0 -1
BITMAP
1E00
6180
4080
8040
8040
8040
8040
4080
6180
1E00
ENDCHAR

STARTCHAR 915
ENCODING 915
SWIDTH 1000 0
DWIDTH 14 0
BBX 14 14 0 -3
BITMAP
FFFC
FFFC
FFFC
FFFC
FCFC
F87C
F03C
F03C
F87C
FCFC
FFFC
FFFC
FFFC
FFFC
ENDCHAR

STARTCHAR 916
ENCODING 916
SWIDTH 1000 0
DWIDTH 14 0
BBX 14 14 0 -3
BITMAP
FFFC
FFFC
F87C
E79C
EFDC
DFEC
DFEC
DFEC
DFEC
EFDC
E79C
F87C
FFFC
FFFC
ENDCHAR

STARTCHAR 917
ENCODING 917
SWIDTH 877 0
DWIDTH 12 0
BBX 10 10 1 0
BITMAP
1E00
6180
5280
9240
8040
A140
A140
5E80
6180
1E00
ENDCHAR

STARTCHAR 918
ENCODING 918
SWIDTH 877 0
DWIDTH 12 0
BBX 10 10 1 0
BITMAP
1E00
7F80
6D80
EDC0
FFC0
DEC0
DEC0
6180
7F80
1E00
ENDCHAR

STARTCHAR 919
ENCODING 919
SWIDTH 877 0
DWIDTH 12 0
BBX 11 11 0 -1
BITMAP
0400
0400
2E80
1100
2080
E0E0
2080
1100
2E80
0400
0400
ENDCHAR

STARTCHAR 920
ENCODING 920
SWIDTH 822 0
DWIDTH 12 0
BBX 7 11 2 -1
BITMAP
7C
82
82
82
82
7C
10
10
FE
10
10
ENDCHAR

STARTCHAR 921
ENCODING 921
SWIDTH 822 0
DWIDTH 12 0
BBX 7 11 2 -1
BITMAP
0C
1C
2A
08
10
7C
82
82
82
82
7C
ENDCHAR

STARTCHAR 922
ENCODING 922
SWIDTH 986 0
DWIDTH 14 0
BBX 11 11 1 -1
BITMAP
0400
0E00
1F00
1F00
3F80
7FC0
FFE0
FFE0
F5E0
64C0
0E00
ENDCHAR

STARTCHAR 923
ENCODING 923
SWIDTH 986 0
DWIDTH 14 0
BBX 11 11 1 -1
BITMAP
0E00
1F00
1F00
0E00
6EC0
FFE0
FFE0
FFE0
F5E0
64C0
0E00
ENDCHAR

STARTCHAR 924
ENCODING 924
SWIDTH 986 0
DWIDTH 14 0
BBX 10 11 2 -1
BITMAP
7380
FFC0
FFC0
FFC0
FFC0
7F80
3F00
3F00
1E00
0C00
0400
ENDCHAR

STARTCHAR 925
ENCODING 925
SWIDTH 986 0
DWIDTH 14 0
BBX 9 11 2 -1
BITMAP
0800
1C00
3E00
3E00
7F00
FF80
7F00
3E00
3E00
1C00
0800
ENDCHAR

STARTCHAR 926
ENCODING 926
SWIDTH 532 0
DWIDTH 7 0
BBX 7 10 -1 0
BITMAP
10
10
18
14
12
12
12
72
F0
E0
ENDCHAR

STARTCHAR 927
ENCODING 927
SWIDTH 718 0
DWIDTH 10 0
BBX 7 13 0 -3
BITMAP
10
10
18
16
1A
16
12
72
F2
E2
0E
1E
1C
ENDCHAR

STARTCHAR 928
ENCODING 928
SWIDTH 486 0
DWIDTH 7 0
BBX 7 10 0 0
BITMAP
12
22
40
E4
44
44
44
88
88
88
ENDCHAR

STARTCHAR 929
ENCODING 929
SWIDTH 485 0
DWIDTH 7 0
BBX 7 10 0 0
BITMAP
12
22
42
E4
44
44
44
88
88
88
ENDCHAR

STARTCHAR 930
ENCODING 930
SWIDTH 692 0
DWIDTH 10 0
BBX 8 9 1 0
BITMAP
40
C7
E7
74
58
4C
46
E3
E1
ENDCHAR

STARTCHAR 931
ENCODING 931
SWIDTH 613 0
DWIDTH 9 0
BBX 8 9 0 0
BITMAP
80
FC
FC
06
06
02
02
FF
FF
ENDCHAR

STARTCHAR 932
ENCODING 932
SWIDTH 420 0
DWIDTH 6 0
BBX 6 9 0 0
BITMAP
40
78
78
08
08
08
18
EC
E4
ENDCHAR

STARTCHAR 933
ENCODING 933
SWIDTH 578 0
DWIDTH 8 0
BBX 7 9 0 0
BITMAP
80
FE
FE
04
04
06
06
06
06
ENDCHAR

STARTCHAR 934
ENCODING 934
SWIDTH 707 0
DWIDTH 10 0
BBX 9 9 0 0
BITMAP
8000
FF80
FF80
0200
4200
C300
C300
C300
C300
ENDCHAR

STARTCHAR 935
ENCODING 935
SWIDTH 370 0
DWIDTH 5 0
BBX 5 9 0 0
BITMAP
80
F0
F0
10
10
18
18
18
18
ENDCHAR

STARTCHAR 936
ENCODING 936
SWIDTH 336 0
DWIDTH 5 0
BBX 5 9 0 0
BITMAP
C0
F8
78
20
20
20
30
30
30
ENDCHAR

STARTCHAR 937
ENCODING 937
SWIDTH 699 0
DWIDTH 10 0
BBX 9 9 0 0
BITMAP
8000
FF80
FF80
8100
8100
8100
C180
C180
C180
ENDCHAR

STARTCHAR 938
ENCODING 938
SWIDTH 648 0
DWIDTH 9 0
BBX 8 9 0 0
BITMAP
80
E6
EF
49
41
41
62
3E
38
ENDCHAR

STARTCHAR 939
ENCODING 939
SWIDTH 354 0
DWIDTH 5 0
BBX 4 6 0 3
BITMAP
80
F0
F0
10
30
20
ENDCHAR

STARTCHAR 940
ENCODING 940
SWIDTH 618 0
DWIDTH 9 0
BBX 8 13 0 -4
BITMAP
80
FC
FE
06
02
02
02
03
03
03
03
03
03
ENDCHAR

STARTCHAR 941
ENCODING 941
SWIDTH 595 0
DWIDTH 8 0
BBX 7 9 0 0
BITMAP
40
7C
7E
06
02
02
02
7E
FC
ENDCHAR

STARTCHAR 942
ENCODING 942
SWIDTH 579 0
DWIDTH 8 0
BBX 7 13 0 0
BITMAP
C0
C0
80
80
80
FC
FE
02
06
0C
18
30
20
ENDCHAR

STARTCHAR 943
ENCODING 943
SWIDTH 690 0
DWIDTH 10 0
BBX 8 9 0 0
BITMAP
80
FE
FF
43
43
61
61
7F
7F
ENDCHAR

STARTCHAR 944
ENCODING 944
SWIDTH 694 0
DWIDTH 10 0
BBX 8 9 0 0
BITMAP
80
EE
EF
33
21
61
61
4F
5F
ENDCHAR

STARTCHAR 945
ENCODING 945
SWIDTH 336 0
DWIDTH 5 0
BBX 4 13 0 -4
BITMAP
80
F0
F0
20
20
20
20
20
30
30
30
30
30
ENDCHAR

STARTCHAR 946
ENCODING 946
SWIDTH 417 0
DWIDTH 6 0
BBX 5 9 0 0
BITMAP
40
70
78
18
18
08
08
F8
F8
ENDCHAR

STARTCHAR 947
ENCODING 947
SWIDTH 650 0
DWIDTH 9 0
BBX 8 9 0 0
BITMAP
80
FE
FF
43
41
41
63
7E
3C
ENDCHAR

STARTCHAR 948
ENCODING 948
SWIDTH 657 0
DWIDTH 9 0
BBX 8 10 0 -1
BITMAP
40
67
67
22
32
12
14
3C
F8
C0
ENDCHAR

STARTCHAR 949
ENCODING 949
SWIDTH 590 0
DWIDTH 8 0
BBX 8 13 0 -4
BITMAP
80
FC
FE
86
82
82
E2
E3
03
03
03
03
03
ENDCHAR

STARTCHAR 950
ENCODING 950
SWIDTH 604 0
DWIDTH 8 0
BBX 7 9 0 0
BITMAP
40
7C
7E
46
62
62
02
7E
FC
ENDCHAR

STARTCHAR 951
ENCODING 951
SWIDTH 594 0
DWIDTH 8 0
BBX 8 13 0 -4
BITMAP
80
E7
E7
26
2C
28
30
20
20
20
30
30
30
ENDCHAR

STARTCHAR 952
ENCODING 952
SWIDTH 632 0
DWIDTH 9 0
BBX 8 9 0 0
BITMAP
80
E3
E3
36
14
08
0E
FE
FC
ENDCHAR

STARTCHAR 953
ENCODING 953
SWIDTH 602 0
DWIDTH 8 0
BBX 7 13 1 -4
BITMAP
80
FC
FE
02
02
84
8C
B8
B0
80
C0
C0
C0
ENDCHAR

STARTCHAR 954
ENCODING 954
SWIDTH 616 0
DWIDTH 9 0
BBX 8 9 0 0
BITMAP
80
FE
FF
03
03
03
03
03
03
ENDCHAR

STARTCHAR 955
ENCODING 955
SWIDTH 810 0
DWIDTH 11 0
BBX 10 9 0 0
BITMAP
8000
EDC0
EDC0
4880
4880
5180
5300
7E00
3C00
ENDCHAR

STARTCHAR 956
ENCODING 956
SWIDTH 704 0
DWIDTH 10 0
BBX 9 9 0 0
BITMAP
4000
7F00
7F80
2180
2180
6180
6180
E180
C180
ENDCHAR

STARTCHAR 957
ENCODING 957
SWIDTH 176 0
DWIDTH 2 0
BBX 2 4 0 0
BITMAP
40
80
C0
C0
ENDCHAR

STARTCHAR 958
ENCODING 958
SWIDTH 176 0
DWIDTH 2 0
BBX 2 6 0 0
BITMAP
40
80
C0
C0
00
C0
ENDCHAR

STARTCHAR 959
ENCODING 959
SWIDTH 333 0
DWIDTH 5 0
BBX 4 9 0 0
BITMAP
60
90
90
40
40
20
20
00
60
ENDCHAR

STARTCHAR 960
ENCODING 960
SWIDTH 278 0
DWIDTH 4 0
BBX 4 4 0 0
BITMAP
60
80
70
C0
ENDCHAR

STARTCHAR 961
ENCODING 961
SWIDTH 222 0
DWIDTH 3 0
BBX 3 9 0 0
BITMAP
E0
00
40
40
40
40
40
40
40
ENDCHAR

STARTCHAR 962
ENCODING 962
SWIDTH 222 0
DWIDTH 3 0
BBX 3 11 0 0
BITMAP
60
40
E0
00
40
40
40
40
40
40
40
ENDCHAR

STARTCHAR 963
ENCODING 963
SWIDTH 389 0
DWIDTH 5 0
BBX 6 10 -1 -3
BITMAP
30
20
70
08
14
14
08
08
90
60
ENDCHAR

STARTCHAR 964
ENCODING 964
SWIDTH 219 0
DWIDTH 3 0
BBX 3 11 0 -3
BITMAP
40
40
40
40
40
40
40
40
60
40
E0
ENDCHAR

STARTCHAR 965
ENCODING 965
SWIDTH 556 0
DWIDTH 8 0
BBX 8 9 0 -3
BITMAP
60
43
E6
08
48
46
82
C6
7C
ENDCHAR

STARTCHAR 966
ENCODING 966
SWIDTH 219 0
DWIDTH 3 0
BBX 1 8 1 0
BITMAP
80
80
80
80
80
80
80
80
ENDCHAR

STARTCHAR 967
ENCODING 967
SWIDTH 722 0
DWIDTH 10 0
BBX 9 8 0 -3
BITMAP
0180
8180
8080
C300
7E00
0000
0C00
0C00
ENDCHAR

STARTCHAR 968
ENCODING 968
SWIDTH 213 0
DWIDTH 3 0
BBX 3 7 0 0
BITMAP
A0
A0
00
40
A0
A0
40
ENDCHAR

STARTCHAR 969
ENCODING 969
SWIDTH 722 0
DWIDTH 10 0
BBX 10 7 0 0
BITMAP
0600
3600
30C0
80C0
8040
C180
7F00
ENDCHAR

STARTCHAR 970
ENCODING 970
SWIDTH 722 0
DWIDTH 10 0
BBX 10 8 0 0
BITMAP
1800
1800
0600
36C0
B0C0
8040
C180
7F00
ENDCHAR

STARTCHAR 971
ENCODING 971
SWIDTH 500 0
DWIDTH 7 0
BBX 7 9 0 -6
BITMAP
7E
30
40
40
98
98
C0
70
1E
ENDCHAR

STARTCHAR 972
ENCODING 972
SWIDTH 500 0
DWIDTH 7 0
BBX 7 9 0 -6
BITMAP
7E
30
40
40
80
80
C0
70
1E
ENDCHAR

STARTCHAR 973
ENCODING 973
SWIDTH 500 0
DWIDTH 7 0
BBX 7 12 0 -6
BITMAP
30
30
00
7E
30
40
40
80
80
C0
70
1E
ENDCHAR

STARTCHAR 974
ENCODING 974
SWIDTH 278 0
DWIDTH 4 0
BBX 4 5 0 0
BITMAP
40
60
30
10
E0
ENDCHAR

STARTCHAR 975
ENCODING 975
SWIDTH 278 0
DWIDTH 4 0
BBX 4 8 0 0
BITMAP
C0
C0
00
40
60
30
10
E0
ENDCHAR

STARTCHAR 976
ENCODING 976
SWIDTH 333 0
DWIDTH 5 0
BBX 4 6 0 -3
BITMAP
20
30
10
10
20
C0
ENDCHAR

STARTCHAR 977
ENCODING 977
SWIDTH 333 0
DWIDTH 5 0
BBX 4 10 0 -3
BITMAP
60
60
00
00
20
30
10
10
20
C0
ENDCHAR

STARTCHAR 978
ENCODING 978
SWIDTH 833 0
DWIDTH 12 0
BBX 11 7 0 -4
BITMAP
0020
04A0
0760
4400
8400
8800
7000
ENDCHAR

STARTCHAR 979
ENCODING 979
SWIDTH 833 0
DWIDTH 12 0
BBX 11 12 0 -4
BITMAP
0180
0180
0060
0360
0300
0020
04A0
0760
4400
8400
8800
7000
ENDCHAR

STARTCHAR 980
ENCODING 980
SWIDTH 1000 0
DWIDTH 14 0
BBX 13 8 0 -4
BITMAP
0038
0048
0490
07E0
4500
8400
8800
7000
ENDCHAR

STARTCHAR 981
ENCODING 981
SWIDTH 1000 0
DWIDTH 14 0
BBX 13 11 0 -4
BITMAP
0030
0030
0000
0038
0048
0490
07E0
4500
8400
8800
7000
ENDCHAR

STARTCHAR 982
ENCODING 982
SWIDTH 556 0
DWIDTH 8 0
BBX 7 9 1 0
BITMAP
20
70
20
20
20
2C
32
3C
F0
ENDCHAR

STARTCHAR 983
ENCODING 983
SWIDTH 556 0
DWIDTH 8 0
BBX 7 9 1 0
BITMAP
20
70
2C
2C
20
2C
32
3C
F0
ENDCHAR

STARTCHAR 984
ENCODING 984
SWIDTH 481 0
DWIDTH 7 0
BBX 7 11 0 -6
BITMAP
60
80
D8
20
40
80
80
80
40
60
1E
ENDCHAR

STARTCHAR 985
ENCODING 985
SWIDTH 481 0
DWIDTH 7 0
BBX 7 14 0 -6
BITMAP
60
60
00
60
80
D8
20
40
80
80
80
40
60
1E
ENDCHAR

STARTCHAR 986
ENCODING 986
SWIDTH 278 0
DWIDTH 4 0
BBX 6 1 -1 0
BITMAP
FC
ENDCHAR

STARTCHAR 987
ENCODING 987
SWIDTH 722 0
DWIDTH 10 0
BBX 8 8 1 0
BITMAP
03
03
00
02
45
85
83
7E
ENDCHAR

STARTCHAR 988
ENCODING 988
SWIDTH 481 0
DWIDTH 7 0
BBX 7 10 0 -2
BITMAP
06
36
30
00
04
4A
8A
86
84
78
ENDCHAR

STARTCHAR 989
ENCODING 989
SWIDTH 481 0
DWIDTH 7 0
BBX 6 9 0 0
BITMAP
08
0C
68
48
24
64
04
04
F8
ENDCHAR

STARTCHAR 990
ENCODING 990
SWIDTH 444 0
DWIDTH 6 0
BBX 6 10 0 -1
BITMAP
08
08
0C
04
04
04
44
84
88
70
ENDCHAR

STARTCHAR 991
ENCODING 991
SWIDTH 333 0
DWIDTH 5 0
BBX 4 10 0 -6
BITMAP
60
90
F0
80
80
80
40
40
40
40
ENDCHAR

STARTCHAR 992
ENCODING 992
SWIDTH 444 0
DWIDTH 6 0
BBX 5 8 0 -1
BITMAP
60
60
08
08
48
88
88
70
ENDCHAR

STARTCHAR 993
ENCODING 993
SWIDTH 444 0
DWIDTH 6 0
BBX 6 5 0 0
BITMAP
10
38
2C
34
CC
ENDCHAR

STARTCHAR 994
ENCODING 994
SWIDTH 389 0
DWIDTH 5 0
BBX 6 7 -1 -3
BITMAP
08
14
14
08
08
90
60
ENDCHAR

STARTCHAR 995
ENCODING 995
SWIDTH 556 0
DWIDTH 8 0
BBX 8 8 0 -3
BITMAP
03
06
48
48
86
81
C2
7C
ENDCHAR

STARTCHAR 996
ENCODING 996
SWIDTH 556 0
DWIDTH 8 0
BBX 8 10 0 -5
BITMAP
03
06
48
48
86
81
7E
00
36
36
ENDCHAR

STARTCHAR 997
ENCODING 997
SWIDTH 245 0
DWIDTH 3 0
BBX 3 4 0 9
BITMAP
20
C0
20
C0
ENDCHAR

STARTCHAR 998
ENCODING 998
SWIDTH 245 0
DWIDTH 3 0
BBX 3 4 0 9
BITMAP
40
A0
40
A0
ENDCHAR

STARTCHAR 999
ENCODING 999
SWIDTH 245 0
DWIDTH 3 0
BBX 3 4 0 -4
BITMAP
20
C0
20
C0
ENDCHAR

STARTCHAR 1000
ENCODING 1000
SWIDTH 245 0
DWIDTH 3 0
BBX 3 2 0 10
BITMAP
60
80
ENDCHAR

STARTCHAR 1001
ENCODING 1001
SWIDTH 245 0
DWIDTH 3 0
BBX 3 4 0 10
BITMAP
40
A0
40
A0
ENDCHAR

STARTCHAR 1002
ENCODING 1002
SWIDTH 245 0
DWIDTH 3 0
BBX 3 2 0 -3
BITMAP
60
80
ENDCHAR

STARTCHAR 1003
ENCODING 1003
SWIDTH 245 0
DWIDTH 3 0
BBX 4 2 0 10
BITMAP
50
E0
ENDCHAR

STARTCHAR 1004
ENCODING 1004
SWIDTH 245 0
DWIDTH 3 0
BBX 3 3 0 10
BITMAP
40
A0
40
ENDCHAR

STARTCHAR 1005
ENCODING 1005
SWIDTH 352 0
DWIDTH 5 0
BBX 2 3 1 2
BITMAP
80
C0
40
ENDCHAR

STARTCHAR 1006
ENCODING 1006
SWIDTH 352 0
DWIDTH 5 0
BBX 3 8 1 0
BITMAP
80
C0
40
40
20
20
20
20
ENDCHAR

STARTCHAR 1007
ENCODING 1007
SWIDTH 352 0
DWIDTH 5 0
BBX 4 8 0 0
BITMAP
90
F0
40
40
20
20
20
20
ENDCHAR

STARTCHAR 1008
ENCODING 1008
SWIDTH 352 0
DWIDTH 5 0
BBX 6 8 -1 0
BITMAP
94
FC
68
40
40
20
20
20
ENDCHAR

STARTCHAR 1009
ENCODING 1009
SWIDTH 352 0
DWIDTH 5 0
BBX 3 8 1 0
BITMAP
60
80
80
40
40
80
C0
60
ENDCHAR

STARTCHAR 1010
ENCODING 1010
SWIDTH 352 0
DWIDTH 5 0
BBX 4 5 0 1
BITMAP
20
70
90
F0
60
ENDCHAR

STARTCHAR 1011
ENCODING 1011
SWIDTH 352 0
DWIDTH 5 0
BBX 5 7 -1 0
BITMAP
C0
F0
10
10
18
18
08
ENDCHAR

STARTCHAR 1012
ENCODING 1012
SWIDTH 352 0
DWIDTH 5 0
BBX 5 8 0 0
BITMAP
88
88
C8
50
50
30
20
20
ENDCHAR

STARTCHAR 1013
ENCODING 1013
SWIDTH 352 0
DWIDTH 5 0
BBX 5 8 0 0
BITMAP
20
20
20
50
50
98
88
88
ENDCHAR

STARTCHAR 1014
ENCODING 1014
SWIDTH 352 0
DWIDTH 5 0
BBX 4 8 0 0
BITMAP
40
60
A0
A0
60
10
10
10
ENDCHAR

STARTCHAR 1015
ENCODING 1015
SWIDTH 549 0
DWIDTH 8 0
BBX 8 10 0 0
BITMAP
0E
11
20
FC
40
F8
40
42
44
38
ENDCHAR
ENDFONT
